{
.appVersion = "1056";
classes = (
{
automatic = 1;
code = "A Aacute Acircumflex Adieresis Agrave Aring Atilde AE B C Ccedilla D Eth E Eacute Ecircumflex Edieresis Egrave F G H I Iacute Icircumflex Idieresis Igrave J K L Lslash M N Eng Ntilde O Oacute Ocircumflex Odieresis Ograve Oslash Otilde OE P Thorn Q R S Scaron T U Uacute Ucircumflex Udieresis Ugrave V W X Y Yacute Ydieresis Z Zcaron M.Mme I.duo OE.duo W.duo uni0394 uni03A9";
name = Uppercase;
}
);
copyright = "2018 - Juliette Duhe, Lea Pradine";
customParameters = (
{
name = panose;
value = (
0,
0,
5,
0,
0,
0,
0,
0,
0,
0
);
},
{
name = unicodeRanges;
value = (
0,
1
);
},
{
name = codePageRanges;
value = (
1252
);
},
{
name = glyphOrder;
value = (
.notdef,
A,
Aacute,
Acircumflex,
Adieresis,
Agrave,
Aring,
Atilde,
AE,
B,
C,
Ccedilla,
D,
Eth,
E,
Eacute,
Ecircumflex,
Edieresis,
Egrave,
F,
G,
H,
I,
Iacute,
Icircumflex,
Idieresis,
Igrave,
J,
K,
L,
Lslash,
M,
N,
Eng,
Ntilde,
O,
Oacute,
Ocircumflex,
Odieresis,
Ograve,
Oslash,
Otilde,
OE,
P,
Thorn,
Q,
R,
S,
Scaron,
T,
U,
Uacute,
Ucircumflex,
Udieresis,
Ugrave,
V,
W,
X,
Y,
Yacute,
Ydieresis,
Z,
Zcaron,
V.001,
M.Mme,
AE.duo,
I.duo,
OE.duo,
W.duo,
a,
aacute,
acircumflex,
adieresis,
agrave,
aring,
atilde,
ae,
b,
c,
ccedilla,
d,
eth,
e,
eacute,
ecircumflex,
edieresis,
egrave,
f,
g,
h,
i,
dotlessi,
iacute,
icircumflex,
idieresis,
igrave,
j,
k,
l,
lslash,
m,
n,
eng,
ntilde,
o,
oacute,
ocircumflex,
odieresis,
ograve,
oslash,
otilde,
oe,
p,
thorn,
q,
r,
s,
scaron,
germandbls,
t,
u,
uacute,
ucircumflex,
udieresis,
ugrave,
v,
w,
x,
y,
yacute,
ydieresis,
z,
zcaron,
ae.duo,
i.duo,
dotlessi.duo,
iacute.duo,
icircumflex.duo,
idieresis.duo,
igrave.duo,
j.duo,
l.duo,
lslash.duo,
m.duo,
oe.duo,
w.duo,
fi,
fl,
ordfeminine,
ordmasculine,
uni0394,
uni03A9,
pi,
zero,
one,
two,
three,
four,
five,
six,
seven,
eight,
nine,
one.duo,
zero.osf,
one.osf,
two.osf,
three.osf,
four.osf,
five.osf,
six.osf,
seven.osf,
eight.osf,
nine.osf,
one.osf.duo,
zero.dnom,
one.dnom,
two.dnom,
three.dnom,

glyphs = (
{
glyphname = .notdef;
lastChange = "2018-07-05 08:09:20 +0000";
layers = (
{
layerId = "569BED38-A8F7-49CD-B9BC-3027C0528AF7";
paths = (
{
closed = 1;
nodes = (
"160 600 LINE",
"160 700 LINE",
"150 700 LINE",
"150 600 LINE"
);
},
{
closed = 1;
nodes = (
"200 600 LINE",
"200 700 LINE",
"190 700 LINE",
"190 600 LINE"
);
},
{
closed = 1;
nodes = (
"240 655 LINE",
"195 655 LINE",
"195 645 LINE",
"240 645 LINE"
);
},
{
closed = 1;
nodes = (
"260 700 LINE",
"195 700 LINE",
"195 690 LINE",
"260 690 LINE"
);
},
{
closed = 1;
nodes = (
"335 600 LINE",
"335 650 LINE",
"325 650 LINE",
"325 600 LINE"
);
},
{
closed = 1;
nodes = (
"370 655 LINE",
"290 655 LINE",
"290 645 LINE",
"370 645 LINE"
);
},
{
closed = 1;
nodes = (
"300 650 LINE",
"300 700 LINE",
"290 700 LINE",
"290 650 LINE"
);
},
{
closed = 1;
nodes = (
"370 650 LINE",
"370 700 LINE",
"360 700 LINE",
"360 650 LINE"
);
},
{
closed = 1;
nodes = (
"400 700 LINE",
"410 700 LINE",
"410 600 LINE",
"400 600 LINE"
);
},
{
closed = 1;
nodes = (
"405 690 LINE",
"405 700 LINE",
"470 700 LINE",
"470 690 LINE"
);
},
{
closed = 1;
nodes = (
"405 600 LINE",
"405 610 LINE",
"470 610 LINE",
"470 600 LINE"
);
},
{
closed = 1;
nodes = (
"465 700 LINE",
"475 700 LINE",
"475 600 LINE",
"465 600 LINE"
);
},
{
closed = 1;
nodes = (
"505 700 LINE",
"515 700 LINE",
"515 600 LINE",
"505 600 LINE"
);
},
{
closed = 1;
nodes = (
"510 600 LINE",
"510 610 LINE",
"580 610 LINE",
"580 600 LINE"
);
},
{
closed = 1;
nodes = (
"575 700 LINE",
"585 700 LINE",
"585 600 LINE",
"575 600 LINE"
);
},
{
closed = 1;
nodes = (
"160 450 LINE",
"160 550 LINE",
"150 550 LINE",
"150 450 LINE"
);
},
{
closed = 1;
nodes = (
"195 460 LINE",
"155 460 LINE",
"155 450 LINE",
"195 450 LINE"
);
},
{
closed = 1;
nodes = (
"200 450 LINE",
"200 515 LINE",
"190 515 LINE",
"190 450 LINE"
);
},
{
closed = 1;
nodes = (
"235 460 LINE",
"195 460 LINE",
"195 450 LINE",
"235 450 LINE"
);
},
{
closed = 1;
nodes = (
"240 450 LINE",
"240 550 LINE",
"230 550 LINE",
"230 450 LINE"
);
},
{
closed = 1;
nodes = (
"395 450 LINE",
"395 550 LINE",
"385 550 LINE",
"385 450 LINE"
);
},
{
closed = 1;
nodes = (
"465 450 LINE",
"465 550 LINE",
"455 550 LINE",
"455 450 LINE"
);
},
{
closed = 1;
nodes = (
"405 510 LINE",
"415 510 LINE",
"415 550 LINE",
"405 550 LINE"
);
},
{
closed = 1;
nodes = (
"390 550 LINE",
"390 540 LINE",
"410 540 LINE",
"410 550 LINE"
);
},
{
closed = 1;
nodes = (
"420 480 LINE",
"430 480 LINE",
"430 520 LINE",
"420 520 LINE"
);
},
{
closed = 1;
nodes = (
"405 520 LINE",
"405 510 LINE",
"425 510 LINE",
"425 520 LINE"
);
},
{
closed = 1;
nodes = (
"435 450 LINE",
"445 450 LINE",
"445 490 LINE",
"435 490 LINE"
);
},
{
closed = 1;
nodes = (
"420 490 LINE",
"420 480 LINE",
"440 480 LINE",
"440 490 LINE"
);
},
{
closed = 1;
nodes = (
"440 460 LINE",
"440 450 LINE",
"460 450 LINE",
"460 460 LINE"
);
},
{
closed = 1;
nodes = (
"530 450 LINE",
"530 550 LINE",
"520 550 LINE",
"520 450 LINE"
);
},
{
closed = 1;
nodes = (
"565 550 LINE",
"485 550 LINE",
"485 540 LINE",
"565 540 LINE"
);
},
{
closed = 1;
nodes = (
"615 450 LINE",
"615 550 LINE",
"605 550 LINE",
"605 450 LINE"
);
},
{
closed = 1;
nodes = (
"625 510 LINE",
"635 510 LINE",
"635 550 LINE",
"625 550 LINE"
);
},
{
closed = 1;
nodes = (
"610 550 LINE",
"610 540 LINE",
"630 540 LINE",
"630 550 LINE"
);
},
{
closed = 1;
nodes = (
"640 480 LINE",
"650 480 LINE",
"650 520 LINE",
"640 520 LINE"
);
},
{
closed = 1;
nodes = (
"625 520 LINE",
"625 510 LINE",
"645 510 LINE",
"645 520 LINE"
);
},
{
closed = 1;
nodes = (
"640 490 LINE",
"640 480 LINE",
"660 480 LINE",
"660 490 LINE"
);
},
{
closed = 1;
nodes = (
"715 550 LINE",
"705 550 LINE",
"705 450 LINE",
"715 450 LINE"
);
},
{
closed = 1;
nodes = (
"685 550 LINE",
"685 510 LINE",
"695 510 LINE",
"695 550 LINE"
);
},
{
closed = 1;
nodes = (
"690 540 LINE",
"710 540 LINE",
"710 550 LINE",
"690 550 LINE"
);
},
{
closed = 1;
nodes = (
"670 520 LINE",
"670 480 LINE",
"680 480 LINE",
"680 520 LINE"
);
},
{
closed = 1;
nodes = (
"675 510 LINE",
"695 510 LINE",
"695 520 LINE",
"675 520 LINE"
);
},
{
closed = 1;
nodes = (
"660 480 LINE",
"680 480 LINE",
"680 490 LINE",
"660 490 LINE"
);
},
{
closed = 1;
nodes = (
"655 450 LINE",
"665 450 LINE",
"665 490 LINE",
"655 490 LINE"
);
},
{
closed = 1;
nodes = (
"755 450 LINE",
"755 550 LINE",
"745 550 LINE",
"745 450 LINE"
);
},
{
closed = 1;
nodes = (
"815 550 LINE",
"750 550 LINE",
"750 540 LINE",
"815 540 LINE"
);
},
{
closed = 1;
nodes = (
"815 460 LINE",
"750 460 LINE",
"750 450 LINE",
"815 450 LINE"
);
},
{
closed = 1;
nodes = (
"820 450 LINE",
"820 550 LINE",
"810 550 LINE",
"810 450 LINE"
);
},
{
closed = 1;
nodes = (
"845 450 LINE",
"855 450 LINE",
"855 500 LINE",
"845 500 LINE"
);
},
{
closed = 1;
nodes = (
"850 550 LINE",
"850 540 LINE",
"895 540 LINE",
"895 550 LINE"
);
},
{
closed = 1;
nodes = (
"920 450 LINE",
"930 450 LINE",
"930 500 LINE",
"920 500 LINE"
);
},
{
closed = 1;
nodes = (
"850 500 LINE",
"850 490 LINE",
"925 490 LINE",
"925 500 LINE"
);
},
{
closed = 1;
nodes = (
"845 500 LINE",
"855 500 LINE",
"855 550 LINE",
"845 550 LINE"
);
},
{
closed = 1;
nodes = (
"890 500 LINE",
"900 500 LINE",
"900 550 LINE",
"890 550 LINE"
);
},
{
closed = 1;
nodes = (
"960 450 LINE",
"960 550 LINE",
"950 550 LINE",
"950 450 LINE"
);
},
{
closed = 1;
nodes = (
"1000 505 LINE",
"955 505 LINE",
"955 495 LINE",
"1000 495 LINE"
);
},
{
closed = 1;
nodes = (
"1020 550 LINE",
"955 550 LINE",
"955 540 LINE",
"1020 540 LINE"
);
},
{
closed = 1;
nodes = (
"1020 460 LINE",
"955 460 LINE",
"955 450 LINE",
"1020 450 LINE"
);
},
{
closed = 1;
nodes = (
"160 150 LINE",
"160 250 LINE",
"150 250 LINE",
"150 150 LINE"
);
},
{
closed = 1;
nodes = (
"215 250 LINE",
"155 250 LINE",
"155 240 LINE",
"215 240 LINE"
);
},
{
closed = 1;
nodes = (
"215 160 LINE",
"155 160 LINE",
"155 150 LINE",
"215 150 LINE"
);
},
{
closed = 1;
nodes = (
"250 150 LINE",
"250 250 LINE",
"240 250 LINE",
"240 150 LINE"
);
},
{
closed = 1;
nodes = (
"310 250 LINE",
"245 250 LINE",
"245 240 LINE",
"310 240 LINE"
);
},
{
closed = 1;
nodes = (
"310 160 LINE",
"245 160 LINE",
"245 150 LINE",
"310 150 LINE"
);
},
{
closed = 1;
nodes = (
"315 150 LINE",
"315 250 LINE",
"305 250 LINE",
"305 150 LINE"
);
},
{
closed = 1;
nodes = (
"355 150 LINE",
"355 250 LINE",
"345 250 LINE",
"345 150 LINE"
);
},
{
closed = 1;
nodes = (
"425 150 LINE",
"425 250 LINE",
"415 250 LINE",
"415 150 LINE"
);
},
{
closed = 1;
nodes = (
"365 210 LINE",
"375 210 LINE",
"375 250 LINE",
"365 250 LINE"
);
},
{
closed = 1;
nodes = (
"350 250 LINE",
"350 240 LINE",
"370 240 LINE",
"370 250 LINE"
);
},
{
closed = 1;
nodes = (
"380 180 LINE",
"390 180 LINE",
"390 220 LINE",
"380 220 LINE"
);
},
{
closed = 1;
nodes = (
"365 220 LINE",
"365 210 LINE",
"385 210 LINE",
"385 220 LINE"
);
},
{
closed = 1;
nodes = (
"395 150 LINE",
"405 150 LINE",
"405 190 LINE",
"395 190 LINE"
);
},
{
closed = 1;
nodes = (
"380 190 LINE",
"380 180 LINE",
"400 180 LINE",
"400 190 LINE"
);
},
{
closed = 1;
nodes = (
"400 160 LINE",
"400 150 LINE",
"420 150 LINE",
"420 160 LINE"
);
},
{
closed = 1;
nodes = (
"485 150 LINE",
"485 250 LINE",
"475 250 LINE",
"475 150 LINE"
);
},
{
closed = 1;
nodes = (
"520 250 LINE",
"440 250 LINE",
"440 240 LINE",
"520 240 LINE"
);
},
{
closed = 1;
nodes = (
"645 150 LINE",
"645 250 LINE",
"635 250 LINE",
"635 150 LINE"
);
},
{
closed = 1;
nodes = (
"700 250 LINE",
"640 250 LINE",
"640 240 LINE",
"700 240 LINE"
);
},
{
closed = 1;
nodes = (
"700 160 LINE",
"640 160 LINE",
"640 150 LINE",
"700 150 LINE"
);
},
{
closed = 1;
nodes = (
"765 150 LINE",
"765 250 LINE",
"755 250 LINE",
"755 150 LINE"
);
},
{
closed = 1;
nodes = (
"800 250 LINE",
"720 250 LINE",
"720 240 LINE",
"800 240 LINE"
);
},
{
closed = 1;
nodes = (
"160 60 LINE",
"170 60 LINE",
"170 100 LINE",
"160 100 LINE"
);
},
{
closed = 1;
nodes = (
"145 100 LINE",
"145 90 LINE",
"165 90 LINE",
"165 100 LINE"
);
},
{
closed = 1;
nodes = (
"175 30 LINE",
"185 30 LINE",
"185 70 LINE",
"175 70 LINE"
);
},
{
closed = 1;
nodes = (
"160 70 LINE",
"160 60 LINE",
"180 60 LINE",
"180 70 LINE"
);
},
{
closed = 1;
nodes = (
"175 40 LINE",
"175 30 LINE",
"195 30 LINE",
"195 40 LINE"
);
},
{
closed = 1;
nodes = (
"220 100 LINE",
"220 60 LINE",
"230 60 LINE",
"230 100 LINE"
);
},
{
closed = 1;
nodes = (
"225 90 LINE",
"245 90 LINE",
"245 100 LINE",
"225 100 LINE"
);
},
{
closed = 1;
nodes = (
"205 70 LINE",
"205 30 LINE",
"215 30 LINE",
"215 70 LINE"
);
},
{
closed = 1;
nodes = (
"210 60 LINE",
"230 60 LINE",
"230 70 LINE",
"210 70 LINE"
);
},
{
closed = 1;
nodes = (
"195 30 LINE",
"215 30 LINE",
"215 40 LINE",
"195 40 LINE"
);
},
{
closed = 1;
nodes = (
"190 0 LINE",
"200 0 LINE",
"200 40 LINE",
"190 40 LINE"
);
},
{
closed = 1;
nodes = (
"275 0 LINE",
"275 100 LINE",
"265 100 LINE",
"265 0 LINE"
);
},
{
closed = 1;
nodes = (
"315 55 LINE",
"270 55 LINE",
"270 45 LINE",
"315 45 LINE"
);
},
{
closed = 1;
nodes = (
"335 100 LINE",
"270 100 LINE",
"270 90 LINE",
"335 90 LINE"
);
},
{
closed = 1;
nodes = (
"335 10 LINE",
"270 10 LINE",
"270 0 LINE",
"335 0 LINE"
);
},
{
closed = 1;
nodes = (
"435 60 LINE",
"445 60 LINE",
"445 100 LINE",
"435 100 LINE"
);
},
{
closed = 1;
nodes = (
"420 100 LINE",
"420 90 LINE",
"440 90 LINE",
"440 100 LINE"
);
},
{
closed = 1;
nodes = (
"450 30 LINE",
"460 30 LINE",
"460 70 LINE",
"450 70 LINE"
);
},
{
closed = 1;
nodes = (
"435 70 LINE",
"435 60 LINE",
"455 60 LINE",
"455 70 LINE"
);
},
{
closed = 1;
nodes = (
"450 40 LINE",
"450 30 LINE",
"470 30 LINE",
"470 40 LINE"
);
},
{
closed = 1;
nodes = (
"495 100 LINE",
"495 60 LINE",
"505 60 LINE",
"505 100 LINE"
);
},
{
closed = 1;
nodes = (
"500 90 LINE",
"520 90 LINE",
"520 100 LINE",
"500 100 LINE"
);
},
{
closed = 1;
nodes = (
"480 70 LINE",
"480 30 LINE",
"490 30 LINE",
"490 70 LINE"
);
},
{
closed = 1;
nodes = (
"485 60 LINE",
"505 60 LINE",
"505 70 LINE",
"485 70 LINE"
);
},
{
closed = 1;
nodes = (
"470 30 LINE",
"490 30 LINE",
"490 40 LINE",
"470 40 LINE"
);
},
{
closed = 1;
nodes = (
"465 0 LINE",
"475 0 LINE",
"475 40 LINE",
"465 40 LINE"
);
},
{
closed = 1;
nodes = (
"550 0 LINE",
"550 100 LINE",
"540 100 LINE",
"540 0 LINE"
);
},
{
closed = 1;
nodes = (
"590 55 LINE",
"545 55 LINE",
"545 45 LINE",
"590 45 LINE"
);
},
{
closed = 1;
nodes = (
"610 100 LINE",
"545 100 LINE",
"545 90 LINE",
"610 90 LINE"
);
},
{
closed = 1;
nodes = (
"610 10 LINE",
"545 10 LINE",
"545 0 LINE",
"610 0 LINE"
);
},
{
closed = 1;
nodes = (
"375 0 LINE",
"375 100 LINE",
"365 100 LINE",
"365 0 LINE"
);
},
{
closed = 1;
nodes = (
"435 10 LINE",
"370 10 LINE",
"370 0 LINE",
"435 0 LINE"
);
},
{
closed = 1;
nodes = (
"675 0 LINE",
"675 100 LINE",
"665 100 LINE",
"665 0 LINE"
);
},
{
closed = 1;
nodes = (
"710 100 LINE",
"630 100 LINE",
"630 90 LINE",
"710 90 LINE"
);
},
{
closed = 1;
nodes = (
"840 0 LINE",
"840 100 LINE",
"830 100 LINE",
"830 0 LINE"
);
},
{
closed = 1;
nodes = (
"910 0 LINE",
"910 100 LINE",
"900 100 LINE",
"900 0 LINE"
);
},
{
closed = 1;
nodes = (
"850 60 LINE",
"860 60 LINE",
"860 100 LINE",
"850 100 LINE"
);
},
{
closed = 1;
nodes = (
"835 100 LINE",
"835 90 LINE",
"855 90 LINE",
"855 100 LINE"
);
},
{
closed = 1;
nodes = (
"865 30 LINE",
"875 30 LINE",
"875 70 LINE",
"865 70 LINE"
);
},
{
closed = 1;
nodes = (
"850 70 LINE",
"850 60 LINE",
"870 60 LINE",
"870 70 LINE"
);
},
{
closed = 1;
nodes = (
"880 0 LINE",
"890 0 LINE",
"890 40 LINE",
"880 40 LINE"
);
},
{
closed = 1;
nodes = (
"865 40 LINE",
"865 30 LINE",
"885 30 LINE",
"885 40 LINE"
);
},
{
closed = 1;
nodes = (
"885 10 LINE",
"885 0 LINE",
"905 0 LINE",
"905 10 LINE"
);
},
{
closed = 1;
nodes = (
"945 0 LINE",
"945 100 LINE",
"935 100 LINE",
"935 0 LINE"
);
},
{
closed = 1;
nodes = (
"985 55 LINE",
"940 55 LINE",
"940 45 LINE",
"985 45 LINE"
);
},
{
closed = 1;
nodes = (
"1005 100 LINE",
"940 100 LINE",
"940 90 LINE",
"1005 90 LINE"
);
},
{
closed = 1;
nodes = (
"1005 10 LINE",
"940 10 LINE",
"940 0 LINE",
"1005 0 LINE"
);
},
{
closed = 1;
nodes = (
"775 0 LINE",
"775 50 LINE",
"765 50 LINE",
"765 0 LINE"
);
},
{
closed = 1;
nodes = (
"810 55 LINE",
"730 55 LINE",
"730 45 LINE",
"810 45 LINE"
);
},
{
closed = 1;
nodes = (
"740 50 LINE",
"740 100 LINE",
"730 100 LINE",
"730 50 LINE"
);
},
{
closed = 1;
nodes = (
"810 50 LINE",
"810 100 LINE",
"800 100 LINE",
"800 50 LINE"
);
},
{
closed = 1;
nodes = (
"190 -150 LINE",
"190 -50 LINE",
"180 -50 LINE",
"180 -150 LINE"
);
},
{
closed = 1;
nodes = (
"230 -95 LINE",
"185 -95 LINE",
"185 -105 LINE",
"230 -105 LINE"
);
},
{
closed = 1;
nodes = (
"250 -50 LINE",
"185 -50 LINE",
"185 -60 LINE",
"250 -60 LINE"
);
},
{
closed = 1;
nodes = (
"275 -150 LINE",
"285 -150 LINE",
"285 -100 LINE",
"275 -100 LINE"
);
},
{
closed = 1;
nodes = (
"280 -50 LINE",
"280 -60 LINE",
"325 -60 LINE",
"325 -50 LINE"
);
},
{
closed = 1;
nodes = (
"350 -150 LINE",
"360 -150 LINE",
"360 -100 LINE",
"350 -100 LINE"
);
},
{
closed = 1;
nodes = (
"280 -100 LINE",
"280 -110 LINE",
"355 -110 LINE",
"355 -100 LINE"
);
},
{
closed = 1;
nodes = (
"275 -100 LINE",
"285 -100 LINE",
"285 -50 LINE",
"275 -50 LINE"
);
},
{
closed = 1;
nodes = (
"320 -100 LINE",
"330 -100 LINE",
"330 -50 LINE",
"320 -50 LINE"
);
},
{
closed = 1;
nodes = (
"155 -150 LINE",
"155 -135 LINE",
"140 -135 LINE",
"140 -150 LINE"
);
},
{
closed = 1;
nodes = (
"1055 450 LINE",
"1055 465 LINE",
"1040 465 LINE",
"1040 450 LINE"
);
},
{
closed = 1;
nodes = (
"1055 435 LINE",
"1055 460 LINE",
"1045 460 LINE",
"1045 435 LINE"
);
},
{
closed = 1;
nodes = (
"1060 600 LINE",
"1060 700 LINE",
"615 700 LINE",
"615 600 LINE"
);
},
{
closed = 1;
nodes = (
"1060 150 LINE",
"1060 250 LINE",
"820 250 LINE",
"820 150 LINE"
);
},
{
closed = 1;
nodes = (
"1060 -150 LINE",
"1060 -50 LINE",
"395 -50 LINE",
"395 -150 LINE"
);
},
{
closed = 1;
nodes = (
"160 300 LINE",
"160 400 LINE",
"150 400 LINE",
"150 300 LINE"
);
},
{
closed = 1;
nodes = (
"200 355 LINE",
"155 355 LINE",
"155 345 LINE",
"200 345 LINE"
);
},
{
closed = 1;
nodes = (
"220 400 LINE",
"155 400 LINE",
"155 390 LINE",
"220 390 LINE"
);
},
{
closed = 1;
nodes = (
"250 300 LINE",
"250 400 LINE",
"240 400 LINE",
"240 300 LINE"
);
},
{
closed = 1;
nodes = (
"310 400 LINE",
"245 400 LINE",
"245 390 LINE",
"310 390 LINE"
);
},
{
closed = 1;
nodes = (
"310 310 LINE",
"245 310 LINE",
"245 300 LINE",
"310 300 LINE"
);
},
{
closed = 1;
nodes = (
"315 300 LINE",
"315 400 LINE",
"305 400 LINE",
"305 300 LINE"
);
},
{
closed = 1;
nodes = (
"605 300 LINE",
"605 400 LINE",
"595 400 LINE",
"595 300 LINE"
);
},
{
closed = 1;
nodes = (
"615 360 LINE",
"625 360 LINE",
"625 400 LINE",
"615 400 LINE"
);
},
{
closed = 1;
nodes = (
"600 400 LINE",
"600 390 LINE",
"620 390 LINE",
"620 400 LINE"
);
},
{
closed = 1;
nodes = (
"630 330 LINE",
"640 330 LINE",
"640 370 LINE",
"630 370 LINE"
);
},
{
closed = 1;
nodes = (
"615 370 LINE",
"615 360 LINE",
"635 360 LINE",
"635 370 LINE"
);
},
{
closed = 1;
nodes = (
"630 340 LINE",
"630 330 LINE",
"650 330 LINE",
"650 340 LINE"
);
},
{
closed = 1;
nodes = (
"705 400 LINE",
"695 400 LINE",
"695 300 LINE",
"705 300 LINE"
);
},
{
closed = 1;
nodes = (
"675 400 LINE",
"675 360 LINE",
"685 360 LINE",
"685 400 LINE"
);
},
{
closed = 1;
nodes = (
"680 390 LINE",
"700 390 LINE",
"700 400 LINE",
"680 400 LINE"
);
},
{
closed = 1;
nodes = (
"660 370 LINE",
"660 330 LINE",
"670 330 LINE",
"670 370 LINE"
);
},
{
closed = 1;
nodes = (
"665 360 LINE",
"685 360 LINE",
"685 370 LINE",
"665 370 LINE"
);
},
{
closed = 1;
nodes = (
"650 330 LINE",
"670 330 LINE",
"670 340 LINE",
"650 340 LINE"
);
},
{
closed = 1;
nodes = (
"645 300 LINE",
"655 300 LINE",
"655 340 LINE",
"645 340 LINE"
);
},
{
closed = 1;
nodes = (
"345 300 LINE",
"355 300 LINE",
"355 350 LINE",
"345 350 LINE"
);
},
{
closed = 1;
nodes = (
"350 400 LINE",
"350 390 LINE",
"395 390 LINE",
"395 400 LINE"
);
},
{
closed = 1;
nodes = (
"420 300 LINE",
"430 300 LINE",
"430 350 LINE",
"420 350 LINE"
);
},
{
closed = 1;
nodes = (
"350 350 LINE",
"350 340 LINE",
"425 340 LINE",
"425 350 LINE"
);
},
{
closed = 1;
nodes = (
"345 350 LINE",
"355 350 LINE",
"355 400 LINE",
"345 400 LINE"
);
},
{
closed = 1;
nodes = (
"390 350 LINE",
"400 350 LINE",
"400 400 LINE",
"390 400 LINE"
);
},
{
closed = 1;
nodes = (
"750 300 LINE",
"750 400 LINE",
"740 400 LINE",
"740 300 LINE"
);
},
{
closed = 1;
nodes = (
"790 355 LINE",
"745 355 LINE",
"745 345 LINE",
"790 345 LINE"
);
},
{
closed = 1;
nodes = (
"810 400 LINE",
"745 400 LINE",
"745 390 LINE",
"810 390 LINE"
);
},
{
closed = 1;
nodes = (
"810 310 LINE",
"745 310 LINE",
"745 300 LINE",
"810 300 LINE"
);
},
{
closed = 1;
nodes = (
"880 300 LINE",
"880 400 LINE",
"870 400 LINE",
"870 300 LINE"
);
},
{
closed = 1;
nodes = (
"940 400 LINE",
"875 400 LINE",
"875 390 LINE",
"940 390 LINE"
);
},
{
closed = 1;
nodes = (
"940 310 LINE",
"875 310 LINE",
"875 300 LINE",
"940 300 LINE"
);
},
{
closed = 1;
nodes = (
"945 300 LINE",
"945 400 LINE",
"935 400 LINE",
"935 300 LINE"
);
},
{
closed = 1;
nodes = (
"975 300 LINE",
"985 300 LINE",
"985 350 LINE",
"975 350 LINE"
);
},
{
closed = 1;
nodes = (
"980 400 LINE",
"980 390 LINE",
"1025 390 LINE",
"1025 400 LINE"
);
},
{
closed = 1;
nodes = (
"1050 300 LINE",
"1060 300 LINE",
"1060 350 LINE",
"1050 350 LINE"
);
},
{
closed = 1;
nodes = (
"980 350 LINE",
"980 340 LINE",
"1055 340 LINE",
"1055 350 LINE"
);
},
{
closed = 1;
nodes = (
"975 350 LINE",
"985 350 LINE",
"985 400 LINE",
"975 400 LINE"
);
},
{
closed = 1;
nodes = (
"1020 350 LINE",
"1030 350 LINE",
"1030 400 LINE",
"1020 400 LINE"
);
},
{
closed = 1;
nodes = (
"465 400 LINE",
"455 400 LINE",
"455 300 LINE",
"465 300 LINE"
);
},
{
closed = 1;
nodes = (
"505 400 LINE",
"505 360 LINE",
"515 360 LINE",
"515 400 LINE"
);
},
{
closed = 1;
nodes = (
"510 390 LINE",
"530 390 LINE",
"530 400 LINE",
"510 400 LINE"
);
},
{
closed = 1;
nodes = (
"480 370 LINE",
"480 330 LINE",
"490 330 LINE",
"490 370 LINE"
);
},
{
closed = 1;
nodes = (
"485 360 LINE",
"515 360 LINE",
"515 370 LINE",
"485 370 LINE"
);
},
{
closed = 1;
nodes = (
"460 345 LINE",
"485 345 LINE",
"485 355 LINE",
"460 355 LINE"
);
},
{
closed = 1;
nodes = (
"515 340 LINE",
"505 340 LINE",
"505 300 LINE",
"515 300 LINE"
);
},
{
closed = 1;
nodes = (
"530 300 LINE",
"530 310 LINE",
"510 310 LINE",
"510 300 LINE"
);
},
{
closed = 1;
nodes = (
"485 330 LINE",
"515 330 LINE",
"515 340 LINE",
"485 340 LINE"
);
},
{
closed = 1;
nodes = (
"320 510 LINE",
"330 510 LINE",
"330 550 LINE",
"320 550 LINE"
);
},
{
closed = 1;
nodes = (
"305 550 LINE",
"305 540 LINE",
"325 540 LINE",
"325 550 LINE"
);
},
{
closed = 1;
nodes = (
"335 480 LINE",
"345 480 LINE",
"345 520 LINE",
"335 520 LINE"
);
},
{
closed = 1;
nodes = (
"320 520 LINE",
"320 510 LINE",
"340 510 LINE",
"340 520 LINE"
);
},
{
closed = 1;
nodes = (
"350 450 LINE",
"360 450 LINE",
"360 490 LINE",
"350 490 LINE"
);
},
{
closed = 1;
nodes = (
"335 490 LINE",
"335 480 LINE",
"355 480 LINE",
"355 490 LINE"
);
},
{
closed = 1;
nodes = (
"295 550 LINE",
"295 510 LINE",
"305 510 LINE",
"305 550 LINE"
);
},
{
closed = 1;
nodes = (
"280 520 LINE",
"280 480 LINE",
"290 480 LINE",
"290 520 LINE"
);
},
{
closed = 1;
nodes = (
"285 510 LINE",
"305 510 LINE",
"305 520 LINE",
"285 520 LINE"
);
},
{
closed = 1;
nodes = (
"265 490 LINE",
"265 450 LINE",
"275 450 LINE",
"275 490 LINE"
);
},
{
closed = 1;
nodes = (
"270 480 LINE",
"340 480 LINE",
"340 490 LINE",
"270 490 LINE"
);
},
{
closed = 1;
nodes = (
"575 210 LINE",
"585 210 LINE",
"585 250 LINE",
"575 250 LINE"
);
},
{
closed = 1;
nodes = (
"560 250 LINE",
"560 240 LINE",
"580 240 LINE",
"580 250 LINE"
);
},
{
closed = 1;
nodes = (
"590 180 LINE",
"600 180 LINE",
"600 220 LINE",
"590 220 LINE"
);
},
{
closed = 1;
nodes = (
"575 220 LINE",
"575 210 LINE",
"595 210 LINE",
"595 220 LINE"
);
},
{
closed = 1;
nodes = (
"605 150 LINE",
"615 150 LINE",
"615 190 LINE",
"605 190 LINE"
);
},
{
closed = 1;
nodes = (
"590 190 LINE",
"590 180 LINE",
"610 180 LINE",
"610 190 LINE"
);
},
{
closed = 1;
nodes = (
"550 250 LINE",
"550 210 LINE",
"560 210 LINE",
"560 250 LINE"
);
},
{
closed = 1;
nodes = (
"535 220 LINE",
"535 180 LINE",
"545 180 LINE",
"545 220 LINE"
);
},
{
closed = 1;
nodes = (
"540 210 LINE",
"560 210 LINE",
"560 220 LINE",
"540 220 LINE"
);
},
{
closed = 1;
nodes = (
"520 190 LINE",
"520 150 LINE",
"530 150 LINE",
"530 190 LINE"
);
},
{
closed = 1;
nodes = (
"525 180 LINE",
"595 180 LINE",
"595 190 LINE",
"525 190 LINE"
);
}
);
width = 1200;
},
{
associatedMasterId = "569BED38-A8F7-49CD-B9BC-3027C0528AF7";
layerId = "EF2130A6-0760-4AE5-A78E-53428097E92F";
paths = (
{
closed = 1;
nodes = (
"169 299 OFFCURVE",
"190 282 OFFCURVE",
"210 282 CURVE SMOOTH",
"234 282 OFFCURVE",
"252 299 OFFCURVE",
"252 322 CURVE SMOOTH",
"252 345 OFFCURVE",
"234 363 OFFCURVE",
"210 363 CURVE SMOOTH",
"190 363 OFFCURVE",
"169 345 OFFCURVE",
"169 322 CURVE SMOOTH"
);
},
{
closed = 1;
nodes = (
"195 219 OFFCURVE",
"108 166 OFFCURVE",
"73 59 CURVE",
"109 46 LINE",
"135 136 OFFCURVE",
"221 178 OFFCURVE",
"300 178 CURVE SMOOTH",
"379 178 OFFCURVE",
"465 136 OFFCURVE",
"491 46 CURVE",
"527 59 LINE",
"492 166 OFFCURVE",
"405 219 OFFCURVE",
"300 219 CURVE SMOOTH"
);
},
{
closed = 1;
nodes = (
"349 299 OFFCURVE",
"370 282 OFFCURVE",
"390 282 CURVE SMOOTH",
"414 282 OFFCURVE",
"432 299 OFFCURVE",
"432 322 CURVE SMOOTH",
"432 345 OFFCURVE",
"414 363 OFFCURVE",
"390 363 CURVE SMOOTH",
"370 363 OFFCURVE",
"349 345 OFFCURVE",
"349 322 CURVE SMOOTH"
);
},
{
closed = 1;
nodes = (
"134 -102 OFFCURVE",
"0 32 OFFCURVE",
"0 198 CURVE SMOOTH",
"0 364 OFFCURVE",
"134 498 OFFCURVE",
"300 498 CURVE SMOOTH",
"466 498 OFFCURVE",
"600 364 OFFCURVE",
"600 198 CURVE SMOOTH",
"600 32 OFFCURVE",
"466 -102 OFFCURVE",
"300 -102 CURVE SMOOTH"
);
}
);
width = 600;
}
);
note = .notdef;
},
{
glyphname = A;
lastChange = "2018-05-29 14:27:10 +0000";
layers = (
{
anchors = (
{
name = top;
position = "{303, 590}";
}
);
layerId = "569BED38-A8F7-49CD-B9BC-3027C0528AF7";
paths = (
{
closed = 1;
nodes = (
"525 50 LINE",
"342 590 LINE",
"278 590 OFFCURVE",
"240 590 OFFCURVE",
"177 603 CURVE",
"166 555 LINE",
"197 547 OFFCURVE",
"228 543 OFFCURVE",
"258 541 CURVE",
"74 50 LINE",
"21 50 LINE",
"21 0 LINE",
"209 0 LINE",
"209 50 LINE",
"126 50 LINE",
"187 219 LINE",
"416 219 LINE",
"473 50 LINE",
"390 50 LINE",
"390 0 LINE",
"578 0 LINE",
"578 50 LINE"
);
},
{
closed = 1;
nodes = (
"205 269 LINE",
"303 540 LINE",
"306 540 LINE",
"399 269 LINE"
);
}
);
width = 600;
}
);
note = A;
unicode = 0041;
},
{
glyphname = Aacute;
lastChange = "2018-05-04 08:01:45 +0000";
layers = (
{
layerId = "569BED38-A8F7-49CD-B9BC-3027C0528AF7";
paths = (
{
closed = 1;
nodes = (
"456 693 LINE",
"444 740 LINE",
"133 665 LINE",
"141 632 LINE"
);
},
{
closed = 1;
nodes = (
"525 50 LINE",
"353 556 LINE",
"342 590 LINE",
"278 590 OFFCURVE",
"240 590 OFFCURVE",
"177 603 CURVE",
"166 555 LINE",
"197 547 OFFCURVE",
"228 543 OFFCURVE",
"258 541 CURVE",
"74 50 LINE",
"21 50 LINE",
"21 0 LINE",
"209 0 LINE",
"209 50 LINE",
"126 50 LINE",
"187 219 LINE",
"416 219 LINE",
"473 50 LINE",
"390 50 LINE",
"390 0 LINE",
"578 0 LINE",
"578 50 LINE"
);
},
{
closed = 1;
nodes = (
"205 269 LINE",
"303 540 LINE",
"306 540 LINE",
"399 269 LINE"
);
}
);
width = 600;
}
);
note = Aacute;
unicode = 00C1;
},
{
glyphname = Acircumflex;
lastChange = "2018-05-04 08:01:45 +0000";
layers = (
{
layerId = "569BED38-A8F7-49CD-B9BC-3027C0528AF7";
paths = (
{
closed = 1;
nodes = (
"301 697 LINE",
"501 632 LINE",
"513 660 LINE",
"301 751 LINE",
"89 660 LINE",
"101 632 LINE"
);
},
{
closed = 1;
nodes = (
"525 50 LINE",
"353 556 LINE",
"342 590 LINE",
"278 590 OFFCURVE",
"240 590 OFFCURVE",
"177 603 CURVE",
"166 555 LINE",
"197 547 OFFCURVE",
"228 543 OFFCURVE",
"258 541 CURVE",
"74 50 LINE",
"21 50 LINE",
"21 0 LINE",
"209 0 LINE",
"209 50 LINE",
"126 50 LINE",
"187 219 LINE",
"416 219 LINE",
"473 50 LINE",
"390 50 LINE",
"390 0 LINE",
"578 0 LINE",
"578 50 LINE"
);
},
{
closed = 1;
nodes = (
"205 269 LINE",
"303 540 LINE",
"306 540 LINE",
"399 269 LINE"
);
}
);
width = 600;
}
);
note = Acircumflex;
unicode = 00C2;
},
{
glyphname = Agrave;
lastChange = "2018-05-29 14:25:01 +0000";
layers = (
{
guideLines = (
{
position = "{336, 746}";
}
);
layerId = "569BED38-A8F7-49CD-B9BC-3027C0528AF7";
paths = (
{
closed = 1;
nodes = (
"474 670 LINE",
"163 745 LINE",
"151 698 LINE",
"466 637 LINE"
);
},
{
closed = 1;
nodes = (
"525 50 LINE",
"353 556 LINE",
"342 590 LINE",
"278 590 OFFCURVE",
"240 590 OFFCURVE",
"177 603 CURVE",
"166 555 LINE",
"197 547 OFFCURVE",
"228 543 OFFCURVE",
"258 541 CURVE",
"74 50 LINE",
"21 50 LINE",
"21 0 LINE",
"209 0 LINE",
"209 50 LINE",
"126 50 LINE",
"187 219 LINE",
"416 219 LINE",
"473 50 LINE",
"390 50 LINE",
"390 0 LINE",
"578 0 LINE",
"578 50 LINE"
);
},
{
closed = 1;
nodes = (
"205 269 LINE",
"303 540 LINE",
"306 540 LINE",
"399 269 LINE"
);
}
);
width = 600;
}
);
note = Agrave;
unicode = 00C0;
},
{
glyphname = Aring;
lastChange = "2018-05-04 08:01:45 +0000";
layers = (
{
layerId = "569BED38-A8F7-49CD-B9BC-3027C0528AF7";
paths = (
{
closed = 1;
nodes = (
"340 632 OFFCURVE",
"375 665 OFFCURVE",
"375 703 CURVE SMOOTH",
"375 742 OFFCURVE",
"340 773 OFFCURVE",
"301 773 CURVE SMOOTH",
"263 773 OFFCURVE",
"229 742 OFFCURVE",
"229 703 CURVE SMOOTH",
"229 665 OFFCURVE",
"263 632 OFFCURVE",
"301 632 CURVE SMOOTH"
);
},
{
closed = 1;
nodes = (
"323 741 OFFCURVE",
"342 723 OFFCURVE",
"342 702 CURVE SMOOTH",
"342 680 OFFCURVE",
"323 664 OFFCURVE",
"301 664 CURVE SMOOTH",
"281 664 OFFCURVE",
"262 680 OFFCURVE",
"262 702 CURVE SMOOTH",
"262 723 OFFCURVE",
"281 741 OFFCURVE",
"301 741 CURVE SMOOTH"
);
},
{
closed = 1;
nodes = (
"525 50 LINE",
"353 556 LINE",
"342 590 LINE",
"278 590 OFFCURVE",
"240 590 OFFCURVE",
"177 603 CURVE",
"166 555 LINE",
"197 547 OFFCURVE",
"228 543 OFFCURVE",
"258 541 CURVE",
"74 50 LINE",
"21 50 LINE",
"21 0 LINE",
"209 0 LINE",
"209 50 LINE",
"126 50 LINE",
"187 219 LINE",
"416 219 LINE",
"473 50 LINE",
"390 50 LINE",
"390 0 LINE",
"578 0 LINE",
"578 50 LINE"
);
},
{
closed = 1;
nodes = (
"205 269 LINE",
"303 540 LINE",
"306 540 LINE",
"399 269 LINE"
);
}
);
width = 600;
}
);
note = Aring;
unicode = 00C5;
},
{
glyphname = Atilde;
lastChange = "2018-05-04 08:01:45 +0000";
layers = (
{
layerId = "569BED38-A8F7-49CD-B9BC-3027C0528AF7";
paths = (
{
closed = 1;
nodes = (
"254 718 OFFCURVE",
"268 702 OFFCURVE",
"286 686 CURVE",
"309 667 OFFCURVE",
"330 645 OFFCURVE",
"369 645 CURVE SMOOTH",
"408 645 OFFCURVE",
"440 666 OFFCURVE",
"490 726 CURVE",
"455 756 LINE",
"415 708 OFFCURVE",
"391 690 OFFCURVE",
"369 690 CURVE SMOOTH",
"347 690 OFFCURVE",
"333 706 OFFCURVE",
"315 722 CURVE",
"292 741 OFFCURVE",
"271 763 OFFCURVE",
"232 763 CURVE SMOOTH",
"193 763 OFFCURVE",
"161 742 OFFCURVE",
"111 682 CURVE",
"146 652 LINE",
"186 700 OFFCURVE",
"210 718 OFFCURVE",
"232 718 CURVE SMOOTH"
);
},
{
closed = 1;
nodes = (
"525 50 LINE",
"353 556 LINE",
"342 590 LINE",
"278 590 OFFCURVE",
"240 590 OFFCURVE",
"177 603 CURVE",
"166 555 LINE",
"197 547 OFFCURVE",
"228 543 OFFCURVE",
"258 541 CURVE",
"74 50 LINE",
"21 50 LINE",
"21 0 LINE",
"209 0 LINE",
"209 50 LINE",
"126 50 LINE",
"187 219 LINE",
"416 219 LINE",
"473 50 LINE",
"390 50 LINE",
"390 0 LINE",
"578 0 LINE",
"578 50 LINE"
);
},
{
closed = 1;
nodes = (
"205 269 LINE",
"303 540 LINE",
"306 540 LINE",
"399 269 LINE"
);
}
);
width = 600;
}
);
note = Atilde;
unicode = 00C3;
},
{
glyphname = AE;
lastChange = "2018-06-06 13:06:19 +0000";
layers = (
{
layerId = "569BED38-A8F7-49CD-B9BC-3027C0528AF7";
paths = (
{
closed = 1;
nodes = (
"182 -1 LINE",
"182 49 LINE",
"121 49 LINE",
"189 268 LINE",
"300 268 LINE",
"300 0 LINE",
"576 0 LINE",
"585 97 LINE",
"537 102 LINE",
"533 49 LINE",
"350 49 LINE",
"350 268 LINE",
"448 268 LINE",
"448 182 LINE",
"498 182 LINE",
"498 407 LINE",
"448 407 LINE",
"448 318 LINE",
"350 318 LINE",
"350 540 LINE",
"533 540 LINE",
"537 488 LINE",
"585 493 LINE",
"576 590 LINE",
"342 590 LINE SMOOTH",
"278 590 OFFCURVE",
"240 590 OFFCURVE",
"177 603 CURVE",
"166 555 LINE",
"186.561 549.694 OFFCURVE",
"207.121 546.148 OFFCURVE",
"227.39 543.777 CURVE",
"71 49 LINE",
"10 49 LINE",
"10 -1 LINE"
);
},
{
closed = 1;
nodes = (
"274 540 LINE",
"300 540 LINE",
"300 318 LINE",
"205 318 LINE"
);
}
);
width = 600;
}
);
note = AE;
unicode = 00C6;
},
{
glyphname = B;
lastChange = "2018-05-29 13:04:27 +0000";
layers = (
{
layerId = "569BED38-A8F7-49CD-B9BC-3027C0528AF7";
paths = (
{
closed = 1;
nodes = (
"196 587 OFFCURVE",
"256 593 OFFCURVE",
"317 593 CURVE SMOOTH",
"433 593 OFFCURVE",
"521 551 OFFCURVE",
"521 436 CURVE SMOOTH",
"521 377 OFFCURVE",
"483 326 OFFCURVE",
"426 315 CURVE",
"507 299 OFFCURVE",
"554 251 OFFCURVE",
"554 172 CURVE SMOOTH",
"554 37 OFFCURVE",
"451 -4 OFFCURVE",
"315 -4 CURVE SMOOTH",
"255 -4 OFFCURVE",
"202 0 OFFCURVE",
"142 0 CURVE SMOOTH",
"26 0 LINE",
"26 50 LINE",
"118 50 LINE",
"118 539 LINE",
"85 541 OFFCURVE",
"50 545 OFFCURVE",
"15 552 CURVE",
"27 601 LINE",
"70 593 OFFCURVE",
"102 590 OFFCURVE",
"138 589 CURVE SMOOTH"
);
},
{
closed = 1;
nodes = (
"168 339 LINE",
"315 338 LINE SMOOTH",
"400 337 OFFCURVE",
"471 354 OFFCURVE",
"471 436 CURVE SMOOTH",
"471 509 OFFCURVE",
"417 543 OFFCURVE",
"318 543 CURVE SMOOTH",
"267 543 OFFCURVE",
"219 539 OFFCURVE",
"168 539 CURVE"
);
},
{
closed = 1;
nodes = (
"168 50 LINE",
"315 46 LINE SMOOTH",
"426 43 OFFCURVE",
"504 75 OFFCURVE",
"504 172 CURVE SMOOTH",
"504 262 OFFCURVE",
"426 289 OFFCURVE",
"315 289 CURVE SMOOTH",
"168 289 LINE"
);
}
);
width = 600;
}
);
note = B;
unicode = 0042;
},
{
glyphname = C;
lastChange = "2018-05-04 08:01:45 +0000";
layers = (
{
layerId = "569BED38-A8F7-49CD-B9BC-3027C0528AF7";
paths = (
{
closed = 1;
nodes = (
"174 555 OFFCURVE",
"83 438 OFFCURVE",
"83 290 CURVE SMOOTH",
"83 132 OFFCURVE",
"191 37 OFFCURVE",
"300 37 CURVE SMOOTH",
"413 37 OFFCURVE",
"495 126 OFFCURVE",
"537 246 CURVE",
"584 228 LINE",
"529 79 OFFCURVE",
"441 -13 OFFCURVE",
"300 -13 CURVE SMOOTH",
"154 -13 OFFCURVE",
"33 104 OFFCURVE",
"33 290 CURVE SMOOTH",
"33 476 OFFCURVE",
"146 603 OFFCURVE",
"298 603 CURVE SMOOTH",
"421 603 OFFCURVE",
"495 502 OFFCURVE",
"495 406 CURVE SMOOTH",
"495 365 OFFCURVE",
"472 333 OFFCURVE",
"438 333 CURVE SMOOTH",
"403 333 OFFCURVE",
"378 359 OFFCURVE",
"378 391 CURVE SMOOTH",
"378 434 OFFCURVE",
"426 449 OFFCURVE",
"444 438 CURVE",
"444 501 OFFCURVE",
"367 552 OFFCURVE",
"298 553 CURVE SMOOTH"
);
}
);
width = 600;
}
);
note = C;
unicode = 0043;
},
{
glyphname = Ccedilla;
lastChange = "2018-05-04 08:01:45 +0000";
layers = (
{
layerId = "569BED38-A8F7-49CD-B9BC-3027C0528AF7";
paths = (
{
closed = 1;
nodes = (
"537 246 LINE",
"495 126 OFFCURVE",
"413 37 OFFCURVE",
"300 37 CURVE SMOOTH",
"191 37 OFFCURVE",
"83 132 OFFCURVE",
"83 290 CURVE SMOOTH",
"83 438 OFFCURVE",
"174 555 OFFCURVE",
"298 553 CURVE SMOOTH",
"367 552 OFFCURVE",
"444 501 OFFCURVE",
"444 438 CURVE",
"426 449 OFFCURVE",
"378 434 OFFCURVE",
"378 391 CURVE SMOOTH",
"378 359 OFFCURVE",
"403 333 OFFCURVE",
"438 333 CURVE SMOOTH",
"472 333 OFFCURVE",
"495 365 OFFCURVE",
"495 406 CURVE SMOOTH",
"495 502 OFFCURVE",
"421 603 OFFCURVE",
"298 603 CURVE SMOOTH",
"146 603 OFFCURVE",
"33 476 OFFCURVE",
"33 290 CURVE SMOOTH",
"33 116 OFFCURVE",
"139 2 OFFCURVE",
"273 -12 CURVE",
"273 -71 LINE",
"288 -72 LINE SMOOTH",
"325 -74 OFFCURVE",
"350 -82 OFFCURVE",
"350 -102 CURVE SMOOTH",
"350 -128 OFFCURVE",
"292 -136 OFFCURVE",
"257 -136 CURVE SMOOTH",
"218 -136 OFFCURVE",
"182 -116 OFFCURVE",
"177 -96 CURVE",
"199 -104 OFFCURVE",
"207 -85 OFFCURVE",
"207 -70 CURVE SMOOTH",
"207 -54 OFFCURVE",
"190 -44 OFFCURVE",
"176 -44 CURVE SMOOTH",
"154 -44 OFFCURVE",
"138 -60 OFFCURVE",
"138 -92 CURVE SMOOTH",
"138 -128 OFFCURVE",
"175 -173 OFFCURVE",
"257 -173 CURVE SMOOTH",
"315 -173 OFFCURVE",
"393 -156 OFFCURVE",
"393 -102 CURVE SMOOTH",
"393 -60 OFFCURVE",
"357 -44 OFFCURVE",
"315 -37 CURVE",
"315 -13 LINE",
"447 -6 OFFCURVE",
"531 84 OFFCURVE",
"584 228 CURVE"
);
}
);
width = 600;
}
);
note = Ccedilla;
unicode = 00C7;
},
{
glyphname = D;
lastChange = "2018-05-29 13:05:03 +0000";
layers = (
{
layerId = "569BED38-A8F7-49CD-B9BC-3027C0528AF7";
paths = (
{
closed = 1;
nodes = (
"122 50 LINE",
"38 50 LINE",
"38 0 LINE",
"139 0 LINE",
"297 -2 LINE SMOOTH",
"442 -4 OFFCURVE",
"574 106 OFFCURVE",
"574 292 CURVE SMOOTH",
"574 478 OFFCURVE",
"442 593 OFFCURVE",
"297 593 CURVE SMOOTH",
"252 593 OFFCURVE",
"182 590 OFFCURVE",
"137 590 CURVE SMOOTH",
"101 590 OFFCURVE",
"70 595 OFFCURVE",
"27 603 CURVE",
"15 555 LINE",
"50 548 OFFCURVE",
"89 543 OFFCURVE",
"122 541 CURVE"
);
},
{
closed = 1;
nodes = (
"172 540 LINE",
"172 540 OFFCURVE",
"245 543 OFFCURVE",
"296 543 CURVE SMOOTH",
"414 543 OFFCURVE",
"524 450 OFFCURVE",
"523 292 CURVE SMOOTH",
"522 134 OFFCURVE",
"414 48 OFFCURVE",
"296 48 CURVE SMOOTH",
"248 48 OFFCURVE",
"172 50 OFFCURVE",
"172 50 CURVE"
);
}
);
width = 600;
}
);
note = D;
unicode = 0044;
},
{
glyphname = Eth;
lastChange = "2018-05-29 13:05:11 +0000";
layers = (
{
layerId = "569BED38-A8F7-49CD-B9BC-3027C0528AF7";
paths = (
{
closed = 1;
nodes = (
"15 555 LINE",
"50 548 OFFCURVE",
"89 543 OFFCURVE",
"122 541 CURVE",
"122 318 LINE",
"38 318 LINE",
"38 268 LINE",
"122 268 LINE",
"122 50 LINE",
"38 50 LINE",
"38 0 LINE",
"139 0 LINE",
"297 -2 LINE SMOOTH",
"442 -4 OFFCURVE",
"574 106 OFFCURVE",
"574 292 CURVE SMOOTH",
"574 478 OFFCURVE",
"442 593 OFFCURVE",
"297 593 CURVE SMOOTH",
"258 593 OFFCURVE",
"182 590 OFFCURVE",
"137 590 CURVE SMOOTH",
"101 590 OFFCURVE",
"70 595 OFFCURVE",
"27 603 CURVE"
);
},
{
closed = 1;
nodes = (
"172 268 LINE",
"303 268 LINE",
"303 318 LINE",
"172 318 LINE",
"172 540 LINE",
"172 540 OFFCURVE",
"251 543 OFFCURVE",
"296 543 CURVE SMOOTH",
"414 543 OFFCURVE",
"524 450 OFFCURVE",
"523 292 CURVE SMOOTH",
"522 134 OFFCURVE",
"414 48 OFFCURVE",
"296 48 CURVE SMOOTH",
"248 48 OFFCURVE",
"172 50 OFFCURVE",
"172 50 CURVE"
);
}
);
width = 600;
}
);
note = Eth;
unicode = 00D0;
},
{
glyphname = E;
lastChange = "2018-05-29 14:27:35 +0000";
layers = (
{
anchors = (
{
name = top;
position = "{330, 590}";
}
);
guideLines = (
{
position = "{321, 460}";
}
);
layerId = "569BED38-A8F7-49CD-B9BC-3027C0528AF7";
paths = (
{
closed = 1;
nodes = (
"204 50 LINE",
"491 50 LINE",
"505 222 LINE",
"554 217 LINE",
"534 0 LINE",
"30 0 LINE",
"30 50 LINE",
"154 50 LINE",
"154 540 LINE",
"30 540 LINE",
"30 590 LINE",
"534 590 LINE",
"554 373 LINE",
"505 368 LINE",
"491 540 LINE",
"204 540 LINE",
"204 318 LINE",
"356 318 LINE",
"356 427 LINE",
"406 427 LINE",
"406 162 LINE",
"356 162 LINE",
"356 268 LINE",
"204 268 LINE"
);
}
);
width = 600;
}
);
note = E;
unicode = 0045;
},
{
glyphname = Eacute;
lastChange = "2018-05-29 13:05:27 +0000";
layers = (
{
layerId = "569BED38-A8F7-49CD-B9BC-3027C0528AF7";
paths = (
{
closed = 1;
nodes = (
"132 665 LINE",
"140 632 LINE",
"455 693 LINE",
"443 740 LINE"
);
},
{
closed = 1;
nodes = (
"204 50 LINE",
"491 50 LINE",
"505 222 LINE",
"554 217 LINE",
"534 0 LINE",
"30 0 LINE",
"30 50 LINE",
"154 50 LINE",
"154 540 LINE",
"30 540 LINE",
"30 590 LINE",
"534 590 LINE",
"554 373 LINE",
"505 368 LINE",
"491 540 LINE",
"204 540 LINE",
"204 318 LINE",
"356 318 LINE",
"356 427 LINE",
"406 427 LINE",
"406 162 LINE",
"356 162 LINE",
"356 268 LINE",
"204 268 LINE"
);
}
);
width = 600;
}
);
note = Eacute;
unicode = 00C9;
},
{
glyphname = Ecircumflex;
lastChange = "2018-05-29 13:05:35 +0000";
layers = (
{
layerId = "569BED38-A8F7-49CD-B9BC-3027C0528AF7";
paths = (
{
closed = 1;
nodes = (
"300 751 LINE",
"88 660 LINE",
"100 632 LINE",
"300 697 LINE",
"500 632 LINE",
"512 660 LINE"
);
},
{
closed = 1;
nodes = (
"204 50 LINE",
"491 50 LINE",
"505 222 LINE",
"554 217 LINE",
"534 0 LINE",
"30 0 LINE",
"30 50 LINE",
"154 50 LINE",
"154 540 LINE",
"30 540 LINE",
"30 590 LINE",
"534 590 LINE",
"554 373 LINE",
"505 368 LINE",
"491 540 LINE",
"204 540 LINE",
"204 318 LINE",
"356 318 LINE",
"356 427 LINE",
"406 427 LINE",
"406 162 LINE",
"356 162 LINE",
"356 268 LINE",
"204 268 LINE"
);
}
);
width = 600;
}
);
note = Ecircumflex;
unicode = 00CA;
},
{
glyphname = Egrave;
lastChange = "2018-05-29 13:05:52 +0000";
layers = (
{
layerId = "569BED38-A8F7-49CD-B9BC-3027C0528AF7";
paths = (
{
closed = 1;
nodes = (
"473 670 LINE",
"162 745 LINE",
"150 698 LINE",
"465 637 LINE"
);
},
{
closed = 1;
nodes = (
"205 50 LINE",
"491 50 LINE",
"505 222 LINE",
"554 217 LINE",
"534 0 LINE",
"31 0 LINE",
"31 50 LINE",
"155 50 LINE",
"155 540 LINE",
"31 540 LINE",
"31 590 LINE",
"534 590 LINE",
"554 373 LINE",
"505 368 LINE",
"491 540 LINE",
"205 540 LINE",
"205 318 LINE",
"356 318 LINE",
"356 427 LINE",
"406 427 LINE",
"406 162 LINE",
"356 162 LINE",
"356 268 LINE",
"205 268 LINE"
);
}
);
width = 600;
}
);
note = Egrave;
unicode = 00C8;
},
{
glyphname = F;
lastChange = "2018-05-29 13:06:04 +0000";
layers = (
{
layerId = "569BED38-A8F7-49CD-B9BC-3027C0528AF7";
paths = (
{
closed = 1;
nodes = (
"529 590 LINE",
"553 303 LINE",
"505 298 LINE",
"486 540 LINE",
"199 540 LINE",
"198 321 LINE",
"351 321 LINE",
"351 430 LINE",
"401 430 LINE",
"401 165 LINE",
"351 165 LINE",
"351 271 LINE",
"199 271 LINE",
"199 50 LINE",
"323 50 LINE",
"323 0 LINE",
"25 0 LINE",
"25 50 LINE",
"149 50 LINE",
"149 540 LINE",
"25 540 LINE",
"25 590 LINE"
);
}
);
width = 600;
}
);
note = F;
unicode = 0046;
},
{
glyphname = G;
lastChange = "2018-05-04 08:01:45 +0000";
layers = (
{
layerId = "569BED38-A8F7-49CD-B9BC-3027C0528AF7";
paths = (
{
closed = 1;
nodes = (
"440 521 OFFCURVE",
"369 552 OFFCURVE",
"291 553 CURVE SMOOTH",
"178 554 OFFCURVE",
"79 458 OFFCURVE",
"79 290 CURVE SMOOTH",
"79 130 OFFCURVE",
"172 37 OFFCURVE",
"288 37 CURVE SMOOTH",
"371 37 OFFCURVE",
"470 119 OFFCURVE",
"470 205 CURVE SMOOTH",
"470 229 LINE",
"290 229 LINE",
"290 279 LINE",
"582 279 LINE",
"582 229 LINE",
"520 229 LINE",
"520 0 LINE",
"470 0 LINE",
"470 88 LINE",
"444 43 OFFCURVE",
"387 -13 OFFCURVE",
"288 -13 CURVE SMOOTH",
"121 -13 OFFCURVE",
"29 119 OFFCURVE",
"29 290 CURVE SMOOTH",
"29 486 OFFCURVE",
"139 603 OFFCURVE",
"291 603 CURVE SMOOTH",
"435 603 OFFCURVE",
"505 527 OFFCURVE",
"505 437 CURVE SMOOTH",
"505 396 OFFCURVE",
"481 365 OFFCURVE",
"448 365 CURVE SMOOTH",
"413 365 OFFCURVE",
"388 390 OFFCURVE",
"388 422 CURVE SMOOTH",
"388 465 OFFCURVE",
"436 480 OFFCURVE",
"454 469 CURVE"
);
}
);
width = 600;
}
);
note = G;
unicode = 0047;
},
{
glyphname = H;
lastChange = "2018-05-29 13:06:12 +0000";
layers = (
{
layerId = "569BED38-A8F7-49CD-B9BC-3027C0528AF7";
paths = (
{
closed = 1;
nodes = (
"15 0 LINE",
"250 0 LINE",
"250 50 LINE",
"158 50 LINE",
"158 279 LINE",
"443 279 LINE",
"443 50 LINE",
"351 50 LINE",
"351 0 LINE",
"585 0 LINE",
"585 50 LINE",
"493 50 LINE",
"493 540 LINE",
"585 540 LINE",
"585 590 LINE",
"351 590 LINE",
"351 540 LINE",
"443 540 LINE",
"443 329 LINE",
"158 329 LINE",
"158 540 LINE",
"250 540 LINE",
"250 590 LINE",
"15 590 LINE",
"15 540 LINE",
"108 540 LINE",
"108 50 LINE",
"15 50 LINE"
);
}
);
width = 600;
}
);
note = H;
unicode = 0048;
},
{
glyphname = I;
lastChange = "2018-05-29 14:27:45 +0000";
layers = (
{
anchors = (
{
name = top;
position = "{302, 590}";
}
);
layerId = "569BED38-A8F7-49CD-B9BC-3027C0528AF7";
paths = (
{
closed = 1;
nodes = (
"326 540 LINE",
"499 540 LINE",
"499 590 LINE",
"101 590 LINE",
"101 540 LINE",
"276 540 LINE",
"276 50 LINE",
"101 50 LINE",
"101 0 LINE",
"499 0 LINE",
"499 50 LINE",
"326 50 LINE"
);
}
);
width = 600;
}
);
note = I;
unicode = 0049;
},
{
glyphname = Iacute;
lastChange = "2018-05-29 13:06:43 +0000";
layers = (
{
layerId = "569BED38-A8F7-49CD-B9BC-3027C0528AF7";
paths = (
{
closed = 1;
nodes = (
"133 665 LINE",
"141 632 LINE",
"456 693 LINE",
"444 740 LINE"
);
},
{
closed = 1;
nodes = (
"326 540 LINE",
"499 540 LINE",
"499 590 LINE",
"101 590 LINE",
"101 540 LINE",
"276 540 LINE",
"276 50 LINE",
"101 50 LINE",
"101 0 LINE",
"499 0 LINE",
"499 50 LINE",
"326 50 LINE"
);
}
);
width = 600;
}
);
note = Iacute;
unicode = 00CD;
},
{
glyphname = Icircumflex;
lastChange = "2018-05-29 13:06:46 +0000";
layers = (
{
layerId = "569BED38-A8F7-49CD-B9BC-3027C0528AF7";
paths = (
{
closed = 1;
nodes = (
"301 751 LINE",
"89 660 LINE",
"101 632 LINE",
"301 697 LINE",
"501 632 LINE",
"513 660 LINE"
);
},
{
closed = 1;
nodes = (
"326 540 LINE",
"499 540 LINE",
"499 590 LINE",
"101 590 LINE",
"101 540 LINE",
"276 540 LINE",
"276 50 LINE",
"101 50 LINE",
"101 0 LINE",
"499 0 LINE",
"499 50 LINE",
"326 50 LINE"
);
}
);
width = 600;
}
);
note = Icircumflex;
unicode = 00CE;
},
{
glyphname = Igrave;
lastChange = "2018-05-29 13:06:53 +0000";
layers = (
{
layerId = "569BED38-A8F7-49CD-B9BC-3027C0528AF7";
paths = (
{
closed = 1;
nodes = (
"474 670 LINE",
"163 745 LINE",
"151 698 LINE",
"466 637 LINE"
);
},
{
closed = 1;
nodes = (
"326 540 LINE",
"499 540 LINE",
"499 590 LINE",
"101 590 LINE",
"101 540 LINE",
"276 540 LINE",
"276 50 LINE",
"101 50 LINE",
"101 0 LINE",
"499 0 LINE",
"499 50 LINE",
"326 50 LINE"
);
}
);
width = 600;
}
);
note = Igrave;
unicode = 00CC;
},
{
glyphname = J;
lastChange = "2018-05-04 08:01:45 +0000";
layers = (
{
layerId = "569BED38-A8F7-49CD-B9BC-3027C0528AF7";
paths = (
{
closed = 1;
nodes = (
"397 236 LINE SMOOTH",
"397 46 OFFCURVE",
"295 37 OFFCURVE",
"241 37 CURVE SMOOTH",
"181 37 OFFCURVE",
"100 86 OFFCURVE",
"100 153 CURVE SMOOTH",
"100 180 OFFCURVE",
"108 199 OFFCURVE",
"116 207 CURVE",
"118 191 OFFCURVE",
"132 171 OFFCURVE",
"156 171 CURVE SMOOTH",
"183 171 OFFCURVE",
"202 191 OFFCURVE",
"202 220 CURVE SMOOTH",
"202 246 OFFCURVE",
"178 275 OFFCURVE",
"146 275 CURVE SMOOTH",
"89 275 OFFCURVE",
"50 221 OFFCURVE",
"50 153 CURVE SMOOTH",
"50 56 OFFCURVE",
"145 -13 OFFCURVE",
"242 -13 CURVE SMOOTH",
"321 -13 OFFCURVE",
"447 21 OFFCURVE",
"447 236 CURVE SMOOTH",
"447 540 LINE",
"584 540 LINE",
"584 590 LINE",
"172 590 LINE",
"172 540 LINE",
"397 540 LINE"
);
}
);
width = 600;
}
);
note = J;
unicode = 004A;
},
{
glyphname = K;
lastChange = "2018-05-29 13:07:17 +0000";
layers = (
{
layerId = "569BED38-A8F7-49CD-B9BC-3027C0528AF7";
paths = (
{
closed = 1;
nodes = (
"543 127 LINE",
"545 68 OFFCURVE",
"531 37 OFFCURVE",
"500 37 CURVE SMOOTH",
"478 37 OFFCURVE",
"457 63 OFFCURVE",
"425 122 CURVE SMOOTH",
"306 342 LINE",
"481 540 LINE",
"552 540 LINE",
"552 590 LINE",
"330 590 LINE",
"330 540 LINE",
"415 540 LINE",
"155 247 LINE",
"155 540 LINE",
"244 540 LINE",
"244 590 LINE",
"16 590 LINE",
"16 540 LINE",
"105 540 LINE",
"105 50 LINE",
"16 50 LINE",
"16 0 LINE",
"244 0 LINE",
"244 50 LINE",
"155 50 LINE",
"155 170 LINE",
"267 297 LINE",
"380 92 LINE SMOOTH",
"421 18 OFFCURVE",
"452 -13 OFFCURVE",
"498 -13 CURVE SMOOTH",
"550 -13 OFFCURVE",
"593 19 OFFCURVE",
"593 98 CURVE SMOOTH",
"593 126 LINE"
);
}
);
width = 600;
}
);
note = K;
unicode = 004B;
},
{
glyphname = L;
lastChange = "2018-05-29 13:07:36 +0000";
layers = (
{
layerId = "569BED38-A8F7-49CD-B9BC-3027C0528AF7";
paths = (
{
closed = 1;
nodes = (
"507 50 LINE",
"198 50 LINE",
"198 540 LINE",
"300 540 LINE",
"300 590 LINE",
"46 590 LINE",
"46 540 LINE",
"148 540 LINE",
"148 50 LINE",
"46 50 LINE",
"46 0 LINE",
"553 0 LINE",
"577 287 LINE",
"528 293 LINE"
);
}
);
width = 600;
}
);
note = L;
unicode = 004C;
},
{
glyphname = Lslash;
lastChange = "2018-05-29 13:07:59 +0000";
layers = (
{
layerId = "569BED38-A8F7-49CD-B9BC-3027C0528AF7";
paths = (
{
closed = 1;
nodes = (
"300 330 LINE",
"300 380 LINE",
"46 260 LINE",
"46 210 LINE",
"148 258 LINE"
);
},
{
closed = 1;
nodes = (
"507 50 LINE",
"198 50 LINE",
"198 540 LINE",
"300 540 LINE",
"300 590 LINE",
"46 590 LINE",
"46 540 LINE",
"148 540 LINE",
"148 50 LINE",
"46 50 LINE",
"46 0 LINE",
"553 0 LINE",
"577 287 LINE",
"528 293 LINE"
);
}
);
width = 600;
}
);
note = Lslash;
unicode = 0141;
},
{
glyphname = M;
lastChange = "2018-05-29 13:08:13 +0000";
layers = (
{
layerId = "569BED38-A8F7-49CD-B9BC-3027C0528AF7";
paths = (
{
closed = 1;
nodes = (
"24 540 LINE",
"85 540 LINE",
"85 50 LINE",
"25 50 LINE",
"25 0 LINE",
"187 0 LINE",
"187 50 LINE",
"135 50 LINE",
"135 502 LINE",
"278 50 LINE",
"326 50 LINE",
"469 502 LINE",
"469 50 LINE",
"417 50 LINE",
"417 0 LINE",
"579 0 LINE",
"579 50 LINE",
"519 50 LINE",
"519 540 LINE",
"580 540 LINE",
"580 590 LINE",
"445 590 LINE",
"302 138 LINE",
"159 590 LINE",
"24 590 LINE"
);
}
);
width = 600;
}
);
note = M;
unicode = 004D;
},
{
glyphname = N;
lastChange = "2018-05-04 08:01:45 +0000";
layers = (
{
layerId = "569BED38-A8F7-49CD-B9BC-3027C0528AF7";
paths = (
{
closed = 1;
nodes = (
"373 590 LINE",
"373 540 LINE",
"450 540 LINE",
"450 49 LINE",
"186 590 LINE",
"122 590 OFFCURVE",
"84 590 OFFCURVE",
"21 603 CURVE",
"10 555 LINE",
"41 547 OFFCURVE",
"73 543 OFFCURVE",
"103 541 CURVE",
"103 50 LINE",
"26 50 LINE",
"26 0 LINE",
"231 0 LINE",
"231 50 LINE",
"154 50 LINE",
"154 540 LINE",
"155 540 LINE",
"418 0 LINE",
"500 0 LINE",
"500 540 LINE",
"577 540 LINE",
"577 590 LINE"
);
}
);
width = 600;
}
);
note = N;
unicode = 004E;
},
{
glyphname = Eng;
lastChange = "2018-05-04 08:01:45 +0000";
layers = (
{
layerId = "569BED38-A8F7-49CD-B9BC-3027C0528AF7";
paths = (
{
closed = 1;
nodes = (
"27 0 LINE",
"231 0 LINE",
"231 50 LINE",
"154 50 LINE",
"154 540 LINE",
"448 15 LINE",
"448 -77 OFFCURVE",
"419 -123 OFFCURVE",
"373 -123 CURVE SMOOTH",
"353 -123 OFFCURVE",
"332 -118 OFFCURVE",
"321 -100 CURVE",
"344 -109 OFFCURVE",
"371 -90 OFFCURVE",
"371 -58 CURVE SMOOTH",
"371 -35 OFFCURVE",
"351 -12 OFFCURVE",
"323 -12 CURVE SMOOTH",
"295 -12 OFFCURVE",
"265 -37 OFFCURVE",
"265 -75 CURVE SMOOTH",
"265 -131 OFFCURVE",
"311 -173 OFFCURVE",
"373 -173 CURVE SMOOTH",
"466 -173 OFFCURVE",
"500 -88 OFFCURVE",
"500 42 CURVE SMOOTH",
"500 540 LINE",
"577 540 LINE",
"577 590 LINE",
"373 590 LINE",
"373 540 LINE",
"450 540 LINE",
"450 101 LINE",
"184 590 LINE",
"27 590 LINE",
"27 540 LINE",
"104 540 LINE",
"104 50 LINE",
"27 50 LINE"
);
}
);
width = 600;
}
);
note = Eng;
unicode = 014A;
},
{
glyphname = Ntilde;
lastChange = "2018-05-04 08:01:45 +0000";
layers = (
{
layerId = "569BED38-A8F7-49CD-B9BC-3027C0528AF7";
paths = (
{
closed = 1;
nodes = (
"251 718 OFFCURVE",
"265 702 OFFCURVE",
"283 686 CURVE",
"306 667 OFFCURVE",
"327 645 OFFCURVE",
"366 645 CURVE SMOOTH",
"405 645 OFFCURVE",
"437 666 OFFCURVE",
"487 726 CURVE",
"452 756 LINE",
"412 708 OFFCURVE",
"388 690 OFFCURVE",
"366 690 CURVE SMOOTH",
"344 690 OFFCURVE",
"330 706 OFFCURVE",
"312 722 CURVE",
"289 741 OFFCURVE",
"268 763 OFFCURVE",
"229 763 CURVE SMOOTH",
"190 763 OFFCURVE",
"158 742 OFFCURVE",
"108 682 CURVE",
"143 652 LINE",
"183 700 OFFCURVE",
"207 718 OFFCURVE",
"229 718 CURVE SMOOTH"
);
},
{
closed = 1;
nodes = (
"373 590 LINE",
"373 540 LINE",
"450 540 LINE",
"450 49 LINE",
"186 590 LINE",
"122 590 OFFCURVE",
"84 590 OFFCURVE",
"21 603 CURVE",
"10 555 LINE",
"41 547 OFFCURVE",
"73 543 OFFCURVE",
"103 541 CURVE",
"103 50 LINE",
"26 50 LINE",
"26 0 LINE",
"231 0 LINE",
"231 50 LINE",
"154 50 LINE",
"154 540 LINE",
"155 540 LINE",
"418 0 LINE",
"500 0 LINE",
"500 540 LINE",
"577 540 LINE",
"577 590 LINE"
);
}
);
width = 600;
}
);
note = Ntilde;
unicode = 00D1;
},
{
glyphname = O;
lastChange = "2018-05-29 14:28:01 +0000";
layers = (
{
anchors = (
{
name = top;
position = "{316, 603}";
}
);
layerId = "569BED38-A8F7-49CD-B9BC-3027C0528AF7";
paths = (
{
closed = 1;
nodes = (
"451 -13 OFFCURVE",
"573 104 OFFCURVE",
"573 290 CURVE SMOOTH",
"573 476 OFFCURVE",
"451 603 OFFCURVE",
"296 603 CURVE SMOOTH",
"150 603 OFFCURVE",
"28 476 OFFCURVE",
"28 290 CURVE SMOOTH",
"28 104 OFFCURVE",
"150 -13 OFFCURVE",
"296 -13 CURVE SMOOTH"
);
},
{
closed = 1;
nodes = (
"181 37 OFFCURVE",
"78 132 OFFCURVE",
"78 290 CURVE SMOOTH",
"78 448 OFFCURVE",
"181 554 OFFCURVE",
"296 553 CURVE SMOOTH",
"419 552 OFFCURVE",
"524 448 OFFCURVE",
"523 290 CURVE SMOOTH",
"522 132 OFFCURVE",
"419 37 OFFCURVE",
"296 37 CURVE SMOOTH"
);
}
);
width = 600;
}
);
note = O;
unicode = 004F;
},
{
glyphname = Oacute;
lastChange = "2018-05-04 08:01:45 +0000";
layers = (
{
layerId = "569BED38-A8F7-49CD-B9BC-3027C0528AF7";
paths = (
{
closed = 1;
nodes = (
"129 678 LINE",
"137 645 LINE",
"452 706 LINE",
"440 753 LINE"
);
},
{
closed = 1;
nodes = (
"451 -13 OFFCURVE",
"573 104 OFFCURVE",
"573 290 CURVE SMOOTH",
"573 476 OFFCURVE",
"451 603 OFFCURVE",
"296 603 CURVE SMOOTH",
"150 603 OFFCURVE",
"28 476 OFFCURVE",
"28 290 CURVE SMOOTH",
"28 104 OFFCURVE",
"150 -13 OFFCURVE",
"296 -13 CURVE SMOOTH"
);
},
{
closed = 1;
nodes = (
"181 37 OFFCURVE",
"78 132 OFFCURVE",
"78 290 CURVE SMOOTH",
"78 448 OFFCURVE",
"181 554 OFFCURVE",
"296 553 CURVE SMOOTH",
"419 552 OFFCURVE",
"524 448 OFFCURVE",
"523 290 CURVE SMOOTH",
"522 132 OFFCURVE",
"419 37 OFFCURVE",
"296 37 CURVE SMOOTH"
);
}
);
width = 600;
}
);
note = Oacute;
unicode = 00D3;
},
{
glyphname = Ocircumflex;
lastChange = "2018-05-04 08:01:45 +0000";
layers = (
{
layerId = "569BED38-A8F7-49CD-B9BC-3027C0528AF7";
paths = (
{
closed = 1;
nodes = (
"297 764 LINE",
"85 673 LINE",
"97 645 LINE",
"297 710 LINE",
"497 645 LINE",
"509 673 LINE"
);
},
{
closed = 1;
nodes = (
"451 -13 OFFCURVE",
"573 104 OFFCURVE",
"573 290 CURVE SMOOTH",
"573 476 OFFCURVE",
"451 603 OFFCURVE",
"296 603 CURVE SMOOTH",
"150 603 OFFCURVE",
"28 476 OFFCURVE",
"28 290 CURVE SMOOTH",
"28 104 OFFCURVE",
"150 -13 OFFCURVE",
"296 -13 CURVE SMOOTH"
);
},
{
closed = 1;
nodes = (
"181 37 OFFCURVE",
"78 132 OFFCURVE",
"78 290 CURVE SMOOTH",
"78 448 OFFCURVE",
"181 554 OFFCURVE",
"296 553 CURVE SMOOTH",
"419 552 OFFCURVE",
"524 448 OFFCURVE",
"523 290 CURVE SMOOTH",
"522 132 OFFCURVE",
"419 37 OFFCURVE",
"296 37 CURVE SMOOTH"
);
}
);
width = 600;
}
);
note = Ocircumflex;
unicode = 00D4;
},
{
glyphname = Ograve;
lastChange = "2018-05-04 08:01:45 +0000";
layers = (
{
layerId = "569BED38-A8F7-49CD-B9BC-3027C0528AF7";
paths = (
{
closed = 1;
nodes = (
"470 683 LINE",
"159 758 LINE",
"147 711 LINE",
"462 650 LINE"
);
},
{
closed = 1;
nodes = (
"451 -13 OFFCURVE",
"573 104 OFFCURVE",
"573 290 CURVE SMOOTH",
"573 476 OFFCURVE",
"451 603 OFFCURVE",
"296 603 CURVE SMOOTH",
"150 603 OFFCURVE",
"28 476 OFFCURVE",
"28 290 CURVE SMOOTH",
"28 104 OFFCURVE",
"150 -13 OFFCURVE",
"296 -13 CURVE SMOOTH"
);
},
{
closed = 1;
nodes = (
"181 37 OFFCURVE",
"78 132 OFFCURVE",
"78 290 CURVE SMOOTH",
"78 448 OFFCURVE",
"181 554 OFFCURVE",
"296 553 CURVE SMOOTH",
"419 552 OFFCURVE",
"524 448 OFFCURVE",
"523 290 CURVE SMOOTH",
"522 132 OFFCURVE",
"419 37 OFFCURVE",
"296 37 CURVE SMOOTH"
);
}
);
width = 600;
}
);
note = Ograve;
unicode = 00D2;
},
{
glyphname = Oslash;
lastChange = "2018-05-04 08:01:45 +0000";
layers = (
{
layerId = "569BED38-A8F7-49CD-B9BC-3027C0528AF7";
paths = (
{
closed = 1;
nodes = (
"527 573 LINE",
"489 603 LINE",
"452 551 LINE",
"407 584 OFFCURVE",
"353 603 OFFCURVE",
"297 603 CURVE SMOOTH",
"161 603 OFFCURVE",
"29 476 OFFCURVE",
"29 290 CURVE SMOOTH",
"29 198 OFFCURVE",
"61 123 OFFCURVE",
"110 71 CURVE",
"70 15 LINE",
"108 -15 LINE",
"146 38 LINE",
"191 5 OFFCURVE",
"243 -13 OFFCURVE",
"297 -13 CURVE SMOOTH",
"442 -13 OFFCURVE",
"574 104 OFFCURVE",
"574 290 CURVE SMOOTH",
"574 384 OFFCURVE",
"540 463 OFFCURVE",
"488 518 CURVE"
);
},
{
closed = 1;
nodes = (
"79 448 OFFCURVE",
"188 553 OFFCURVE",
"296 552 CURVE SMOOTH",
"341 552 OFFCURVE",
"385 536 OFFCURVE",
"422 509 CURVE",
"140 113 LINE",
"103 156 OFFCURVE",
"79 216 OFFCURVE",
"79 290 CURVE SMOOTH"
);
},
{
closed = 1;
nodes = (
"254 39 OFFCURVE",
"212 53 OFFCURVE",
"176 80 CURVE",
"458 476 LINE",
"498 430 OFFCURVE",
"523 367 OFFCURVE",
"523 290 CURVE SMOOTH",
"522 132 OFFCURVE",
"414 39 OFFCURVE",
"296 39 CURVE SMOOTH"
);
}
);
width = 600;
}
);
note = Oslash;
unicode = 00D8;
},
{
glyphname = Otilde;
lastChange = "2018-05-04 08:01:45 +0000";
layers = (
{
layerId = "569BED38-A8F7-49CD-B9BC-3027C0528AF7";
paths = (
{
closed = 1;
nodes = (
"288 754 OFFCURVE",
"267 776 OFFCURVE",
"228 776 CURVE SMOOTH",
"189 776 OFFCURVE",
"157 755 OFFCURVE",
"107 695 CURVE",
"142 665 LINE",
"182 713 OFFCURVE",
"206 731 OFFCURVE",
"228 731 CURVE SMOOTH",
"250 731 OFFCURVE",
"264 715 OFFCURVE",
"282 699 CURVE",
"305 680 OFFCURVE",
"326 658 OFFCURVE",
"365 658 CURVE SMOOTH",
"404 658 OFFCURVE",
"436 679 OFFCURVE",
"486 739 CURVE",
"451 769 LINE",
"411 721 OFFCURVE",
"387 703 OFFCURVE",
"365 703 CURVE SMOOTH",
"343 703 OFFCURVE",
"329 719 OFFCURVE",
"311 735 CURVE"
);
},
{
closed = 1;
nodes = (
"451 -13 OFFCURVE",
"573 104 OFFCURVE",
"573 290 CURVE SMOOTH",
"573 476 OFFCURVE",
"451 603 OFFCURVE",
"296 603 CURVE SMOOTH",
"150 603 OFFCURVE",
"28 476 OFFCURVE",
"28 290 CURVE SMOOTH",
"28 104 OFFCURVE",
"150 -13 OFFCURVE",
"296 -13 CURVE SMOOTH"
);
},
{
closed = 1;
nodes = (
"181 37 OFFCURVE",
"78 132 OFFCURVE",
"78 290 CURVE SMOOTH",
"78 448 OFFCURVE",
"181 554 OFFCURVE",
"296 553 CURVE SMOOTH",
"419 552 OFFCURVE",
"524 448 OFFCURVE",
"523 290 CURVE SMOOTH",
"522 132 OFFCURVE",
"419 37 OFFCURVE",
"296 37 CURVE SMOOTH"
);
}
);
width = 600;
}
);
note = Otilde;
unicode = 00D5;
},
{
glyphname = OE;
lastChange = "2018-05-04 08:01:45 +0000";
layers = (
{
layerId = "569BED38-A8F7-49CD-B9BC-3027C0528AF7";
paths = (
{
closed = 1;
nodes = (
"533 50 LINE",
"430 50 LINE",
"350 48 LINE",
"350 268 LINE",
"448 268 LINE",
"448 182 LINE",
"497 182 LINE",
"497 407 LINE",
"448 407 LINE",
"448 318 LINE",
"350 318 LINE",
"350 542 LINE",
"430 540 LINE",
"533 540 LINE",
"537 488 LINE",
"585 493 LINE",
"576 590 LINE",
"564 590 LINE",
"465 590 LINE SMOOTH",
"420 590 OFFCURVE",
"344 593 OFFCURVE",
"299 593 CURVE SMOOTH",
"144 593 OFFCURVE",
"22 478 OFFCURVE",
"22 292 CURVE SMOOTH",
"22 106 OFFCURVE",
"144 -4 OFFCURVE",
"299 -2 CURVE SMOOTH",
"463 0 LINE",
"576 0 LINE",
"585 97 LINE",
"537 102 LINE"
);
},
{
closed = 1;
nodes = (
"72 450 OFFCURVE",
"172 543 OFFCURVE",
"300 543 CURVE",
"300 48 LINE",
"172 48 OFFCURVE",
"74 134 OFFCURVE",
"73 292 CURVE SMOOTH"
);
}
);
width = 600;
}
);
note = OE;
unicode = 0152;
},
{
glyphname = P;
lastChange = "2018-05-29 13:08:42 +0000";
layers = (
{
layerId = "569BED38-A8F7-49CD-B9BC-3027C0528AF7";
paths = (
{
closed = 1;
nodes = (
"55 602 LINE",
"98 594 OFFCURVE",
"129 591 OFFCURVE",
"165 590 CURVE SMOOTH",
"208 589 OFFCURVE",
"282 594 OFFCURVE",
"319 594 CURVE SMOOTH",
"471 594 OFFCURVE",
"556 527 OFFCURVE",
"556 402 CURVE SMOOTH",
"556 277 OFFCURVE",
"471 212 OFFCURVE",
"319 212 CURVE SMOOTH",
"275 212 OFFCURVE",
"246 214 OFFCURVE",
"196 214 CURVE",
"196 50 LINE",
"297 50 LINE",
"297 0 LINE",
"44 0 LINE",
"44 50 LINE",
"146 50 LINE",
"146 541 LINE",
"113 543 OFFCURVE",
"78 547 OFFCURVE",
"43 554 CURVE"
);
},
{
closed = 1;
nodes = (
"196 265 LINE",
"246 265 OFFCURVE",
"275 262 OFFCURVE",
"319 262 CURVE SMOOTH",
"452 262 OFFCURVE",
"506 320 OFFCURVE",
"506 402 CURVE SMOOTH",
"506 484 OFFCURVE",
"452 544 OFFCURVE",
"319 544 CURVE SMOOTH",
"293 544 OFFCURVE",
"263 543 OFFCURVE",
"234 542 CURVE",
"222 541 OFFCURVE",
"209 541 OFFCURVE",
"196 540 CURVE"
);
}
);
width = 600;
}
);
note = P;
unicode = 0050;
},
{
glyphname = Thorn;
lastChange = "2018-05-04 08:01:45 +0000";
layers = (
{
layerId = "569BED38-A8F7-49CD-B9BC-3027C0528AF7";
paths = (
{
closed = 1;
nodes = (
"190 463 LINE",
"190 590 LINE",
"38 590 LINE",
"38 540 LINE",
"140 540 LINE",
"140 50 LINE",
"38 50 LINE",
"38 0 LINE",
"291 0 LINE",
"291 50 LINE",
"190 50 LINE",
"190 128 LINE",
"339 129 LINE SMOOTH",
"461 130 OFFCURVE",
"546 191 OFFCURVE",
"546 296 CURVE SMOOTH",
"546 401 OFFCURVE",
"461 463 OFFCURVE",
"339 463 CURVE SMOOTH"
);
},
{
closed = 1;
nodes = (
"190 178 LINE",
"190 414 LINE",
"339 414 LINE SMOOTH",
"442 414 OFFCURVE",
"496 358 OFFCURVE",
"496 296 CURVE SMOOTH",
"496 234 OFFCURVE",
"442 178 OFFCURVE",
"339 178 CURVE SMOOTH"
);
}
);
width = 600;
}
);
note = Thorn;
unicode = 00DE;
},
{
glyphname = Q;
lastChange = "2018-05-04 08:01:45 +0000";
layers = (
{
layerId = "569BED38-A8F7-49CD-B9BC-3027C0528AF7";
paths = (
{
closed = 1;
nodes = (
"13 109 OFFCURVE",
"128 -7 OFFCURVE",
"259 -13 CURVE",
"259 -34 LINE SMOOTH",
"259 -115 OFFCURVE",
"297 -166 OFFCURVE",
"361 -166 CURVE SMOOTH",
"418 -166 OFFCURVE",
"467 -124 OFFCURVE",
"467 -11 CURVE",
"419 -11 LINE",
"417 -99 OFFCURVE",
"394 -120 OFFCURVE",
"361 -120 CURVE SMOOTH",
"331 -120 OFFCURVE",
"305 -103 OFFCURVE",
"305 -35 CURVE SMOOTH",
"305 -11 LINE",
"434 7 OFFCURVE",
"538 119 OFFCURVE",
"538 290 CURVE SMOOTH",
"538 476 OFFCURVE",
"416 603 OFFCURVE",
"271 603 CURVE SMOOTH",
"135 603 OFFCURVE",
"13 476 OFFCURVE",
"13 290 CURVE SMOOTH"
);
},
{
closed = 1;
nodes = (
"63 448 OFFCURVE",
"162 553 OFFCURVE",
"270 552 CURVE SMOOTH",
"388 551 OFFCURVE",
"488 448 OFFCURVE",
"487 290 CURVE SMOOTH",
"486 148 OFFCURVE",
"407 58 OFFCURVE",
"305 42 CURVE",
"305 79 LINE SMOOTH",
"305 230 OFFCURVE",
"252 264 OFFCURVE",
"184 264 CURVE SMOOTH",
"137 264 OFFCURVE",
"97 242 OFFCURVE",
"78 191 CURVE",
"68 221 OFFCURVE",
"63 254 OFFCURVE",
"63 290 CURVE SMOOTH"
);
},
{
closed = 1;
nodes = (
"114 196 OFFCURVE",
"145 219 OFFCURVE",
"184 219 CURVE SMOOTH",
"226 219 OFFCURVE",
"261 204 OFFCURVE",
"259 79 CURVE SMOOTH",
"259 39 LINE",
"200 43 OFFCURVE",
"145 74 OFFCURVE",
"109 127 CURVE"
);
}
);
width = 600;
}
);
note = Q;
unicode = 0051;
},
{
glyphname = R;
lastChange = "2018-05-29 13:08:57 +0000";
layers = (
{
layerId = "569BED38-A8F7-49CD-B9BC-3027C0528AF7";
paths = (
{
closed = 1;
nodes = (
"417 592 OFFCURVE",
"508 549 OFFCURVE",
"508 429 CURVE SMOOTH",
"508 332 OFFCURVE",
"422 273 OFFCURVE",
"370 271 CURVE",
"401 255 OFFCURVE",
"411 220 OFFCURVE",
"419 191 CURVE SMOOTH",
"435 133 OFFCURVE",
"447 37 OFFCURVE",
"491 37 CURVE SMOOTH",
"526 37 OFFCURVE",
"536 62 OFFCURVE",
"534 126 CURVE",
"583 126 LINE",
"589 29 OFFCURVE",
"553 -13 OFFCURVE",
"491 -13 CURVE SMOOTH",
"423 -13 OFFCURVE",
"404 39 OFFCURVE",
"369 172 CURVE SMOOTH",
"358 214 OFFCURVE",
"342 254 OFFCURVE",
"259 254 CURVE SMOOTH",
"148 254 LINE",
"148 50 LINE",
"224 50 LINE",
"224 0 LINE",
"21 0 LINE",
"21 50 LINE",
"98 50 LINE",
"98 540 LINE",
"72 542 OFFCURVE",
"50 545 OFFCURVE",
"21 550 CURVE",
"28 598 LINE",
"60 592 OFFCURVE",
"84 589 OFFCURVE",
"113 589 CURVE SMOOTH",
"158 589 OFFCURVE",
"233 592 OFFCURVE",
"272 592 CURVE SMOOTH"
);
},
{
closed = 1;
nodes = (
"227 543 OFFCURVE",
"148 540 OFFCURVE",
"148 540 CURVE",
"148 304 LINE",
"291 304 LINE SMOOTH",
"394 304 OFFCURVE",
"458 357 OFFCURVE",
"458 429 CURVE SMOOTH",
"458 508 OFFCURVE",
"400 543 OFFCURVE",
"272 543 CURVE SMOOTH"
);
}
);
width = 600;
}
);
note = R;
unicode = 0052;
},
{
glyphname = S;
lastChange = "2018-05-04 08:01:45 +0000";
layers = (
{
layerId = "569BED38-A8F7-49CD-B9BC-3027C0528AF7";
paths = (
{
closed = 1;
nodes = (
"426 -13 OFFCURVE",
"535 45 OFFCURVE",
"535 159 CURVE SMOOTH",
"535 263 OFFCURVE",
"448 318 OFFCURVE",
"344 337 CURVE SMOOTH",
"272 350 LINE SMOOTH",
"181 366 OFFCURVE",
"135 401 OFFCURVE",
"135 460 CURVE SMOOTH",
"135 515 OFFCURVE",
"217 553 OFFCURVE",
"297 553 CURVE SMOOTH",
"397 553 OFFCURVE",
"438 532 OFFCURVE",
"465 496 CURVE",
"444 503 OFFCURVE",
"407 486 OFFCURVE",
"407 450 CURVE SMOOTH",
"407 418 OFFCURVE",
"430 397 OFFCURVE",
"465 397 CURVE SMOOTH",
"495 397 OFFCURVE",
"520 426 OFFCURVE",
"520 465 CURVE SMOOTH",
"520 540 OFFCURVE",
"439 603 OFFCURVE",
"297 603 CURVE SMOOTH",
"179 603 OFFCURVE",
"85 542 OFFCURVE",
"85 460 CURVE SMOOTH",
"85 386 OFFCURVE",
"117 328 OFFCURVE",
"262 301 CURVE SMOOTH",
"338 287 LINE SMOOTH",
"427 271 OFFCURVE",
"486 231 OFFCURVE",
"485 159 CURVE SMOOTH",
"484 73 OFFCURVE",
"392 36 OFFCURVE",
"309 37 CURVE SMOOTH",
"234 38 OFFCURVE",
"169 51 OFFCURVE",
"121 105 CURVE",
"142 98 OFFCURVE",
"178 115 OFFCURVE",
"178 151 CURVE SMOOTH",
"178 183 OFFCURVE",
"155 203 OFFCURVE",
"120 203 CURVE SMOOTH",
"90 203 OFFCURVE",
"65 175 OFFCURVE",
"65 136 CURVE SMOOTH",
"65 51 OFFCURVE",
"177 -13 OFFCURVE",
"309 -13 CURVE SMOOTH"
);
}
);
width = 600;
}
);
note = S;
unicode = 0053;
},
{
glyphname = Scaron;
lastChange = "2018-05-04 08:01:45 +0000";
layers = (
{
layerId = "569BED38-A8F7-49CD-B9BC-3027C0528AF7";
paths = (
{
closed = 1;
nodes = (
"298 631 LINE",
"510 722 LINE",
"498 750 LINE",
"298 685 LINE",
"98 750 LINE",
"86 722 LINE"
);
},
{
closed = 1;
nodes = (
"426 -13 OFFCURVE",
"535 45 OFFCURVE",
"535 159 CURVE SMOOTH",
"535 263 OFFCURVE",
"448 318 OFFCURVE",
"344 337 CURVE SMOOTH",
"272 350 LINE SMOOTH",
"181 366 OFFCURVE",
"135 401 OFFCURVE",
"135 460 CURVE SMOOTH",
"135 515 OFFCURVE",
"217 553 OFFCURVE",
"297 553 CURVE SMOOTH",
"397 553 OFFCURVE",
"438 532 OFFCURVE",
"465 496 CURVE",
"444 503 OFFCURVE",
"407 486 OFFCURVE",
"407 450 CURVE SMOOTH",
"407 418 OFFCURVE",
"430 397 OFFCURVE",
"465 397 CURVE SMOOTH",
"495 397 OFFCURVE",
"520 426 OFFCURVE",
"520 465 CURVE SMOOTH",
"520 540 OFFCURVE",
"439 603 OFFCURVE",
"297 603 CURVE SMOOTH",
"179 603 OFFCURVE",
"85 542 OFFCURVE",
"85 460 CURVE SMOOTH",
"85 386 OFFCURVE",
"117 328 OFFCURVE",
"262 301 CURVE SMOOTH",
"338 287 LINE SMOOTH",
"427 271 OFFCURVE",
"486 231 OFFCURVE",
"485 159 CURVE SMOOTH",
"484 73 OFFCURVE",
"392 36 OFFCURVE",
"309 37 CURVE SMOOTH",
"234 38 OFFCURVE",
"169 51 OFFCURVE",
"121 105 CURVE",
"142 98 OFFCURVE",
"178 115 OFFCURVE",
"178 151 CURVE SMOOTH",
"178 183 OFFCURVE",
"155 203 OFFCURVE",
"120 203 CURVE SMOOTH",
"90 203 OFFCURVE",
"65 175 OFFCURVE",
"65 136 CURVE SMOOTH",
"65 51 OFFCURVE",
"177 -13 OFFCURVE",
"309 -13 CURVE SMOOTH"
);
}
);
width = 600;
}
);
note = Scaron;
unicode = 0160;
},
{
glyphname = T;
lastChange = "2018-05-29 13:09:07 +0000";
layers = (
{
layerId = "569BED38-A8F7-49CD-B9BC-3027C0528AF7";
paths = (
{
closed = 1;
nodes = (
"36 303 LINE",
"60 590 LINE",
"547 590 LINE",
"571 303 LINE",
"522 298 LINE",
"503 540 LINE",
"328 540 LINE",
"328 50 LINE",
"444 50 LINE",
"444 0 LINE",
"163 0 LINE",
"163 50 LINE",
"278 50 LINE",
"278 540 LINE",
"104 540 LINE",
"85 298 LINE"
);
}
);
width = 600;
}
);
note = T;
unicode = 0054;
},
{
glyphname = U;
lastChange = "2018-09-06 08:46:12 +0000";
layers = (
{
anchors = (
{
name = top;
position = "{311, 590}";
}
);
layerId = "569BED38-A8F7-49CD-B9BC-3027C0528AF7";
paths = (
{
closed = 1;
nodes = (
"28 540 LINE",
"99 540 LINE",
"99 212 LINE SMOOTH",
"99 49 OFFCURVE",
"197 -13 OFFCURVE",
"300 -13 CURVE SMOOTH",
"403 -13 OFFCURVE",
"501 48 OFFCURVE",
"501 212 CURVE SMOOTH",
"501 540 LINE",
"572 540 LINE",
"572 590 LINE",
"357 590 LINE",
"357 540 LINE",
"451 540 LINE",
"451 222 LINE SMOOTH",
"451 82 OFFCURVE",
"380 37 OFFCURVE",
"300 37 CURVE SMOOTH",
"220 37 OFFCURVE",
"149 82 OFFCURVE",
"149 222 CURVE SMOOTH",
"149 540 LINE",
"243 540 LINE",
"243 590 LINE",
"28 590 LINE"
);
}
);
width = 600;
}
);
note = U;
unicode = 0055;
},
{
glyphname = Uacute;
lastChange = "2018-05-29 13:09:50 +0000";
layers = (
{
layerId = "569BED38-A8F7-49CD-B9BC-3027C0528AF7";
paths = (
{
closed = 1;
nodes = (
"131 665 LINE",
"139 632 LINE",
"454 693 LINE",
"442 740 LINE"
);
},
{
closed = 1;
nodes = (
"28 540 LINE",
"99 540 LINE",
"99 212 LINE SMOOTH",
"99 49 OFFCURVE",
"197 -13 OFFCURVE",
"300 -13 CURVE SMOOTH",
"403 -13 OFFCURVE",
"501 48 OFFCURVE",
"501 212 CURVE SMOOTH",
"501 540 LINE",
"572 540 LINE",
"572 590 LINE",
"357 590 LINE",
"357 540 LINE",
"451 540 LINE",
"451 222 LINE SMOOTH",
"451 82 OFFCURVE",
"380 37 OFFCURVE",
"300 37 CURVE SMOOTH",
"220 37 OFFCURVE",
"149 82 OFFCURVE",
"149 222 CURVE SMOOTH",
"149 540 LINE",
"243 540 LINE",
"243 590 LINE",
"28 590 LINE"
);
}
);
width = 600;
}
);
note = Uacute;
unicode = 00DA;
},
{
glyphname = Ucircumflex;
lastChange = "2018-05-29 13:09:53 +0000";
layers = (
{
layerId = "569BED38-A8F7-49CD-B9BC-3027C0528AF7";
paths = (
{
closed = 1;
nodes = (
"299 751 LINE",
"87 660 LINE",
"99 632 LINE",
"299 697 LINE",
"499 632 LINE",
"511 660 LINE"
);
},
{
closed = 1;
nodes = (
"28 540 LINE",
"99 540 LINE",
"99 212 LINE SMOOTH",
"99 49 OFFCURVE",
"197 -13 OFFCURVE",
"300 -13 CURVE SMOOTH",
"403 -13 OFFCURVE",
"501 48 OFFCURVE",
"501 212 CURVE SMOOTH",
"501 540 LINE",
"572 540 LINE",
"572 590 LINE",
"357 590 LINE",
"357 540 LINE",
"451 540 LINE",
"451 222 LINE SMOOTH",
"451 82 OFFCURVE",
"380 37 OFFCURVE",
"300 37 CURVE SMOOTH",
"220 37 OFFCURVE",
"149 82 OFFCURVE",
"149 222 CURVE SMOOTH",
"149 540 LINE",
"243 540 LINE",
"243 590 LINE",
"28 590 LINE"
);
}
);
width = 600;
}
);
note = Ucircumflex;
unicode = 00DB;
},
{
glyphname = Ugrave;
lastChange = "2018-05-29 13:10:00 +0000";
layers = (
{
layerId = "569BED38-A8F7-49CD-B9BC-3027C0528AF7";
paths = (
{
closed = 1;
nodes = (
"472 670 LINE",
"161 745 LINE",
"149 698 LINE",
"464 637 LINE"
);
},
{
closed = 1;
nodes = (
"28 540 LINE",
"99 540 LINE",
"99 212 LINE SMOOTH",
"99 49 OFFCURVE",
"197 -13 OFFCURVE",
"300 -13 CURVE SMOOTH",
"403 -13 OFFCURVE",
"501 48 OFFCURVE",
"501 212 CURVE SMOOTH",
"501 540 LINE",
"572 540 LINE",
"572 590 LINE",
"357 590 LINE",
"357 540 LINE",
"451 540 LINE",
"451 222 LINE SMOOTH",
"451 82 OFFCURVE",
"380 37 OFFCURVE",
"300 37 CURVE SMOOTH",
"220 37 OFFCURVE",
"149 82 OFFCURVE",
"149 222 CURVE SMOOTH",
"149 540 LINE",
"243 540 LINE",
"243 590 LINE",
"28 590 LINE"
);
}
);
width = 600;
}
);
note = Ugrave;
unicode = 00D9;
},
{
glyphname = V;
lastChange = "2018-09-06 08:46:17 +0000";
layers = (
{
layerId = "569BED38-A8F7-49CD-B9BC-3027C0528AF7";
paths = (
{
closed = 1;
nodes = (
"24 590 LINE",
"24 540 LINE",
"74 540 LINE",
"268 0 LINE",
"341 0 LINE",
"525 540 LINE",
"575 540 LINE",
"575 590 LINE",
"390 590 LINE",
"390 540 LINE",
"473 540 LINE",
"305 46 LINE",
"126 540 LINE",
"209 540 LINE",
"209 590 LINE"
);
}
);
width = 600;
}
);
note = V;
unicode = 0056;
},
{
glyphname = W;
lastChange = "2018-05-04 08:01:45 +0000";
layers = (
{
layerId = "569BED38-A8F7-49CD-B9BC-3027C0528AF7";
paths = (
{
closed = 1;
nodes = (
"585 590 LINE",
"431 590 LINE",
"431 540 LINE",
"504 540 LINE",
"430 55 LINE",
"329 540 LINE",
"271 540 LINE",
"170 55 LINE",
"96 540 LINE",
"169 540 LINE",
"169 590 LINE",
"15 590 LINE",
"15 540 LINE",
"45 540 LINE",
"127 0 LINE",
"210 0 LINE",
"300 434 LINE",
"390 0 LINE",
"473 0 LINE",
"555 540 LINE",
"585 540 LINE"
);
}
);
width = 600;
}
);
note = W;
unicode = 0057;
},
{
glyphname = X;
lastChange = "2018-05-29 13:10:14 +0000";
layers = (
{
layerId = "569BED38-A8F7-49CD-B9BC-3027C0528AF7";
paths = (
{
closed = 1;
nodes = (
"563 540 LINE",
"563 590 LINE",
"377 590 LINE",
"377 540 LINE",
"433 540 LINE",
"299 339 LINE",
"165 540 LINE",
"221 540 LINE",
"221 590 LINE",
"35 590 LINE",
"35 540 LINE",
"107 540 LINE",
"270 295 LINE",
"107 50 LINE",
"35 50 LINE",
"35 0 LINE",
"226 0 LINE",
"226 50 LINE",
"166 50 LINE",
"299 251 LINE",
"432 50 LINE",
"372 50 LINE",
"372 0 LINE",
"563 0 LINE",
"563 50 LINE",
"491 50 LINE",
"328 295 LINE",
"491 540 LINE"
);
}
);
width = 600;
}
);
note = X;
unicode = 0058;
},
{
glyphname = Y;
lastChange = "2018-05-29 14:28:36 +0000";
layers = (
{
anchors = (
{
name = top;
position = "{309, 590}";
}
);
layerId = "569BED38-A8F7-49CD-B9BC-3027C0528AF7";
paths = (
{
closed = 1;
nodes = (
"27 540 LINE",
"27 590 LINE",
"239 590 LINE",
"239 540 LINE",
"159 540 LINE",
"300 278 LINE",
"440 540 LINE",
"360 540 LINE",
"360 590 LINE",
"572 590 LINE",
"572 540 LINE",
"494 540 LINE",
"324 230 LINE",
"324 50 LINE",
"439 50 LINE",
"439 0 LINE",
"159 0 LINE",
"159 50 LINE",
"274 50 LINE",
"274 230 LINE",
"105 540 LINE"
);
}
);
width = 600;
}
);
note = Y;
unicode = 0059;
},
{
glyphname = Yacute;
lastChange = "2018-05-29 13:10:26 +0000";
layers = (
{
layerId = "569BED38-A8F7-49CD-B9BC-3027C0528AF7";
paths = (
{
closed = 1;
nodes = (
"132 665 LINE",
"140 632 LINE",
"455 693 LINE",
"443 740 LINE"
);
},
{
closed = 1;
nodes = (
"27 540 LINE",
"27 590 LINE",
"239 590 LINE",
"239 540 LINE",
"159 540 LINE",
"300 278 LINE",
"440 540 LINE",
"360 540 LINE",
"360 590 LINE",
"572 590 LINE",
"572 540 LINE",
"494 540 LINE",
"324 230 LINE",
"324 50 LINE",
"439 50 LINE",
"439 0 LINE",
"159 0 LINE",
"159 50 LINE",
"274 50 LINE",
"274 230 LINE",
"105 540 LINE"
);
}
);
width = 600;
}
);
note = Yacute;
unicode = 00DD;
},
{
glyphname = Z;
lastChange = "2018-05-29 13:10:37 +0000";
layers = (
{
layerId = "569BED38-A8F7-49CD-B9BC-3027C0528AF7";
paths = (
{
closed = 1;
nodes = (
"67 303 LINE",
"91 590 LINE",
"520 590 LINE",
"520 540 LINE",
"149 50 LINE",
"464 50 LINE",
"483 292 LINE",
"533 287 LINE",
"509 0 LINE",
"80 0 LINE",
"80 50 LINE",
"451 540 LINE",
"136 540 LINE",
"117 298 LINE"
);
}
);
width = 600;
}
);
note = Z;
unicode = 005A;
},
{
glyphname = Zcaron;
lastChange = "2018-05-29 13:10:42 +0000";
layers = (
{
layerId = "569BED38-A8F7-49CD-B9BC-3027C0528AF7";
paths = (
{
closed = 1;
nodes = (
"310 631 LINE",
"522 722 LINE",
"510 750 LINE",
"310 685 LINE",
"110 750 LINE",
"98 722 LINE"
);
},
{
closed = 1;
nodes = (
"67 303 LINE",
"91 590 LINE",
"520 590 LINE",
"520 540 LINE",
"149 50 LINE",
"464 50 LINE",
"483 292 LINE",
"533 287 LINE",
"509 0 LINE",
"80 0 LINE",
"80 50 LINE",
"451 540 LINE",
"136 540 LINE",
"117 298 LINE"
);
}
);
width = 600;
}
);
note = Zcaron;
unicode = 017D;
},
{
glyphname = M.Mme;
lastChange = "2018-05-04 08:01:45 +0000";
layers = (
{
layerId = "569BED38-A8F7-49CD-B9BC-3027C0528AF7";
paths = (
{
closed = 1;
nodes = (
"550 106 LINE",
"520 58 OFFCURVE",
"501 36 OFFCURVE",
"484 36 CURVE SMOOTH",
"469 36 OFFCURVE",
"467 50 OFFCURVE",
"470 72 CURVE SMOOTH",
"547 590 LINE",
"497 590 LINE",
"343 203 LINE",
"400 590 LINE",
"350 590 LINE",
"227 284 LINE SMOOTH",
"147 86 OFFCURVE",
"144 37 OFFCURVE",
"96 37 CURVE SMOOTH",
"53 37 OFFCURVE",
"44 74 OFFCURVE",
"48 101 CURVE",
"54 89 OFFCURVE",
"69 77 OFFCURVE",
"90 77 CURVE SMOOTH",
"112 77 OFFCURVE",
"140 94 OFFCURVE",
"141 126 CURVE SMOOTH",
"142 156 OFFCURVE",
"118 181 OFFCURVE",
"83 181 CURVE SMOOTH",
"38 181 OFFCURVE",
"-1 142 OFFCURVE",
"-1 84 CURVE SMOOTH",
"-1 32 OFFCURVE",
"40 -13 OFFCURVE",
"93 -13 CURVE SMOOTH",
"175 -13 OFFCURVE",
"183 40 OFFCURVE",
"275 273 CURVE SMOOTH",
"320 386 LINE",
"262 0 LINE",
"313 0 LINE",
"466 386 LINE",
"419 75 LINE SMOOTH",
"410 15 OFFCURVE",
"441 -13 OFFCURVE",
"479 -13 CURVE SMOOTH",
"523 -13 OFFCURVE",
"550 15 OFFCURVE",
"589 79 CURVE"
);
}
);
width = 600;
}
);
note = M.Mme;
},
{
glyphname = AE.duo;
lastChange = "2018-06-06 14:06:26 +0000";
layers = (
{
layerId = "569BED38-A8F7-49CD-B9BC-3027C0528AF7";
paths = (
{
closed = 1;
nodes = (
"266 0 LINE",
"266 50 LINE",
"185 50 LINE",
"253 268 LINE",
"461 268 LINE",
"461 50 LINE",
"397 50 LINE",
"397 0 LINE",
"847 0 LINE",
"867 217 LINE",
"818 222 LINE",
"804 50 LINE",
"511 50 LINE",
"511 268 LINE",
"669 268 LINE",
"669 162 LINE",
"719 162 LINE",
"719 427 LINE",
"669 427 LINE",
"669 318 LINE",
"511 318 LINE",
"511 540 LINE",
"804 540 LINE",
"818 368 LINE",
"867 373 LINE",
"847 590 LINE",
"377 590 LINE SMOOTH",
"313 590 OFFCURVE",
"275 590 OFFCURVE",
"212 603 CURVE",
"201 555 LINE",
"231.152 547.219 OFFCURVE",
"261.305 543.222 OFFCURVE",
"290.537 541.169 CURVE",
"135 50 LINE",
"54 50 LINE",
"54 0 LINE"
);
},
{
closed = 1;
nodes = (
"338 540 LINE",
"461 540 LINE",
"461 318 LINE",
"269 318 LINE"
);
}
);
width = 900;
}
);
},
{
glyphname = I.duo;
lastChange = "2018-05-04 08:01:45 +0000";
layers = (
{
layerId = "569BED38-A8F7-49CD-B9BC-3027C0528AF7";
paths = (
{
closed = 1;
nodes = (
"176 540 LINE",
"262 540 LINE",
"262 590 LINE",
"38 590 LINE",
"38 540 LINE",
"126 540 LINE",
"126 50 LINE",
"38 50 LINE",
"38 0 LINE",
"262 0 LINE",
"262 50 LINE",
"176 50 LINE"
);
}
);
width = 300;
}
);
note = I.duo;
},
{
glyphname = OE.duo;
lastChange = "2018-05-04 08:01:45 +0000";
layers = (
{
layerId = "569BED38-A8F7-49CD-B9BC-3027C0528AF7";
paths = (
{
closed = 1;
nodes = (
"815 50 LINE",
"522 50 LINE",
"522 268 LINE",
"680 268 LINE",
"680 162 LINE",
"730 162 LINE",
"730 427 LINE",
"680 427 LINE",
"680 318 LINE",
"522 318 LINE",
"522 540 LINE",
"815 540 LINE",
"829 368 LINE",
"878 373 LINE",
"858 590 LINE",
"472 590 LINE",
"472 465 LINE",
"447 548 OFFCURVE",
"366 603 OFFCURVE",
"265 603 CURVE SMOOTH",
"119 603 OFFCURVE",
"7 481 OFFCURVE",
"7 295 CURVE SMOOTH",
"7 109 OFFCURVE",
"119 -13 OFFCURVE",
"265 -13 CURVE SMOOTH",
"366 -13 OFFCURVE",
"447 35 OFFCURVE",
"472 115 CURVE",
"472 0 LINE",
"858 0 LINE",
"878 217 LINE",
"829 222 LINE"
);
},
{
closed = 1;
nodes = (
"150 36 OFFCURVE",
"57 137 OFFCURVE",
"57 295 CURVE SMOOTH",
"57 453 OFFCURVE",
"150 554 OFFCURVE",
"265 553 CURVE SMOOTH",
"388 552 OFFCURVE",
"472 448 OFFCURVE",
"472 290 CURVE SMOOTH",
"472 132 OFFCURVE",
"388 38 OFFCURVE",
"265 37 CURVE SMOOTH"
);
}
);
width = 900;
}
);
note = OE.duo;
},
{
glyphname = W.duo;
lastChange = "2018-05-04 08:01:45 +0000";
layers = (
{
layerId = "569BED38-A8F7-49CD-B9BC-3027C0528AF7";
paths = (
{
closed = 1;
nodes = (
"883 590 LINE",
"683 590 LINE",
"683 540 LINE",
"755 540 LINE",
"628 45 LINE",
"494 590 LINE",
"406 590 LINE",
"272 45 LINE",
"145 540 LINE",
"217 540 LINE",
"217 590 LINE",
"17 590 LINE",
"17 540 LINE",
"95 540 LINE",
"228 0 LINE",
"310 0 LINE",
"450 544 LINE",
"590 0 LINE",
"672 0 LINE",
"805 540 LINE",
"883 540 LINE"
);
}
);
width = 900;
}
);
note = W.duo;
},
{
glyphname = a;
lastChange = "2018-05-04 08:01:45 +0000";
layers = (
{
layerId = "569BED38-A8F7-49CD-B9BC-3027C0528AF7";
paths = (
{
closed = 1;
nodes = (
"526 128 LINE",
"495 55 OFFCURVE",
"486 37 OFFCURVE",
"469 37 CURVE SMOOTH",
"458 37 OFFCURVE",
"452 50 OFFCURVE",
"452 77 CURVE SMOOTH",
"452 313 LINE SMOOTH",
"452 411 OFFCURVE",
"335 442 OFFCURVE",
"255 442 CURVE SMOOTH",
"188 442 OFFCURVE",
"80 413 OFFCURVE",
"80 333 CURVE SMOOTH",
"80 296 OFFCURVE",
"99 271 OFFCURVE",
"132 271 CURVE SMOOTH",
"165 271 OFFCURVE",
"184 291 OFFCURVE",
"184 320 CURVE SMOOTH",
"184 346 OFFCURVE",
"154 367 OFFCURVE",
"136 358 CURVE",
"151 383 OFFCURVE",
"209 392 OFFCURVE",
"255 392 CURVE SMOOTH",
"303 392 OFFCURVE",
"402 380 OFFCURVE",
"402 313 CURVE SMOOTH",
"402 268 OFFCURVE",
"373 257 OFFCURVE",
"253 254 CURVE SMOOTH",
"145 251 OFFCURVE",
"42 213 OFFCURVE",
"43 115 CURVE SMOOTH",
"44 23 OFFCURVE",
"110 -13 OFFCURVE",
"187 -13 CURVE SMOOTH",
"271 -13 OFFCURVE",
"328 18 OFFCURVE",
"402 77 CURVE",
"400 13 OFFCURVE",
"433 -13 OFFCURVE",
"469 -13 CURVE SMOOTH",
"510 -13 OFFCURVE",
"532 11 OFFCURVE",
"570 107 CURVE"
);
},
{
closed = 1;
nodes = (
"402 139 LINE",
"321 69 OFFCURVE",
"265 37 OFFCURVE",
"188 37 CURVE SMOOTH",
"128 37 OFFCURVE",
"93 62 OFFCURVE",
"93 117 CURVE SMOOTH",
"93 177 OFFCURVE",
"165 203 OFFCURVE",
"252 204 CURVE SMOOTH",
"341 205 OFFCURVE",
"372 218 OFFCURVE",
"402 235 CURVE"
);
}
);
width = 600;
}
);
note = a;
unicode = 0061;
},
{
glyphname = aacute;
lastChange = "2018-05-04 08:01:45 +0000";
layers = (
{
layerId = "569BED38-A8F7-49CD-B9BC-3027C0528AF7";
paths = (
{
closed = 1;
nodes = (
"115 505 LINE",
"123 472 LINE",
"438 533 LINE",
"426 580 LINE"
);
},
{
closed = 1;
nodes = (
"526 128 LINE",
"495 55 OFFCURVE",
"486 37 OFFCURVE",
"469 37 CURVE SMOOTH",
"458 37 OFFCURVE",
"452 50 OFFCURVE",
"452 77 CURVE SMOOTH",
"452 313 LINE SMOOTH",
"452 411 OFFCURVE",
"335 442 OFFCURVE",
"255 442 CURVE SMOOTH",
"188 442 OFFCURVE",
"80 413 OFFCURVE",
"80 333 CURVE SMOOTH",
"80 296 OFFCURVE",
"99 271 OFFCURVE",
"132 271 CURVE SMOOTH",
"165 271 OFFCURVE",
"184 291 OFFCURVE",
"184 320 CURVE SMOOTH",
"184 346 OFFCURVE",
"154 367 OFFCURVE",
"136 358 CURVE",
"151 383 OFFCURVE",
"209 392 OFFCURVE",
"255 392 CURVE SMOOTH",
"303 392 OFFCURVE",
"402 380 OFFCURVE",
"402 313 CURVE SMOOTH",
"402 268 OFFCURVE",
"373 257 OFFCURVE",
"253 254 CURVE SMOOTH",
"145 251 OFFCURVE",
"42 213 OFFCURVE",
"43 115 CURVE SMOOTH",
"44 23 OFFCURVE",
"110 -13 OFFCURVE",
"187 -13 CURVE SMOOTH",
"271 -13 OFFCURVE",
"328 18 OFFCURVE",
"402 77 CURVE",
"400 13 OFFCURVE",
"433 -13 OFFCURVE",
"469 -13 CURVE SMOOTH",
"510 -13 OFFCURVE",
"532 11 OFFCURVE",
"570 107 CURVE"
);
},
{
closed = 1;
nodes = (
"402 139 LINE",
"321 69 OFFCURVE",
"265 37 OFFCURVE",
"188 37 CURVE SMOOTH",
"128 37 OFFCURVE",
"93 62 OFFCURVE",
"93 117 CURVE SMOOTH",
"93 177 OFFCURVE",
"165 203 OFFCURVE",
"252 204 CURVE SMOOTH",
"341 205 OFFCURVE",
"372 218 OFFCURVE",
"402 235 CURVE"
);
}
);
width = 600;
}
);
note = aacute;
unicode = 00E1;
},
{
glyphname = acircumflex;
lastChange = "2018-05-04 08:01:45 +0000";
layers = (
{
layerId = "569BED38-A8F7-49CD-B9BC-3027C0528AF7";
paths = (
{
closed = 1;
nodes = (
"283 591 LINE",
"71 500 LINE",
"83 472 LINE",
"283 537 LINE",
"483 472 LINE",
"495 500 LINE"
);
},
{
closed = 1;
nodes = (
"526 128 LINE",
"495 55 OFFCURVE",
"486 37 OFFCURVE",
"469 37 CURVE SMOOTH",
"458 37 OFFCURVE",
"452 50 OFFCURVE",
"452 77 CURVE SMOOTH",
"452 313 LINE SMOOTH",
"452 411 OFFCURVE",
"335 442 OFFCURVE",
"255 442 CURVE SMOOTH",
"188 442 OFFCURVE",
"80 413 OFFCURVE",
"80 333 CURVE SMOOTH",
"80 296 OFFCURVE",
"99 271 OFFCURVE",
"132 271 CURVE SMOOTH",
"165 271 OFFCURVE",
"184 291 OFFCURVE",
"184 320 CURVE SMOOTH",
"184 346 OFFCURVE",
"154 367 OFFCURVE",
"136 358 CURVE",
"151 383 OFFCURVE",
"209 392 OFFCURVE",
"255 392 CURVE SMOOTH",
"303 392 OFFCURVE",
"402 380 OFFCURVE",
"402 313 CURVE SMOOTH",
"402 268 OFFCURVE",
"373 257 OFFCURVE",
"253 254 CURVE SMOOTH",
"145 251 OFFCURVE",
"42 213 OFFCURVE",
"43 115 CURVE SMOOTH",
"44 23 OFFCURVE",
"110 -13 OFFCURVE",
"187 -13 CURVE SMOOTH",
"271 -13 OFFCURVE",
"328 18 OFFCURVE",
"402 77 CURVE",
"400 13 OFFCURVE",
"433 -13 OFFCURVE",
"469 -13 CURVE SMOOTH",
"510 -13 OFFCURVE",
"532 11 OFFCURVE",
"570 107 CURVE"
);
},
{
closed = 1;
nodes = (
"402 139 LINE",
"321 69 OFFCURVE",
"265 37 OFFCURVE",
"188 37 CURVE SMOOTH",
"128 37 OFFCURVE",
"93 62 OFFCURVE",
"93 117 CURVE SMOOTH",
"93 177 OFFCURVE",
"165 203 OFFCURVE",
"252 204 CURVE SMOOTH",
"341 205 OFFCURVE",
"372 218 OFFCURVE",
"402 235 CURVE"
);
}
);
width = 600;
}
);
note = acircumflex;
unicode = 00E2;
},
{
glyphname = agrave;
lastChange = "2018-05-04 08:01:45 +0000";
layers = (
{
layerId = "569BED38-A8F7-49CD-B9BC-3027C0528AF7";
paths = (
{
closed = 1;
nodes = (
"456 510 LINE",
"145 585 LINE",
"133 538 LINE",
"448 477 LINE"
);
},
{
closed = 1;
nodes = (
"526 128 LINE",
"495 55 OFFCURVE",
"486 37 OFFCURVE",
"469 37 CURVE SMOOTH",
"458 37 OFFCURVE",
"452 50 OFFCURVE",
"452 77 CURVE SMOOTH",
"452 313 LINE SMOOTH",
"452 411 OFFCURVE",
"335 442 OFFCURVE",
"255 442 CURVE SMOOTH",
"188 442 OFFCURVE",
"80 413 OFFCURVE",
"80 333 CURVE SMOOTH",
"80 296 OFFCURVE",
"99 271 OFFCURVE",
"132 271 CURVE SMOOTH",
"165 271 OFFCURVE",
"184 291 OFFCURVE",
"184 320 CURVE SMOOTH",
"184 346 OFFCURVE",
"154 367 OFFCURVE",
"136 358 CURVE",
"151 383 OFFCURVE",
"209 392 OFFCURVE",
"255 392 CURVE SMOOTH",
"303 392 OFFCURVE",
"402 380 OFFCURVE",
"402 313 CURVE SMOOTH",
"402 268 OFFCURVE",
"373 257 OFFCURVE",
"253 254 CURVE SMOOTH",
"145 251 OFFCURVE",
"42 213 OFFCURVE",
"43 115 CURVE SMOOTH",
"44 23 OFFCURVE",
"110 -13 OFFCURVE",
"187 -13 CURVE SMOOTH",
"271 -13 OFFCURVE",
"328 18 OFFCURVE",
"402 77 CURVE",
"400 13 OFFCURVE",
"433 -13 OFFCURVE",
"469 -13 CURVE SMOOTH",
"510 -13 OFFCURVE",
"532 11 OFFCURVE",
"570 107 CURVE"
);
},
{
closed = 1;
nodes = (
"402 139 LINE",
"321 69 OFFCURVE",
"265 37 OFFCURVE",
"188 37 CURVE SMOOTH",
"128 37 OFFCURVE",
"93 62 OFFCURVE",
"93 117 CURVE SMOOTH",
"93 177 OFFCURVE",
"165 203 OFFCURVE",
"252 204 CURVE SMOOTH",
"341 205 OFFCURVE",
"372 218 OFFCURVE",
"402 235 CURVE"
);
}
);
width = 600;
}
);
note = agrave;
unicode = 00E0;
},
{
glyphname = aring;
lastChange = "2018-05-04 08:01:45 +0000";
layers = (
{
layerId = "569BED38-A8F7-49CD-B9BC-3027C0528AF7";
paths = (
{
closed = 1;
nodes = (
"322 472 OFFCURVE",
"357 505 OFFCURVE",
"357 543 CURVE SMOOTH",
"357 582 OFFCURVE",
"322 613 OFFCURVE",
"283 613 CURVE SMOOTH",
"245 613 OFFCURVE",
"211 582 OFFCURVE",
"211 543 CURVE SMOOTH",
"211 505 OFFCURVE",
"245 472 OFFCURVE",
"283 472 CURVE SMOOTH"
);
},
{
closed = 1;
nodes = (
"263 504 OFFCURVE",
"244 520 OFFCURVE",
"244 542 CURVE SMOOTH",
"244 563 OFFCURVE",
"263 581 OFFCURVE",
"283 581 CURVE SMOOTH",
"305 581 OFFCURVE",
"324 563 OFFCURVE",
"324 542 CURVE SMOOTH",
"324 520 OFFCURVE",
"305 504 OFFCURVE",
"283 504 CURVE SMOOTH"
);
},
{
closed = 1;
nodes = (
"526 128 LINE",
"495 55 OFFCURVE",
"486 37 OFFCURVE",
"469 37 CURVE SMOOTH",
"458 37 OFFCURVE",
"452 50 OFFCURVE",
"452 77 CURVE SMOOTH",
"452 313 LINE SMOOTH",
"452 411 OFFCURVE",
"335 442 OFFCURVE",
"255 442 CURVE SMOOTH",
"188 442 OFFCURVE",
"80 413 OFFCURVE",
"80 333 CURVE SMOOTH",
"80 296 OFFCURVE",
"99 271 OFFCURVE",
"132 271 CURVE SMOOTH",
"165 271 OFFCURVE",
"184 291 OFFCURVE",
"184 320 CURVE SMOOTH",
"184 346 OFFCURVE",
"154 367 OFFCURVE",
"136 358 CURVE",
"151 383 OFFCURVE",
"209 392 OFFCURVE",
"255 392 CURVE SMOOTH",
"303 392 OFFCURVE",
"402 380 OFFCURVE",
"402 313 CURVE SMOOTH",
"402 268 OFFCURVE",
"373 257 OFFCURVE",
"253 254 CURVE SMOOTH",
"145 251 OFFCURVE",
"42 213 OFFCURVE",
"43 115 CURVE SMOOTH",
"44 23 OFFCURVE",
"110 -13 OFFCURVE",
"187 -13 CURVE SMOOTH",
"271 -13 OFFCURVE",
"328 18 OFFCURVE",
"402 77 CURVE",
"400 13 OFFCURVE",
"433 -13 OFFCURVE",
"469 -13 CURVE SMOOTH",
"510 -13 OFFCURVE",
"532 11 OFFCURVE",
"570 107 CURVE"
);
},
{
closed = 1;
nodes = (
"402 139 LINE",
"321 69 OFFCURVE",
"265 37 OFFCURVE",
"188 37 CURVE SMOOTH",
"128 37 OFFCURVE",
"93 62 OFFCURVE",
"93 117 CURVE SMOOTH",
"93 177 OFFCURVE",
"165 203 OFFCURVE",
"252 204 CURVE SMOOTH",
"341 205 OFFCURVE",
"372 218 OFFCURVE",
"402 235 CURVE"
);
}
);
width = 600;
}
);
note = aring;
unicode = 00E5;
},
{
glyphname = atilde;
lastChange = "2018-05-04 08:01:45 +0000";
layers = (
{
layerId = "569BED38-A8F7-49CD-B9BC-3027C0528AF7";
paths = (
{
closed = 1;
nodes = (
"274 581 OFFCURVE",
"253 603 OFFCURVE",
"214 603 CURVE SMOOTH",
"175 603 OFFCURVE",
"143 582 OFFCURVE",
"93 522 CURVE",
"128 492 LINE",
"168 540 OFFCURVE",
"192 558 OFFCURVE",
"214 558 CURVE SMOOTH",
"236 558 OFFCURVE",
"250 542 OFFCURVE",
"268 526 CURVE",
"291 507 OFFCURVE",
"312 485 OFFCURVE",
"351 485 CURVE SMOOTH",
"390 485 OFFCURVE",
"422 506 OFFCURVE",
"472 566 CURVE",
"437 596 LINE",
"397 548 OFFCURVE",
"373 530 OFFCURVE",
"351 530 CURVE SMOOTH",
"329 530 OFFCURVE",
"315 546 OFFCURVE",
"297 562 CURVE"
);
},
{
closed = 1;
nodes = (
"526 128 LINE",
"495 55 OFFCURVE",
"486 37 OFFCURVE",
"469 37 CURVE SMOOTH",
"458 37 OFFCURVE",
"452 50 OFFCURVE",
"452 77 CURVE SMOOTH",
"452 313 LINE SMOOTH",
"452 411 OFFCURVE",
"335 442 OFFCURVE",
"255 442 CURVE SMOOTH",
"188 442 OFFCURVE",
"80 413 OFFCURVE",
"80 333 CURVE SMOOTH",
"80 296 OFFCURVE",
"99 271 OFFCURVE",
"132 271 CURVE SMOOTH",
"165 271 OFFCURVE",
"184 291 OFFCURVE",
"184 320 CURVE SMOOTH",
"184 346 OFFCURVE",
"154 367 OFFCURVE",
"136 358 CURVE",
"151 383 OFFCURVE",
"209 392 OFFCURVE",
"255 392 CURVE SMOOTH",
"303 392 OFFCURVE",
"402 380 OFFCURVE",
"402 313 CURVE SMOOTH",
"402 268 OFFCURVE",
"373 257 OFFCURVE",
"253 254 CURVE SMOOTH",
"145 251 OFFCURVE",
"42 213 OFFCURVE",
"43 115 CURVE SMOOTH",
"44 23 OFFCURVE",
"110 -13 OFFCURVE",
"187 -13 CURVE SMOOTH",
"271 -13 OFFCURVE",
"328 18 OFFCURVE",
"402 77 CURVE",
"400 13 OFFCURVE",
"433 -13 OFFCURVE",
"469 -13 CURVE SMOOTH",
"510 -13 OFFCURVE",
"532 11 OFFCURVE",
"570 107 CURVE"
);
},
{
closed = 1;
nodes = (
"402 139 LINE",
"321 69 OFFCURVE",
"265 37 OFFCURVE",
"188 37 CURVE SMOOTH",
"128 37 OFFCURVE",
"93 62 OFFCURVE",
"93 117 CURVE SMOOTH",
"93 177 OFFCURVE",
"165 203 OFFCURVE",
"252 204 CURVE SMOOTH",
"341 205 OFFCURVE",
"372 218 OFFCURVE",
"402 235 CURVE"
);
}
);
width = 600;
}
);
note = atilde;
unicode = 00E3;
},
{
glyphname = ae;
lastChange = "2018-05-04 08:01:45 +0000";
layers = (
{
layerId = "569BED38-A8F7-49CD-B9BC-3027C0528AF7";
paths = (
{
closed = 1;
nodes = (
"552 162 LINE",
"499 64 OFFCURVE",
"467 37 OFFCURVE",
"411 37 CURVE SMOOTH",
"351 37 OFFCURVE",
"305 119 OFFCURVE",
"305 217 CURVE",
"586 217 LINE",
"586 237 LINE SMOOTH",
"586 373 OFFCURVE",
"515 442 OFFCURVE",
"427 442 CURVE SMOOTH",
"378 442 OFFCURVE",
"330 423 OFFCURVE",
"297 379 CURVE",
"269 425 OFFCURVE",
"207 443 OFFCURVE",
"148 443 CURVE SMOOTH",
"101 443 OFFCURVE",
"15 413 OFFCURVE",
"15 334 CURVE SMOOTH",
"15 298 OFFCURVE",
"32 281 OFFCURVE",
"58 281 CURVE SMOOTH",
"85 281 OFFCURVE",
"104 297 OFFCURVE",
"104 323 CURVE SMOOTH",
"104 349 OFFCURVE",
"80 368 OFFCURVE",
"62 359 CURVE",
"75 384 OFFCURVE",
"122 393 OFFCURVE",
"148 393 CURVE SMOOTH",
"196 393 OFFCURVE",
"263 381 OFFCURVE",
"263 312 CURVE SMOOTH",
"263 269 OFFCURVE",
"222 262 OFFCURVE",
"163 260 CURVE SMOOTH",
"90 258 OFFCURVE",
"6 214 OFFCURVE",
"6 117 CURVE SMOOTH",
"6 24 OFFCURVE",
"80 -12 OFFCURVE",
"127 -12 CURVE SMOOTH",
"186 -12 OFFCURVE",
"224 8 OFFCURVE",
"280 80 CURVE",
"305 24 OFFCURVE",
"348 -12 OFFCURVE",
"411 -12 CURVE SMOOTH",
"473 -12 OFFCURVE",
"527 9 OFFCURVE",
"597 139 CURVE"
);
},
{
closed = 1;
nodes = (
"489 392 OFFCURVE",
"526 342 OFFCURVE",
"533 267 CURVE",
"308 267 LINE",
"314 342 OFFCURVE",
"365 392 OFFCURVE",
"427 392 CURVE SMOOTH"
);
},
{
closed = 1;
nodes = (
"94 37 OFFCURVE",
"56 62 OFFCURVE",
"56 118 CURVE SMOOTH",
"56 178 OFFCURVE",
"110 209 OFFCURVE",
"162 211 CURVE SMOOTH",
"204 213 OFFCURVE",
"232 214 OFFCURVE",
"254 226 CURVE",
"254 217 LINE SMOOTH",
"254 185 OFFCURVE",
"257 155 OFFCURVE",
"264 128 CURVE",
"214 63 OFFCURVE",
"181 40 OFFCURVE",
"128 38 CURVE SMOOTH"
);
}
);
width = 600;
}
);
note = ae;
unicode = 00E6;
},
{
glyphname = b;
lastChange = "2018-05-04 08:01:45 +0000";
layers = (
{
layerId = "569BED38-A8F7-49CD-B9BC-3027C0528AF7";
paths = (
{
closed = 1;
nodes = (
"35 540 LINE",
"124 540 LINE",
"124 0 LINE",
"174 0 LINE",
"174 85 LINE",
"214 30 OFFCURVE",
"275 -13 OFFCURVE",
"343 -13 CURVE SMOOTH",
"466 -13 OFFCURVE",
"549 89 OFFCURVE",
"549 216 CURVE SMOOTH",
"549 343 OFFCURVE",
"466 443 OFFCURVE",
"343 443 CURVE SMOOTH",
"274 443 OFFCURVE",
"213 400 OFFCURVE",
"174 345 CURVE",
"174 590 LINE",
"35 590 LINE"
);
},
{
closed = 1;
nodes = (
"174 272 LINE",
"229 337 OFFCURVE",
"274 393 OFFCURVE",
"343 393 CURVE SMOOTH",
"438 393 OFFCURVE",
"499 315 OFFCURVE",
"499 216 CURVE SMOOTH",
"500 114 OFFCURVE",
"437 37 OFFCURVE",
"343 37 CURVE SMOOTH",
"277 37 OFFCURVE",
"230 93 OFFCURVE",
"174 158 CURVE"
);
}
);
width = 600;
}
);
note = b;
unicode = 0062;
},
{
glyphname = c;
lastChange = "2018-05-04 08:01:45 +0000";
layers = (
{
layerId = "569BED38-A8F7-49CD-B9BC-3027C0528AF7";
paths = (
{
closed = 1;
nodes = (
"553 203 LINE",
"545 66 OFFCURVE",
"427 -12 OFFCURVE",
"304 -12 CURVE SMOOTH",
"146 -12 OFFCURVE",
"59 97 OFFCURVE",
"59 219 CURVE SMOOTH",
"59 354 OFFCURVE",
"145 443 OFFCURVE",
"282 443 CURVE SMOOTH",
"374 443 OFFCURVE",
"471 393 OFFCURVE",
"471 305 CURVE SMOOTH",
"471 260 OFFCURVE",
"444 233 OFFCURVE",
"410 233 CURVE SMOOTH",
"377 233 OFFCURVE",
"353 255 OFFCURVE",
"353 288 CURVE SMOOTH",
"353 318 OFFCURVE",
"390 340 OFFCURVE",
"420 325 CURVE",
"407 365 OFFCURVE",
"360 393 OFFCURVE",
"282 393 CURVE SMOOTH",
"175 393 OFFCURVE",
"109 327 OFFCURVE",
"109 219 CURVE SMOOTH",
"109 117 OFFCURVE",
"188 38 OFFCURVE",
"304 38 CURVE SMOOTH",
"410 38 OFFCURVE",
"497 107 OFFCURVE",
"505 208 CURVE"
);
}
);
width = 600;
}
);
note = c;
unicode = 0063;
},
{
glyphname = ccedilla;
lastChange = "2018-05-04 08:01:45 +0000";
layers = (
{
layerId = "569BED38-A8F7-49CD-B9BC-3027C0528AF7";
paths = (
{
closed = 1;
nodes = (
"505 208 LINE",
"497 107 OFFCURVE",
"410 38 OFFCURVE",
"304 38 CURVE SMOOTH",
"188 38 OFFCURVE",
"109 117 OFFCURVE",
"109 219 CURVE SMOOTH",
"109 327 OFFCURVE",
"175 393 OFFCURVE",
"282 393 CURVE SMOOTH",
"360 393 OFFCURVE",
"407 365 OFFCURVE",
"420 325 CURVE",
"390 340 OFFCURVE",
"353 318 OFFCURVE",
"353 288 CURVE SMOOTH",
"353 255 OFFCURVE",
"377 233 OFFCURVE",
"410 233 CURVE SMOOTH",
"444 233 OFFCURVE",
"471 260 OFFCURVE",
"471 305 CURVE SMOOTH",
"471 393 OFFCURVE",
"374 443 OFFCURVE",
"282 443 CURVE SMOOTH",
"145 443 OFFCURVE",
"59 354 OFFCURVE",
"59 219 CURVE SMOOTH",
"59 105 OFFCURVE",
"135 3 OFFCURVE",
"273 -11 CURVE",
"273 -71 LINE",
"288 -72 LINE SMOOTH",
"325 -74 OFFCURVE",
"350 -82 OFFCURVE",
"350 -102 CURVE SMOOTH",
"350 -128 OFFCURVE",
"292 -136 OFFCURVE",
"257 -136 CURVE SMOOTH",
"218 -136 OFFCURVE",
"182 -116 OFFCURVE",
"177 -96 CURVE",
"199 -104 OFFCURVE",
"207 -85 OFFCURVE",
"207 -70 CURVE SMOOTH",
"207 -54 OFFCURVE",
"190 -44 OFFCURVE",
"176 -44 CURVE SMOOTH",
"154 -44 OFFCURVE",
"138 -60 OFFCURVE",
"138 -92 CURVE SMOOTH",
"138 -128 OFFCURVE",
"175 -173 OFFCURVE",
"257 -173 CURVE SMOOTH",
"315 -173 OFFCURVE",
"393 -156 OFFCURVE",
"393 -102 CURVE SMOOTH",
"393 -60 OFFCURVE",
"357 -44 OFFCURVE",
"315 -37 CURVE",
"315 -12 LINE",
"434 -7 OFFCURVE",
"545 70 OFFCURVE",
"553 203 CURVE"
);
}
);
width = 600;
}
);
note = ccedilla;
unicode = 00E7;
},
{
glyphname = d;
lastChange = "2018-05-04 08:01:45 +0000";
layers = (
{
layerId = "569BED38-A8F7-49CD-B9BC-3027C0528AF7";
paths = (
{
closed = 1;
nodes = (
"413 345 LINE",
"374 400 OFFCURVE",
"313 443 OFFCURVE",
"244 443 CURVE SMOOTH",
"121 443 OFFCURVE",
"38 343 OFFCURVE",
"38 216 CURVE SMOOTH",
"38 89 OFFCURVE",
"121 -13 OFFCURVE",
"244 -13 CURVE SMOOTH",
"312 -13 OFFCURVE",
"373 30 OFFCURVE",
"413 85 CURVE",
"411 11 OFFCURVE",
"443 -13 OFFCURVE",
"479 -13 CURVE SMOOTH",
"520 -13 OFFCURVE",
"542 11 OFFCURVE",
"580 107 CURVE",
"536 128 LINE",
"505 55 OFFCURVE",
"496 37 OFFCURVE",
"479 37 CURVE SMOOTH",
"468 37 OFFCURVE",
"462 50 OFFCURVE",
"462 77 CURVE SMOOTH",
"463 590 LINE",
"310 590 LINE",
"310 540 LINE",
"413 540 LINE"
);
},
{
closed = 1;
nodes = (
"413 158 LINE",
"357 93 OFFCURVE",
"310 37 OFFCURVE",
"244 37 CURVE SMOOTH",
"150 37 OFFCURVE",
"87 114 OFFCURVE",
"88 216 CURVE SMOOTH",
"89 315 OFFCURVE",
"149 393 OFFCURVE",
"244 393 CURVE SMOOTH",
"313 393 OFFCURVE",
"358 337 OFFCURVE",
"413 272 CURVE"
);
}
);
width = 600;
}
);
note = d;
unicode = 0064;
},
{
glyphname = eth;
lastChange = "2018-05-04 08:01:45 +0000";
layers = (
{
layerId = "569BED38-A8F7-49CD-B9BC-3027C0528AF7";
paths = (
{
closed = 1;
nodes = (
"527 128 LINE",
"496 55 OFFCURVE",
"487 37 OFFCURVE",
"471 37 CURVE SMOOTH",
"459 37 OFFCURVE",
"453 45 OFFCURVE",
"453 72 CURVE SMOOTH",
"453 453 LINE",
"518 453 LINE",
"518 503 LINE",
"453 503 LINE",
"453 590 LINE",
"300 590 LINE",
"300 540 LINE",
"403 540 LINE",
"403 503 LINE",
"241 503 LINE",
"241 453 LINE",
"403 453 LINE",
"403 317 LINE",
"364 365 OFFCURVE",
"310 413 OFFCURVE",
"241 413 CURVE SMOOTH",
"118 413 OFFCURVE",
"37 293 OFFCURVE",
"37 185 CURVE SMOOTH",
"37 79 OFFCURVE",
"118 -13 OFFCURVE",
"241 -13 CURVE SMOOTH",
"309 -13 OFFCURVE",
"364 37 OFFCURVE",
"403 85 CURVE",
"403 79 LINE",
"400 5 OFFCURVE",
"432 -13 OFFCURVE",
"468 -13 CURVE SMOOTH",
"507 -13 OFFCURVE",
"532 16 OFFCURVE",
"543 41 CURVE SMOOTH",
"573 109 LINE"
);
},
{
closed = 1;
nodes = (
"145 38 OFFCURVE",
"87 107 OFFCURVE",
"88 185 CURVE SMOOTH",
"88 186 LINE",
"88 187 LINE SMOOTH",
"88 265 OFFCURVE",
"146 362 OFFCURVE",
"242 363 CURVE SMOOTH",
"310 364 OFFCURVE",
"348 306 OFFCURVE",
"403 248 CURVE",
"403 154 LINE",
"348 96 OFFCURVE",
"310 36 OFFCURVE",
"242 37 CURVE SMOOTH"
);
}
);
width = 600;
}
);
note = eth;
unicode = 00F0;
},
{
glyphname = e;
lastChange = "2018-05-04 08:01:45 +0000";
layers = (
{
layerId = "569BED38-A8F7-49CD-B9BC-3027C0528AF7";
paths = (
{
closed = 1;
nodes = (
"66 88 OFFCURVE",
"171 -12 OFFCURVE",
"289 -12 CURVE SMOOTH",
"379 -12 OFFCURVE",
"466 25 OFFCURVE",
"529 137 CURVE",
"486 162 LINE",
"444 78 OFFCURVE",
"373 38 OFFCURVE",
"289 38 CURVE SMOOTH",
"192 38 OFFCURVE",
"116 119 OFFCURVE",
"116 217 CURVE",
"501 217 LINE",
"501 237 LINE SMOOTH",
"501 363 OFFCURVE",
"398 442 OFFCURVE",
"289 442 CURVE SMOOTH",
"167 442 OFFCURVE",
"66 377 OFFCURVE",
"66 223 CURVE SMOOTH"
);
},
{
closed = 1;
nodes = (
"119 267 LINE",
"129 342 OFFCURVE",
"188 392 OFFCURVE",
"289 392 CURVE SMOOTH",
"372 392 OFFCURVE",
"441 332 OFFCURVE",
"448 267 CURVE"
);
}
);
width = 600;
}
);
note = e;
unicode = 0065;
},
{
glyphname = eacute;
lastChange = "2018-05-29 14:19:30 +0000";
layers = (
{
guideLines = (
{
position = "{542, 580}";
}
);
layerId = "569BED38-A8F7-49CD-B9BC-3027C0528AF7";
paths = (
{
closed = 1;
nodes = (
"122 505 LINE",
"130 472 LINE",
"445 533 LINE",
"433 580 LINE"
);
},
{
closed = 1;
nodes = (
"66 88 OFFCURVE",
"171 -12 OFFCURVE",
"289 -12 CURVE SMOOTH",
"379 -12 OFFCURVE",
"466 25 OFFCURVE",
"529 137 CURVE",
"486 162 LINE",
"444 78 OFFCURVE",
"373 38 OFFCURVE",
"289 38 CURVE SMOOTH",
"192 38 OFFCURVE",
"116 119 OFFCURVE",
"116 217 CURVE",
"501 217 LINE",
"501 237 LINE SMOOTH",
"501 363 OFFCURVE",
"398 442 OFFCURVE",
"289 442 CURVE SMOOTH",
"167 442 OFFCURVE",
"66 377 OFFCURVE",
"66 223 CURVE SMOOTH"
);
},
{
closed = 1;
nodes = (
"119 267 LINE",
"129 342 OFFCURVE",
"188 392 OFFCURVE",
"289 392 CURVE SMOOTH",
"372 392 OFFCURVE",
"441 332 OFFCURVE",
"448 267 CURVE"
);
}
);
width = 600;
}
);
note = eacute;
unicode = 00E9;
},
{
glyphname = ecircumflex;
lastChange = "2018-05-04 08:01:45 +0000";
layers = (
{
layerId = "569BED38-A8F7-49CD-B9BC-3027C0528AF7";
paths = (
{
closed = 1;
nodes = (
"288 591 LINE",
"76 500 LINE",
"88 472 LINE",
"288 537 LINE",
"488 472 LINE",
"500 500 LINE"
);
},
{
closed = 1;
nodes = (
"66 88 OFFCURVE",
"171 -12 OFFCURVE",
"289 -12 CURVE SMOOTH",
"379 -12 OFFCURVE",
"466 25 OFFCURVE",
"529 137 CURVE",
"486 162 LINE",
"444 78 OFFCURVE",
"373 38 OFFCURVE",
"289 38 CURVE SMOOTH",
"192 38 OFFCURVE",
"116 119 OFFCURVE",
"116 217 CURVE",
"501 217 LINE",
"501 237 LINE SMOOTH",
"501 363 OFFCURVE",
"398 442 OFFCURVE",
"289 442 CURVE SMOOTH",
"167 442 OFFCURVE",
"66 377 OFFCURVE",
"66 223 CURVE SMOOTH"
);
},
{
closed = 1;
nodes = (
"119 267 LINE",
"129 342 OFFCURVE",
"188 392 OFFCURVE",
"289 392 CURVE SMOOTH",
"372 392 OFFCURVE",
"441 332 OFFCURVE",
"448 267 CURVE"
);
}
);
width = 600;
}
);
note = ecircumflex;
unicode = 00EA;
},
{
glyphname = egrave;
lastChange = "2018-05-04 08:01:45 +0000";
layers = (
{
layerId = "569BED38-A8F7-49CD-B9BC-3027C0528AF7";
paths = (
{
closed = 1;
nodes = (
"467 505 LINE",
"156 580 LINE",
"144 533 LINE",
"459 472 LINE"
);
},
{
closed = 1;
nodes = (
"66 88 OFFCURVE",
"171 -12 OFFCURVE",
"289 -12 CURVE SMOOTH",
"379 -12 OFFCURVE",
"466 25 OFFCURVE",
"529 137 CURVE",
"486 162 LINE",
"444 78 OFFCURVE",
"373 38 OFFCURVE",
"289 38 CURVE SMOOTH",
"192 38 OFFCURVE",
"116 119 OFFCURVE",
"116 217 CURVE",
"501 217 LINE",
"501 237 LINE SMOOTH",
"501 363 OFFCURVE",
"398 442 OFFCURVE",
"289 442 CURVE SMOOTH",
"167 442 OFFCURVE",
"66 377 OFFCURVE",
"66 223 CURVE SMOOTH"
);
},
{
closed = 1;
nodes = (
"119 267 LINE",
"129 342 OFFCURVE",
"188 392 OFFCURVE",
"289 392 CURVE SMOOTH",
"372 392 OFFCURVE",
"441 332 OFFCURVE",
"448 267 CURVE"
);
}
);
width = 600;
}
);
note = egrave;
unicode = 00E8;
},
{
glyphname = f;
lastChange = "2018-05-04 08:01:45 +0000";
layers = (
{
layerId = "569BED38-A8F7-49CD-B9BC-3027C0528AF7";
paths = (
{
closed = 1;
nodes = (
"56 0 LINE",
"393 0 LINE",
"393 50 LINE",
"240 50 LINE",
"240 380 LINE",
"393 380 LINE",
"393 430 LINE",
"242 430 LINE",
"251 507 OFFCURVE",
"300 553 OFFCURVE",
"384 553 CURVE SMOOTH",
"472 553 OFFCURVE",
"512 505 OFFCURVE",
"513 479 CURVE",
"497 490 OFFCURVE",
"447 480 OFFCURVE",
"447 437 CURVE SMOOTH",
"447 404 OFFCURVE",
"471 384 OFFCURVE",
"504 384 CURVE SMOOTH",
"539 384 OFFCURVE",
"564 413 OFFCURVE",
"564 458 CURVE SMOOTH",
"564 541 OFFCURVE",
"488 603 OFFCURVE",
"385 603 CURVE SMOOTH",
"281 603 OFFCURVE",
"203 537 OFFCURVE",
"192 430 CURVE",
"56 430 LINE",
"56 380 LINE",
"190 380 LINE",
"190 50 LINE",
"56 50 LINE"
);
}
);
width = 600;
}
);
note = f;
unicode = 0066;
},
{
glyphname = g;
lastChange = "2018-05-04 08:01:45 +0000";
layers = (
{
layerId = "569BED38-A8F7-49CD-B9BC-3027C0528AF7";
paths = (
{
closed = 1;
nodes = (
"26 -119 OFFCURVE",
"79 -173 OFFCURVE",
"185 -173 CURVE SMOOTH",
"381 -173 LINE SMOOTH",
"504 -173 OFFCURVE",
"554 -117 OFFCURVE",
"554 -50 CURVE SMOOTH",
"554 20 OFFCURVE",
"514 61 OFFCURVE",
"424 61 CURVE SMOOTH",
"209 61 LINE SMOOTH",
"115 61 OFFCURVE",
"78 91 OFFCURVE",
"78 126 CURVE SMOOTH",
"78 165 OFFCURVE",
"115 177 OFFCURVE",
"160 195 CURVE",
"188 150 OFFCURVE",
"238 122 OFFCURVE",
"298 122 CURVE SMOOTH",
"389 122 OFFCURVE",
"452 197 OFFCURVE",
"452 276 CURVE SMOOTH",
"452 311 OFFCURVE",
"445 341 OFFCURVE",
"432 366 CURVE",
"462 387 OFFCURVE",
"498 394 OFFCURVE",
"521 367 CURVE",
"494 367 OFFCURVE",
"482 346 OFFCURVE",
"482 320 CURVE SMOOTH",
"482 292 OFFCURVE",
"510 277 OFFCURVE",
"534 277 CURVE SMOOTH",
"562 277 OFFCURVE",
"585 304 OFFCURVE",
"585 334 CURVE SMOOTH",
"585 391 OFFCURVE",
"538 433 OFFCURVE",
"481 433 CURVE SMOOTH",
"454 433 OFFCURVE",
"425 421 OFFCURVE",
"402 406 CURVE",
"376 430 OFFCURVE",
"340 443 OFFCURVE",
"298 443 CURVE SMOOTH",
"200 443 OFFCURVE",
"135 364 OFFCURVE",
"135 284 CURVE SMOOTH",
"135 269 OFFCURVE",
"137 254 OFFCURVE",
"140 240 CURVE",
"76 218 OFFCURVE",
"28 182 OFFCURVE",
"28 127 CURVE SMOOTH",
"28 86 OFFCURVE",
"47 53 OFFCURVE",
"84 37 CURVE",
"45 19 OFFCURVE",
"26 -14 OFFCURVE",
"26 -54 CURVE SMOOTH"
);
},
{
closed = 1;
nodes = (
"186 339 OFFCURVE",
"222 393 OFFCURVE",
"297 393 CURVE SMOOTH",
"364 393 OFFCURVE",
"401 338 OFFCURVE",
"401 281 CURVE SMOOTH",
"401 224 OFFCURVE",
"364 172 OFFCURVE",
"297 172 CURVE SMOOTH",
"228 172 OFFCURVE",
"186 224 OFFCURVE",
"186 281 CURVE SMOOTH"
);
},
{
closed = 1;
nodes = (
"79 -17 OFFCURVE",
"103 12 OFFCURVE",
"161 12 CURVE SMOOTH",
"425 11 LINE SMOOTH",
"483 11 OFFCURVE",
"503 -15 OFFCURVE",
"503 -54 CURVE SMOOTH",
"503 -89 OFFCURVE",
"475 -123 OFFCURVE",
"370 -123 CURVE SMOOTH",
"193 -123 LINE SMOOTH",
"106 -123 OFFCURVE",
"79 -92 OFFCURVE",
"79 -51 CURVE SMOOTH"
);
}
);
width = 600;
}
);
note = g;
unicode = 0067;
},
{
glyphname = h;
lastChange = "2018-05-04 08:01:45 +0000";
layers = (
{
layerId = "569BED38-A8F7-49CD-B9BC-3027C0528AF7";
paths = (
{
closed = 1;
nodes = (
"383 393 OFFCURVE",
"430 368 OFFCURVE",
"430 306 CURVE SMOOTH",
"430 50 LINE",
"349 50 LINE",
"349 0 LINE",
"560 0 LINE",
"560 50 LINE",
"480 50 LINE",
"480 306 LINE SMOOTH",
"480 410 OFFCURVE",
"401 443 OFFCURVE",
"347 443 CURVE SMOOTH",
"282 443 OFFCURVE",
"243 400 OFFCURVE",
"172 323 CURVE",
"172 590 LINE",
"41 590 LINE",
"41 540 LINE",
"122 540 LINE",
"122 50 LINE",
"41 50 LINE",
"41 0 LINE",
"253 0 LINE",
"253 50 LINE",
"172 50 LINE",
"172 252 LINE",
"262 343 OFFCURVE",
"295 393 OFFCURVE",
"347 393 CURVE SMOOTH"
);
}
);
width = 600;
}
);
note = h;
unicode = 0068;
},
{
glyphname = i;
lastChange = "2018-05-04 08:01:45 +0000";
layers = (
{
layerId = "569BED38-A8F7-49CD-B9BC-3027C0528AF7";
paths = (
{
closed = 1;
nodes = (
"333 472 OFFCURVE",
"356 496 OFFCURVE",
"356 523 CURVE SMOOTH",
"356 550 OFFCURVE",
"333 574 OFFCURVE",
"305 574 CURVE SMOOTH",
"277 574 OFFCURVE",
"253 550 OFFCURVE",
"253 523 CURVE SMOOTH",
"253 496 OFFCURVE",
"277 472 OFFCURVE",
"305 472 CURVE SMOOTH"
);
},
{
closed = 1;
nodes = (
"338 50 LINE",
"338 430 LINE",
"97 430 LINE",
"97 380 LINE",
"288 380 LINE",
"288 50 LINE",
"97 50 LINE",
"97 0 LINE",
"516 0 LINE",
"516 50 LINE"
);
}
);
width = 600;
}
);
note = i;
unicode = 0069;
},
{
glyphname = dotlessi;
lastChange = "2018-05-29 14:21:44 +0000";
layers = (
{
layerId = "569BED38-A8F7-49CD-B9BC-3027C0528AF7";
paths = (
{
closed = 1;
nodes = (
"331 50 LINE",
"331 430 LINE",
"281 430 LINE",
"281 50 LINE",
"90 50 LINE",
"90 0 LINE",
"509 0 LINE",
"509 50 LINE"
);
}
);
width = 600;
}
);
note = dotlessi;
unicode = 0131;
},
{
glyphname = iacute;
lastChange = "2018-05-04 08:01:45 +0000";
layers = (
{
layerId = "569BED38-A8F7-49CD-B9BC-3027C0528AF7";
paths = (
{
closed = 1;
nodes = (
"138 505 LINE",
"146 472 LINE",
"461 533 LINE",
"449 580 LINE"
);
},
{
closed = 1;
nodes = (
"331 50 LINE",
"331 430 LINE",
"281 430 LINE",
"281 50 LINE",
"90 50 LINE",
"90 0 LINE",
"509 0 LINE",
"509 50 LINE"
);
}
);
width = 600;
}
);
note = iacute;
unicode = 00ED;
},
{
glyphname = icircumflex;
lastChange = "2018-05-04 08:01:45 +0000";
layers = (
{
layerId = "569BED38-A8F7-49CD-B9BC-3027C0528AF7";
paths = (
{
closed = 1;
nodes = (
"306 591 LINE",
"94 500 LINE",
"106 472 LINE",
"306 537 LINE",
"506 472 LINE",
"518 500 LINE"
);
},
{
closed = 1;
nodes = (
"331 50 LINE",
"331 430 LINE",
"281 430 LINE",
"281 50 LINE",
"90 50 LINE",
"90 0 LINE",
"509 0 LINE",
"509 50 LINE"
);
}
);
width = 600;
}
);
note = icircumflex;
unicode = 00EE;
},
{
glyphname = idieresis;
lastChange = "2018-05-29 14:21:45 +0000";
layers = (
{
layerId = "569BED38-A8F7-49CD-B9BC-3027C0528AF7";
paths = (
{
closed = 1;
nodes = (
"246 478 OFFCURVE",
"269 502 OFFCURVE",
"269 529 CURVE SMOOTH",
"269 556 OFFCURVE",
"246 580 OFFCURVE",
"218 580 CURVE SMOOTH",
"190 580 OFFCURVE",
"166 556 OFFCURVE",
"166 529 CURVE SMOOTH",
"166 502 OFFCURVE",
"190 478 OFFCURVE",
"218 478 CURVE SMOOTH"
);
},
{
closed = 1;
nodes = (
"428 478 OFFCURVE",
"451 502 OFFCURVE",
"451 529 CURVE SMOOTH",
"451 556 OFFCURVE",
"428 580 OFFCURVE",
"400 580 CURVE SMOOTH",
"372 580 OFFCURVE",
"348 556 OFFCURVE",
"348 529 CURVE SMOOTH",
"348 502 OFFCURVE",
"372 478 OFFCURVE",
"400 478 CURVE SMOOTH"
);
},
{
closed = 1;
nodes = (
"331 50 LINE",
"331 430 LINE",
"281 430 LINE",
"281 50 LINE",
"90 50 LINE",
"90 0 LINE",
"509 0 LINE",
"509 50 LINE"
);
}
);
width = 600;
}
);
unicode = 00EF;
},
{
glyphname = igrave;
lastChange = "2018-05-04 08:01:45 +0000";
layers = (
{
layerId = "569BED38-A8F7-49CD-B9BC-3027C0528AF7";
paths = (
{
closed = 1;
nodes = (
"479 510 LINE",
"168 585 LINE",
"156 538 LINE",
"471 477 LINE"
);
},
{
closed = 1;
nodes = (
"331 50 LINE",
"331 430 LINE",
"281 430 LINE",
"281 50 LINE",
"90 50 LINE",
"90 0 LINE",
"509 0 LINE",
"509 50 LINE"
);
}
);
width = 600;
}
);
note = igrave;
unicode = 00EC;
},
{
glyphname = j;
lastChange = "2018-05-04 08:01:45 +0000";
layers = (
{
layerId = "569BED38-A8F7-49CD-B9BC-3027C0528AF7";
paths = (
{
closed = 1;
nodes = (
"370 547 OFFCURVE",
"394 571 OFFCURVE",
"423 571 CURVE SMOOTH",
"451 571 OFFCURVE",
"475 547 OFFCURVE",
"475 519 CURVE SMOOTH",
"475 491 OFFCURVE",
"451 467 OFFCURVE",
"423 467 CURVE SMOOTH",
"394 467 OFFCURVE",
"370 491 OFFCURVE",
"370 519 CURVE SMOOTH"
);
},
{
closed = 1;
nodes = (
"99 -114 OFFCURVE",
"183 -173 OFFCURVE",
"268 -173 CURVE SMOOTH",
"386 -173 OFFCURVE",
"449 -94 OFFCURVE",
"449 37 CURVE SMOOTH",
"449 430 LINE",
"156 430 LINE",
"156 380 LINE",
"399 380 LINE",
"399 47 LINE SMOOTH",
"399 -54 OFFCURVE",
"368 -123 OFFCURVE",
"268 -123 CURVE SMOOTH",
"207 -123 OFFCURVE",
"150 -81 OFFCURVE",
"149 -26 CURVE",
"157 -37 OFFCURVE",
"168 -46 OFFCURVE",
"192 -46 CURVE SMOOTH",
"216 -46 OFFCURVE",
"238 -23 OFFCURVE",
"238 8 CURVE SMOOTH",
"238 46 OFFCURVE",
"209 67 OFFCURVE",
"173 67 CURVE SMOOTH",
"130 67 OFFCURVE",
"102 25 OFFCURVE",
"101 -17 CURVE SMOOTH"
);
}
);
width = 600;
}
);
note = j;
unicode = 006A;
},
{
glyphname = k;
lastChange = "2018-05-04 08:01:45 +0000";
layers = (
{
layerId = "569BED38-A8F7-49CD-B9BC-3027C0528AF7";
paths = (
{
closed = 1;
nodes = (
"524 64 LINE",
"513 51 OFFCURVE",
"502 38 OFFCURVE",
"485 38 CURVE SMOOTH",
"464 38 OFFCURVE",
"446 50 OFFCURVE",
"411 102 CURVE SMOOTH",
"301 265 LINE",
"441 380 LINE",
"550 380 LINE",
"550 430 LINE",
"300 430 LINE",
"300 380 LINE",
"364 380 LINE",
"174 225 LINE",
"174 590 LINE",
"10 590 LINE",
"10 540 LINE",
"124 540 LINE",
"124 50 LINE",
"10 50 LINE",
"10 0 LINE",
"270 0 LINE",
"270 50 LINE",
"174 50 LINE",
"174 160 LINE",
"263 233 LINE",
"379 60 LINE SMOOTH",
"404 22 OFFCURVE",
"434 -12 OFFCURVE",
"485 -12 CURVE SMOOTH",
"515 -12 OFFCURVE",
"544 8 OFFCURVE",
"562 32 CURVE"
);
}
);
width = 600;
}
);
note = k;
unicode = 006B;
},
{
glyphname = l;
lastChange = "2018-05-04 08:01:45 +0000";
layers = (
{
layerId = "569BED38-A8F7-49CD-B9BC-3027C0528AF7";
paths = (
{
closed = 1;
nodes = (
"329 50 LINE",
"329 590 LINE",
"94 590 LINE",
"94 540 LINE",
"279 540 LINE",
"279 50 LINE",
"94 50 LINE",
"94 0 LINE",
"513 0 LINE",
"513 50 LINE"
);
}
);
width = 600;
}
);
note = l;
unicode = 006C;
},
{
glyphname = lslash;
lastChange = "2018-05-04 08:01:45 +0000";
layers = (
{
layerId = "569BED38-A8F7-49CD-B9BC-3027C0528AF7";
paths = (
{
closed = 1;
nodes = (
"94 0 LINE",
"513 0 LINE",
"513 50 LINE",
"329 50 LINE",
"329 280 LINE",
"513 368 LINE",
"513 422 LINE",
"329 334 LINE",
"329 590 LINE",
"94 590 LINE",
"94 540 LINE",
"278 540 LINE",
"278 310 LINE",
"94 222 LINE",
"94 168 LINE",
"278 256 LINE",
"278 50 LINE",
"94 50 LINE"
);
}
);
width = 600;
}
);
note = lslash;
unicode = 0142;
},
{
glyphname = m;
lastChange = "2018-05-04 08:01:45 +0000";
layers = (
{
layerId = "569BED38-A8F7-49CD-B9BC-3027C0528AF7";
paths = (
{
closed = 1;
nodes = (
"3 363 LINE",
"46 339 LINE",
"76 381 OFFCURVE",
"84 393 OFFCURVE",
"95 393 CURVE SMOOTH",
"107 393 OFFCURVE",
"113 385 OFFCURVE",
"113 358 CURVE SMOOTH",
"113 50 LINE",
"43 50 LINE",
"43 0 LINE",
"233 0 LINE",
"233 50 LINE",
"163 50 LINE",
"163 308 LINE",
"215 373 OFFCURVE",
"236 391 OFFCURVE",
"261 391 CURVE SMOOTH",
"287 391 OFFCURVE",
"302 380 OFFCURVE",
"302 333 CURVE SMOOTH",
"302 0 LINE",
"352 0 LINE",
"352 296 LINE",
"410 370 OFFCURVE",
"431 391 OFFCURVE",
"459 391 CURVE SMOOTH",
"485 391 OFFCURVE",
"500 380 OFFCURVE",
"500 333 CURVE SMOOTH",
"500 50 LINE",
"430 50 LINE",
"430 0 LINE",
"591 0 LINE",
"591 50 LINE",
"550 50 LINE",
"550 338 LINE SMOOTH",
"550 420 OFFCURVE",
"512 443 OFFCURVE",
"467 443 CURVE SMOOTH",
"434 443 OFFCURVE",
"406 430 OFFCURVE",
"350 366 CURVE",
"343 425 OFFCURVE",
"308 443 OFFCURVE",
"269 443 CURVE SMOOTH",
"238 443 OFFCURVE",
"211 432 OFFCURVE",
"162 377 CURVE",
"158 429 OFFCURVE",
"129 443 OFFCURVE",
"98 443 CURVE SMOOTH",
"66 443 OFFCURVE",
"44 423 OFFCURVE",
"14 379 CURVE SMOOTH"
);
}
);
width = 600;
}
);
note = m;
unicode = 006D;
},
{
glyphname = n;
lastChange = "2018-05-04 08:01:45 +0000";
layers = (
{
layerId = "569BED38-A8F7-49CD-B9BC-3027C0528AF7";
paths = (
{
closed = 1;
nodes = (
"37 363 LINE",
"80 339 LINE",
"110 381 OFFCURVE",
"118 393 OFFCURVE",
"129 393 CURVE SMOOTH",
"141 393 OFFCURVE",
"147 385 OFFCURVE",
"147 358 CURVE SMOOTH",
"147 50 LINE",
"70 50 LINE",
"70 0 LINE",
"274 0 LINE",
"274 50 LINE",
"197 50 LINE",
"197 252 LINE",
"285 343 OFFCURVE",
"310 393 OFFCURVE",
"365 393 CURVE SMOOTH",
"400 393 OFFCURVE",
"445 378 OFFCURVE",
"445 316 CURVE SMOOTH",
"445 50 LINE",
"368 50 LINE",
"368 0 LINE",
"571 0 LINE",
"571 50 LINE",
"495 50 LINE",
"495 316 LINE SMOOTH",
"495 418 OFFCURVE",
"416 443 OFFCURVE",
"365 443 CURVE SMOOTH",
"303 443 OFFCURVE",
"266 398 OFFCURVE",
"197 321 CURVE",
"197 351 LINE",
"200 425 OFFCURVE",
"165 443 OFFCURVE",
"129 443 CURVE SMOOTH",
"97 443 OFFCURVE",
"78 423 OFFCURVE",
"48 379 CURVE SMOOTH"
);
}
);
width = 600;
}
);
note = n;
unicode = 006E;
},
{
glyphname = eng;
lastChange = "2018-05-04 08:01:45 +0000";
layers = (
{
layerId = "569BED38-A8F7-49CD-B9BC-3027C0528AF7";
paths = (
{
closed = 1;
nodes = (
"445 26 LINE SMOOTH",
"445 -77 OFFCURVE",
"428 -122 OFFCURVE",
"380 -129 CURVE",
"389 -121 OFFCURVE",
"393 -110 OFFCURVE",
"393 -97 CURVE SMOOTH",
"393 -84 OFFCURVE",
"380 -60 OFFCURVE",
"354 -60 CURVE SMOOTH",
"323 -60 OFFCURVE",
"304 -77 OFFCURVE",
"304 -114 CURVE SMOOTH",
"304 -147 OFFCURVE",
"333 -173 OFFCURVE",
"372 -173 CURVE SMOOTH",
"468 -173 OFFCURVE",
"495 -107 OFFCURVE",
"495 26 CURVE SMOOTH",
"495 316 LINE SMOOTH",
"495 408 OFFCURVE",
"423 443 OFFCURVE",
"365 443 CURVE SMOOTH",
"300 443 OFFCURVE",
"266 402 OFFCURVE",
"197 321 CURVE",
"197 351 LINE",
"200 425 OFFCURVE",
"165 443 OFFCURVE",
"129 443 CURVE SMOOTH",
"97 443 OFFCURVE",
"78 423 OFFCURVE",
"48 379 CURVE SMOOTH",
"37 363 LINE",
"80 339 LINE",
"110 381 OFFCURVE",
"118 393 OFFCURVE",
"129 393 CURVE SMOOTH",
"141 393 OFFCURVE",
"147 385 OFFCURVE",
"147 358 CURVE SMOOTH",
"147 50 LINE",
"70 50 LINE",
"70 0 LINE",
"274 0 LINE",
"274 50 LINE",
"197 50 LINE",
"197 252 LINE",
"285 347 OFFCURVE",
"314 394 OFFCURVE",
"365 394 CURVE SMOOTH",
"414 394 OFFCURVE",
"445 368 OFFCURVE",
"445 316 CURVE SMOOTH"
);
}
);
width = 600;
}
);
note = eng;
unicode = 014B;
},
{
glyphname = ntilde;
lastChange = "2018-05-04 08:01:45 +0000";
layers = (
{
layerId = "569BED38-A8F7-49CD-B9BC-3027C0528AF7";
paths = (
{
closed = 1;
nodes = (
"305 581 OFFCURVE",
"284 603 OFFCURVE",
"245 603 CURVE SMOOTH",
"206 603 OFFCURVE",
"174 582 OFFCURVE",
"124 522 CURVE",
"159 492 LINE",
"199 540 OFFCURVE",
"223 558 OFFCURVE",
"245 558 CURVE SMOOTH",
"267 558 OFFCURVE",
"281 542 OFFCURVE",
"299 526 CURVE",
"322 507 OFFCURVE",
"343 485 OFFCURVE",
"382 485 CURVE SMOOTH",
"421 485 OFFCURVE",
"453 506 OFFCURVE",
"503 566 CURVE",
"468 596 LINE",
"428 548 OFFCURVE",
"404 530 OFFCURVE",
"382 530 CURVE SMOOTH",
"360 530 OFFCURVE",
"346 546 OFFCURVE",
"328 562 CURVE"
);
},
{
closed = 1;
nodes = (
"37 363 LINE",
"80 339 LINE",
"110 381 OFFCURVE",
"118 393 OFFCURVE",
"129 393 CURVE SMOOTH",
"141 393 OFFCURVE",
"147 385 OFFCURVE",
"147 358 CURVE SMOOTH",
"147 50 LINE",
"70 50 LINE",
"70 0 LINE",
"274 0 LINE",
"274 50 LINE",
"197 50 LINE",
"197 252 LINE",
"285 343 OFFCURVE",
"310 393 OFFCURVE",
"365 393 CURVE SMOOTH",
"400 393 OFFCURVE",
"445 378 OFFCURVE",
"445 316 CURVE SMOOTH",
"445 50 LINE",
"368 50 LINE",
"368 0 LINE",
"571 0 LINE",
"571 50 LINE",
"495 50 LINE",
"495 316 LINE SMOOTH",
"495 418 OFFCURVE",
"416 443 OFFCURVE",
"365 443 CURVE SMOOTH",
"303 443 OFFCURVE",
"266 398 OFFCURVE",
"197 321 CURVE",
"197 351 LINE",
"200 425 OFFCURVE",
"165 443 OFFCURVE",
"129 443 CURVE SMOOTH",
"97 443 OFFCURVE",
"78 423 OFFCURVE",
"48 379 CURVE SMOOTH"
);
}
);
width = 600;
}
);
note = ntilde;
unicode = 00F1;
},
{
glyphname = o;
lastChange = "2018-05-04 08:01:45 +0000";
layers = (
{
layerId = "569BED38-A8F7-49CD-B9BC-3027C0528AF7";
paths = (
{
closed = 1;
nodes = (
"430 -13 OFFCURVE",
"537 89 OFFCURVE",
"537 215 CURVE SMOOTH",
"537 341 OFFCURVE",
"430 443 OFFCURVE",
"300 443 CURVE SMOOTH",
"169 443 OFFCURVE",
"62 341 OFFCURVE",
"62 215 CURVE SMOOTH",
"62 89 OFFCURVE",
"169 -13 OFFCURVE",
"300 -13 CURVE SMOOTH"
);
},
{
closed = 1;
nodes = (
"196 37 OFFCURVE",
"112 117 OFFCURVE",
"112 215 CURVE SMOOTH",
"112 313 OFFCURVE",
"196 394 OFFCURVE",
"299 393 CURVE SMOOTH",
"402 392 OFFCURVE",
"488 313 OFFCURVE",
"487 215 CURVE SMOOTH",
"486 117 OFFCURVE",
"402 37 OFFCURVE",
"299 37 CURVE SMOOTH"
);
}
);
width = 600;
}
);
note = o;
unicode = 006F;
},
{
glyphname = oacute;
lastChange = "2018-05-04 08:01:45 +0000";
layers = (
{
layerId = "569BED38-A8F7-49CD-B9BC-3027C0528AF7";
paths = (
{
closed = 1;
nodes = (
"122 505 LINE",
"130 472 LINE",
"445 533 LINE",
"433 580 LINE"
);
},
{
closed = 1;
nodes = (
"430 -13 OFFCURVE",
"537 89 OFFCURVE",
"537 215 CURVE SMOOTH",
"537 341 OFFCURVE",
"430 443 OFFCURVE",
"300 443 CURVE SMOOTH",
"169 443 OFFCURVE",
"62 341 OFFCURVE",
"62 215 CURVE SMOOTH",
"62 89 OFFCURVE",
"169 -13 OFFCURVE",
"300 -13 CURVE SMOOTH"
);
},
{
closed = 1;
nodes = (
"196 37 OFFCURVE",
"112 117 OFFCURVE",
"112 215 CURVE SMOOTH",
"112 313 OFFCURVE",
"196 394 OFFCURVE",
"299 393 CURVE SMOOTH",
"402 392 OFFCURVE",
"488 313 OFFCURVE",
"487 215 CURVE SMOOTH",
"486 117 OFFCURVE",
"402 37 OFFCURVE",
"299 37 CURVE SMOOTH"
);
}
);
width = 600;
}
);
note = oacute;
unicode = 00F3;
},
{
glyphname = ocircumflex;
lastChange = "2018-05-04 08:01:45 +0000";
layers = (
{
layerId = "569BED38-A8F7-49CD-B9BC-3027C0528AF7";
paths = (
{
closed = 1;
nodes = (
"288 591 LINE",
"76 500 LINE",
"88 472 LINE",
"288 537 LINE",
"488 472 LINE",
"500 500 LINE"
);
},
{
closed = 1;
nodes = (
"430 -13 OFFCURVE",
"537 89 OFFCURVE",
"537 215 CURVE SMOOTH",
"537 341 OFFCURVE",
"430 443 OFFCURVE",
"300 443 CURVE SMOOTH",
"169 443 OFFCURVE",
"62 341 OFFCURVE",
"62 215 CURVE SMOOTH",
"62 89 OFFCURVE",
"169 -13 OFFCURVE",
"300 -13 CURVE SMOOTH"
);
},
{
closed = 1;
nodes = (
"196 37 OFFCURVE",
"112 117 OFFCURVE",
"112 215 CURVE SMOOTH",
"112 313 OFFCURVE",
"196 394 OFFCURVE",
"299 393 CURVE SMOOTH",
"402 392 OFFCURVE",
"488 313 OFFCURVE",
"487 215 CURVE SMOOTH",
"486 117 OFFCURVE",
"402 37 OFFCURVE",
"299 37 CURVE SMOOTH"
);
}
);
width = 600;
}
);
note = ocircumflex;
unicode = 00F4;
},
{
glyphname = odieresis;
lastChange = "2018-06-06 13:46:38 +0000";
layers = (
{
layerId = "569BED38-A8F7-49CD-B9BC-3027C0528AF7";
paths = (
{
closed = 1;
nodes = (
"430 -13 OFFCURVE",
"537 89 OFFCURVE",
"537 215 CURVE SMOOTH",
"537 341 OFFCURVE",
"430 443 OFFCURVE",
"300 443 CURVE SMOOTH",
"169 443 OFFCURVE",
"62 341 OFFCURVE",
"62 215 CURVE SMOOTH",
"62 89 OFFCURVE",
"169 -13 OFFCURVE",
"300 -13 CURVE SMOOTH"
);
},
{
closed = 1;
nodes = (
"196 37 OFFCURVE",
"112 117 OFFCURVE",
"112 215 CURVE SMOOTH",
"112 313 OFFCURVE",
"196 394 OFFCURVE",
"299 393 CURVE SMOOTH",
"402 392 OFFCURVE",
"488 313 OFFCURVE",
"487 215 CURVE SMOOTH",
"486 117 OFFCURVE",
"402 37 OFFCURVE",
"299 37 CURVE SMOOTH"
);
},
{
closed = 1;
nodes = (
"237 478 OFFCURVE",
"260 502 OFFCURVE",
"260 529 CURVE SMOOTH",
"260 556 OFFCURVE",
"237 580 OFFCURVE",
"209 580 CURVE SMOOTH",
"181 580 OFFCURVE",
"157 556 OFFCURVE",
"157 529 CURVE SMOOTH",
"157 502 OFFCURVE",
"181 478 OFFCURVE",
"209 478 CURVE SMOOTH"
);
},
{
closed = 1;
nodes = (
"419 478 OFFCURVE",
"442 502 OFFCURVE",
"442 529 CURVE SMOOTH",
"442 556 OFFCURVE",
"419 580 OFFCURVE",
"391 580 CURVE SMOOTH",
"363 580 OFFCURVE",
"339 556 OFFCURVE",
"339 529 CURVE SMOOTH",
"339 502 OFFCURVE",
"363 478 OFFCURVE",
"391 478 CURVE SMOOTH"
);
}
);
width = 600;
}
);
note = odieresis;
unicode = 00F6;
},
{
glyphname = ograve;
lastChange = "2018-05-04 08:01:45 +0000";
layers = (
{
layerId = "569BED38-A8F7-49CD-B9BC-3027C0528AF7";
paths = (
{
closed = 1;
nodes = (
"467 505 LINE",
"156 580 LINE",
"144 533 LINE",
"459 472 LINE"
);
},
{
closed = 1;
nodes = (
"430 -13 OFFCURVE",
"537 89 OFFCURVE",
"537 215 CURVE SMOOTH",
"537 341 OFFCURVE",
"430 443 OFFCURVE",
"300 443 CURVE SMOOTH",
"169 443 OFFCURVE",
"62 341 OFFCURVE",
"62 215 CURVE SMOOTH",
"62 89 OFFCURVE",
"169 -13 OFFCURVE",
"300 -13 CURVE SMOOTH"
);
},
{
closed = 1;
nodes = (
"196 37 OFFCURVE",
"112 117 OFFCURVE",
"112 215 CURVE SMOOTH",
"112 313 OFFCURVE",
"196 394 OFFCURVE",
"299 393 CURVE SMOOTH",
"402 392 OFFCURVE",
"488 313 OFFCURVE",
"487 215 CURVE SMOOTH",
"486 117 OFFCURVE",
"402 37 OFFCURVE",
"299 37 CURVE SMOOTH"
);
}
);
width = 600;
}
);
note = ograve;
unicode = 00F2;
},
{
glyphname = oslash;
lastChange = "2018-05-04 08:01:45 +0000";
layers = (
{
layerId = "569BED38-A8F7-49CD-B9BC-3027C0528AF7";
paths = (
{
closed = 1;
nodes = (
"532 568 LINE",
"489 594 LINE",
"391 424 LINE",
"363 436 OFFCURVE",
"332 443 OFFCURVE",
"300 443 CURVE SMOOTH",
"174 443 OFFCURVE",
"62 341 OFFCURVE",
"62 215 CURVE SMOOTH",
"62 138 OFFCURVE",
"103 71 OFFCURVE",
"164 29 CURVE",
"68 -138 LINE",
"111 -164 LINE",
"208 5 LINE",
"237 -6 OFFCURVE",
"268 -13 OFFCURVE",
"300 -13 CURVE SMOOTH",
"425 -13 OFFCURVE",
"537 89 OFFCURVE",
"537 215 CURVE SMOOTH",
"537 291 OFFCURVE",
"496 359 OFFCURVE",
"436 400 CURVE"
);
},
{
closed = 1;
nodes = (
"112 312 OFFCURVE",
"201 392 OFFCURVE",
"299 391 CURVE SMOOTH",
"322 391 OFFCURVE",
"344 386 OFFCURVE",
"365 379 CURVE",
"189 73 LINE",
"143 105 OFFCURVE",
"112 156 OFFCURVE",
"112 214 CURVE SMOOTH"
);
},
{
closed = 1;
nodes = (
"276 38 OFFCURVE",
"254 42 OFFCURVE",
"234 50 CURVE",
"410 355 LINE",
"455 323 OFFCURVE",
"487 272 OFFCURVE",
"486 214 CURVE SMOOTH",
"485 116 OFFCURVE",
"397 38 OFFCURVE",
"299 38 CURVE SMOOTH"
);
}
);
width = 600;
}
);
note = oslash;
unicode = 00F8;
},
{
glyphname = otilde;
lastChange = "2018-05-04 08:01:45 +0000";
layers = (
{
layerId = "569BED38-A8F7-49CD-B9BC-3027C0528AF7";
paths = (
{
closed = 1;
nodes = (
"292 581 OFFCURVE",
"271 603 OFFCURVE",
"232 603 CURVE SMOOTH",
"193 603 OFFCURVE",
"161 582 OFFCURVE",
"111 522 CURVE",
"146 492 LINE",
"186 540 OFFCURVE",
"210 558 OFFCURVE",
"232 558 CURVE SMOOTH",
"254 558 OFFCURVE",
"268 542 OFFCURVE",
"286 526 CURVE",
"309 507 OFFCURVE",
"330 485 OFFCURVE",
"369 485 CURVE SMOOTH",
"408 485 OFFCURVE",
"440 506 OFFCURVE",
"490 566 CURVE",
"455 596 LINE",
"415 548 OFFCURVE",
"391 530 OFFCURVE",
"369 530 CURVE SMOOTH",
"347 530 OFFCURVE",
"333 546 OFFCURVE",
"315 562 CURVE"
);
},
{
closed = 1;
nodes = (
"430 -13 OFFCURVE",
"537 89 OFFCURVE",
"537 215 CURVE SMOOTH",
"537 341 OFFCURVE",
"430 443 OFFCURVE",
"300 443 CURVE SMOOTH",
"169 443 OFFCURVE",
"62 341 OFFCURVE",
"62 215 CURVE SMOOTH",
"62 89 OFFCURVE",
"169 -13 OFFCURVE",
"300 -13 CURVE SMOOTH"
);
},
{
closed = 1;
nodes = (
"196 37 OFFCURVE",
"112 117 OFFCURVE",
"112 215 CURVE SMOOTH",
"112 313 OFFCURVE",
"196 394 OFFCURVE",
"299 393 CURVE SMOOTH",
"402 392 OFFCURVE",
"488 313 OFFCURVE",
"487 215 CURVE SMOOTH",
"486 117 OFFCURVE",
"402 37 OFFCURVE",
"299 37 CURVE SMOOTH"
);
}
);
width = 600;
}
);
note = otilde;
unicode = 00F5;
},
{
glyphname = oe;
lastChange = "2018-05-04 08:01:45 +0000";
layers = (
{
layerId = "569BED38-A8F7-49CD-B9BC-3027C0528AF7";
paths = (
{
closed = 1;
nodes = (
"6 89 OFFCURVE",
"68 -13 OFFCURVE",
"174 -13 CURVE SMOOTH",
"243 -13 OFFCURVE",
"288 20 OFFCURVE",
"312 82 CURVE",
"336 25 OFFCURVE",
"384 -13 OFFCURVE",
"444 -13 CURVE SMOOTH",
"508 -13 OFFCURVE",
"591 31 OFFCURVE",
"591 149 CURVE",
"546 157 LINE",
"539 72 OFFCURVE",
"502 37 OFFCURVE",
"444 37 CURVE SMOOTH",
"381 37 OFFCURVE",
"335 119 OFFCURVE",
"335 217 CURVE",
"591 217 LINE",
"591 237 LINE SMOOTH",
"591 346 OFFCURVE",
"550 443 OFFCURVE",
"444 443 CURVE SMOOTH",
"381 443 OFFCURVE",
"334 403 OFFCURVE",
"310 350 CURVE",
"286 406 OFFCURVE",
"242 443 OFFCURVE",
"174 443 CURVE SMOOTH",
"68 443 OFFCURVE",
"6 341 OFFCURVE",
"6 215 CURVE SMOOTH"
);
},
{
closed = 1;
nodes = (
"56 313 OFFCURVE",
"95 394 OFFCURVE",
"173 393 CURVE SMOOTH",
"251 392 OFFCURVE",
"291 313 OFFCURVE",
"290 215 CURVE SMOOTH",
"289 117 OFFCURVE",
"251 37 OFFCURVE",
"173 37 CURVE SMOOTH",
"95 37 OFFCURVE",
"56 117 OFFCURVE",
"56 215 CURVE SMOOTH"
);
},
{
closed = 1;
nodes = (
"338 267 LINE",
"344 334 OFFCURVE",
"376 393 OFFCURVE",
"444 393 CURVE SMOOTH",
"522 393 OFFCURVE",
"534 322 OFFCURVE",
"540 266 CURVE"
);
}
);
width = 600;
}
);
note = oe;
unicode = 0153;
},
{
glyphname = p;
lastChange = "2018-05-04 08:01:45 +0000";
layers = (
{
layerId = "569BED38-A8F7-49CD-B9BC-3027C0528AF7";
paths = (
{
closed = 1;
nodes = (
"48 -160 LINE",
"288 -160 LINE",
"288 -110 LINE",
"185 -110 LINE",
"185 85 LINE",
"224 30 OFFCURVE",
"285 -13 OFFCURVE",
"354 -13 CURVE SMOOTH",
"477 -13 OFFCURVE",
"560 87 OFFCURVE",
"560 214 CURVE SMOOTH",
"560 341 OFFCURVE",
"477 443 OFFCURVE",
"354 443 CURVE SMOOTH",
"286 443 OFFCURVE",
"225 400 OFFCURVE",
"185 345 CURVE",
"187 419 OFFCURVE",
"155 443 OFFCURVE",
"119 443 CURVE SMOOTH",
"78 443 OFFCURVE",
"56 419 OFFCURVE",
"18 323 CURVE",
"62 302 LINE",
"93 375 OFFCURVE",
"102 393 OFFCURVE",
"119 393 CURVE SMOOTH",
"130 393 OFFCURVE",
"136 380 OFFCURVE",
"136 353 CURVE SMOOTH",
"135 -110 LINE",
"48 -110 LINE"
);
},
{
closed = 1;
nodes = (
"185 272 LINE",
"241 337 OFFCURVE",
"288 393 OFFCURVE",
"354 393 CURVE SMOOTH",
"448 393 OFFCURVE",
"511 316 OFFCURVE",
"510 214 CURVE SMOOTH",
"509 115 OFFCURVE",
"449 37 OFFCURVE",
"354 37 CURVE SMOOTH",
"285 37 OFFCURVE",
"240 93 OFFCURVE",
"185 158 CURVE"
);
}
);
width = 600;
}
);
note = p;
unicode = 0070;
},
{
glyphname = thorn;
lastChange = "2018-05-04 08:01:45 +0000";
layers = (
{
layerId = "569BED38-A8F7-49CD-B9BC-3027C0528AF7";
paths = (
{
closed = 1;
nodes = (
"135 541 LINE",
"135 -110 LINE",
"48 -110 LINE",
"48 -160 LINE",
"288 -160 LINE",
"288 -110 LINE",
"185 -110 LINE",
"185 85 LINE",
"224 30 OFFCURVE",
"285 -13 OFFCURVE",
"354 -13 CURVE SMOOTH",
"477 -13 OFFCURVE",
"560 87 OFFCURVE",
"560 214 CURVE SMOOTH",
"560 341 OFFCURVE",
"477 443 OFFCURVE",
"354 443 CURVE SMOOTH",
"286 443 OFFCURVE",
"225 400 OFFCURVE",
"185 345 CURVE",
"185 591 LINE",
"46 591 LINE",
"46 541 LINE"
);
},
{
closed = 1;
nodes = (
"185 272 LINE",
"241 337 OFFCURVE",
"288 393 OFFCURVE",
"354 393 CURVE SMOOTH",
"448 393 OFFCURVE",
"511 316 OFFCURVE",
"510 214 CURVE SMOOTH",
"509 115 OFFCURVE",
"449 37 OFFCURVE",
"354 37 CURVE SMOOTH",
"285 37 OFFCURVE",
"240 93 OFFCURVE",
"185 158 CURVE"
);
}
);
width = 600;
}
);
note = thorn;
unicode = 00FE;
},
{
glyphname = q;
lastChange = "2018-05-04 08:01:45 +0000";
layers = (
{
layerId = "569BED38-A8F7-49CD-B9BC-3027C0528AF7";
paths = (
{
closed = 1;
nodes = (
"304 -160 LINE",
"566 -160 LINE",
"566 -110 LINE",
"477 -110 LINE",
"477 430 LINE",
"427 430 LINE",
"427 345 LINE",
"387 400 OFFCURVE",
"326 443 OFFCURVE",
"258 443 CURVE SMOOTH",
"135 443 OFFCURVE",
"52 341 OFFCURVE",
"52 214 CURVE SMOOTH",
"52 87 OFFCURVE",
"135 -13 OFFCURVE",
"258 -13 CURVE SMOOTH",
"327 -13 OFFCURVE",
"388 30 OFFCURVE",
"427 85 CURVE",
"427 -110 LINE",
"304 -110 LINE"
);
},
{
closed = 1;
nodes = (
"427 158 LINE",
"372 93 OFFCURVE",
"327 37 OFFCURVE",
"258 37 CURVE SMOOTH",
"163 37 OFFCURVE",
"102 115 OFFCURVE",
"102 214 CURVE SMOOTH",
"102 316 OFFCURVE",
"164 393 OFFCURVE",
"258 393 CURVE SMOOTH",
"324 393 OFFCURVE",
"371 337 OFFCURVE",
"427 272 CURVE"
);
}
);
width = 600;
}
);
note = q;
unicode = 0071;
},
{
glyphname = r;
lastChange = "2018-05-04 08:01:45 +0000";
layers = (
{
layerId = "569BED38-A8F7-49CD-B9BC-3027C0528AF7";
paths = (
{
closed = 1;
nodes = (
"44 363 LINE",
"87 339 LINE",
"117 381 OFFCURVE",
"125 393 OFFCURVE",
"136 393 CURVE SMOOTH",
"148 393 OFFCURVE",
"154 385 OFFCURVE",
"154 358 CURVE SMOOTH",
"154 50 LINE",
"73 50 LINE",
"73 0 LINE",
"398 0 LINE",
"398 50 LINE",
"204 50 LINE",
"204 251 LINE",
"293 358 OFFCURVE",
"348 392 OFFCURVE",
"394 393 CURVE SMOOTH",
"454 394 OFFCURVE",
"481 354 OFFCURVE",
"484 308 CURVE",
"444 322 OFFCURVE",
"413 295 OFFCURVE",
"413 265 CURVE SMOOTH",
"413 234 OFFCURVE",
"439 213 OFFCURVE",
"467 213 CURVE SMOOTH",
"502 213 OFFCURVE",
"536 241 OFFCURVE",
"536 294 CURVE SMOOTH",
"536 390 OFFCURVE",
"480 443 OFFCURVE",
"394 443 CURVE SMOOTH",
"318 443 OFFCURVE",
"276 403 OFFCURVE",
"204 323 CURVE",
"204 351 LINE",
"207 425 OFFCURVE",
"172 443 OFFCURVE",
"136 443 CURVE SMOOTH",
"104 443 OFFCURVE",
"85 423 OFFCURVE",
"55 379 CURVE SMOOTH"
);
}
);
width = 600;
}
);
note = r;
unicode = 0072;
},
{
glyphname = s;
lastChange = "2018-05-04 08:01:45 +0000";
layers = (
{
layerId = "569BED38-A8F7-49CD-B9BC-3027C0528AF7";
paths = (
{
closed = 1;
nodes = (
"409 -12 OFFCURVE",
"504 29 OFFCURVE",
"504 115 CURVE SMOOTH",
"504 189 OFFCURVE",
"452 227 OFFCURVE",
"331 235 CURVE SMOOTH",
"268 239 LINE SMOOTH",
"177 245 OFFCURVE",
"141 265 OFFCURVE",
"141 313 CURVE SMOOTH",
"141 353 OFFCURVE",
"181 397 OFFCURVE",
"297 397 CURVE SMOOTH",
"362 397 OFFCURVE",
"403 380 OFFCURVE",
"424 358 CURVE",
"402 354 OFFCURVE",
"388 340 OFFCURVE",
"388 314 CURVE SMOOTH",
"388 289 OFFCURVE",
"409 271 OFFCURVE",
"438 271 CURVE SMOOTH",
"466 271 OFFCURVE",
"490 291 OFFCURVE",
"490 328 CURVE SMOOTH",
"490 395 OFFCURVE",
"408 442 OFFCURVE",
"298 442 CURVE SMOOTH",
"156 442 OFFCURVE",
"90 376 OFFCURVE",
"90 312 CURVE SMOOTH",
"90 239 OFFCURVE",
"129 200 OFFCURVE",
"266 191 CURVE SMOOTH",
"325 187 LINE SMOOTH",
"423 180 OFFCURVE",
"450 152 OFFCURVE",
"450 113 CURVE SMOOTH",
"450 63 OFFCURVE",
"394 33 OFFCURVE",
"286 33 CURVE SMOOTH",
"199 33 OFFCURVE",
"167 54 OFFCURVE",
"146 76 CURVE",
"168 80 OFFCURVE",
"182 94 OFFCURVE",
"182 120 CURVE SMOOTH",
"182 145 OFFCURVE",
"161 163 OFFCURVE",
"132 163 CURVE SMOOTH",
"104 163 OFFCURVE",
"80 143 OFFCURVE",
"80 106 CURVE SMOOTH",
"80 39 OFFCURVE",
"163 -12 OFFCURVE",
"287 -12 CURVE SMOOTH"
);
}
);
width = 600;
}
);
note = s;
unicode = 0073;
},
{
glyphname = scaron;
lastChange = "2018-05-04 08:01:45 +0000";
layers = (
{
layerId = "569BED38-A8F7-49CD-B9BC-3027C0528AF7";
paths = (
{
closed = 1;
nodes = (
"288 472 LINE",
"500 563 LINE",
"488 591 LINE",
"288 526 LINE",
"88 591 LINE",
"76 563 LINE"
);
},
{
closed = 1;
nodes = (
"409 -12 OFFCURVE",
"504 29 OFFCURVE",
"504 115 CURVE SMOOTH",
"504 189 OFFCURVE",
"452 227 OFFCURVE",
"331 235 CURVE SMOOTH",
"268 239 LINE SMOOTH",
"177 245 OFFCURVE",
"141 265 OFFCURVE",
"141 313 CURVE SMOOTH",
"141 353 OFFCURVE",
"181 397 OFFCURVE",
"297 397 CURVE SMOOTH",
"362 397 OFFCURVE",
"403 380 OFFCURVE",
"424 358 CURVE",
"402 354 OFFCURVE",
"388 340 OFFCURVE",
"388 314 CURVE SMOOTH",
"388 289 OFFCURVE",
"409 271 OFFCURVE",
"438 271 CURVE SMOOTH",
"466 271 OFFCURVE",
"490 291 OFFCURVE",
"490 328 CURVE SMOOTH",
"490 395 OFFCURVE",
"408 442 OFFCURVE",
"298 442 CURVE SMOOTH",
"156 442 OFFCURVE",
"90 376 OFFCURVE",
"90 312 CURVE SMOOTH",
"90 239 OFFCURVE",
"129 200 OFFCURVE",
"266 191 CURVE SMOOTH",
"325 187 LINE SMOOTH",
"423 180 OFFCURVE",
"450 152 OFFCURVE",
"450 113 CURVE SMOOTH",
"450 63 OFFCURVE",
"394 33 OFFCURVE",
"286 33 CURVE SMOOTH",
"199 33 OFFCURVE",
"167 54 OFFCURVE",
"146 76 CURVE",
"168 80 OFFCURVE",
"182 94 OFFCURVE",
"182 120 CURVE SMOOTH",
"182 145 OFFCURVE",
"161 163 OFFCURVE",
"132 163 CURVE SMOOTH",
"104 163 OFFCURVE",
"80 143 OFFCURVE",
"80 106 CURVE SMOOTH",
"80 39 OFFCURVE",
"163 -12 OFFCURVE",
"287 -12 CURVE SMOOTH"
);
}
);
width = 600;
}
);
note = scaron;
unicode = 0161;
},
{
glyphname = germandbls;
lastChange = "2018-06-06 13:08:53 +0000";
layers = (
{
layerId = "569BED38-A8F7-49CD-B9BC-3027C0528AF7";
paths = (
{
closed = 1;
nodes = (
"488 -13 OFFCURVE",
"544 76 OFFCURVE",
"544 162 CURVE SMOOTH",
"544 285 OFFCURVE",
"441 335 OFFCURVE",
"416 333 CURVE",
"436 340 OFFCURVE",
"483 370 OFFCURVE",
"483 447 CURVE SMOOTH",
"483 536 OFFCURVE",
"412 603 OFFCURVE",
"324 603 CURVE SMOOTH",
"220 603 OFFCURVE",
"112 530 OFFCURVE",
"112 365 CURVE SMOOTH",
"112 50 LINE",
"20 50 LINE",
"20 0 LINE",
"210 0 LINE",
"210 50 LINE",
"162 50 LINE",
"162 365 LINE SMOOTH",
"162 485 OFFCURVE",
"230 553 OFFCURVE",
"324 553 CURVE SMOOTH",
"376 553 OFFCURVE",
"433 517 OFFCURVE",
"433 447 CURVE SMOOTH",
"433 390 OFFCURVE",
"394 354 OFFCURVE",
"325 354 CURVE SMOOTH",
"228 354 LINE",
"228 304 LINE",
"336 304 LINE SMOOTH",
"427 304 OFFCURVE",
"494 245 OFFCURVE",
"494 162 CURVE SMOOTH",
"494 89 OFFCURVE",
"444 37 OFFCURVE",
"374 37 CURVE SMOOTH",
"294 37 OFFCURVE",
"256 92 OFFCURVE",
"256 136 CURVE",
"283 119 OFFCURVE",
"317 146 OFFCURVE",
"317 175 CURVE SMOOTH",
"317 203 OFFCURVE",
"296 221 OFFCURVE",
"266 221 CURVE SMOOTH",
"238 221 OFFCURVE",
"209 188 OFFCURVE",
"209 139 CURVE SMOOTH",
"209 57 OFFCURVE",
"275 -13 OFFCURVE",
"374 -13 CURVE SMOOTH"
);
}
);
width = 600;
},
{
associatedMasterId = "569BED38-A8F7-49CD-B9BC-3027C0528AF7";
layerId = "0427580E-C469-47E4-A8B3-FB8E4B9C7F84";
paths = (
{
closed = 1;
nodes = (
"488 -13 OFFCURVE",
"544 76 OFFCURVE",
"544 162 CURVE SMOOTH",
"544 285 OFFCURVE",
"441 335 OFFCURVE",
"416 333 CURVE",
"436 340 OFFCURVE",
"483 370 OFFCURVE",
"483 447 CURVE SMOOTH",
"483 536 OFFCURVE",
"409 590 OFFCURVE",
"324 590 CURVE SMOOTH",
"223 590 OFFCURVE",
"112 530 OFFCURVE",
"112 365 CURVE SMOOTH",
"112 50 LINE",
"20 50 LINE",
"20 0 LINE",
"210 0 LINE",
"210 50 LINE",
"162 50 LINE",
"162 365 LINE SMOOTH",
"162 485 OFFCURVE",
"233 540 OFFCURVE",
"324 540 CURVE SMOOTH",
"373 540 OFFCURVE",
"433 517 OFFCURVE",
"433 447 CURVE SMOOTH",
"433 390 OFFCURVE",
"394 354 OFFCURVE",
"325 354 CURVE SMOOTH",
"228 354 LINE",
"228 304 LINE",
"336 304 LINE SMOOTH",
"427 304 OFFCURVE",
"494 245 OFFCURVE",
"494 162 CURVE SMOOTH",
"494 89 OFFCURVE",
"444 37 OFFCURVE",
"374 37 CURVE SMOOTH",
"294 37 OFFCURVE",
"256 92 OFFCURVE",
"256 136 CURVE",
"283 119 OFFCURVE",
"317 146 OFFCURVE",
"317 175 CURVE SMOOTH",
"317 203 OFFCURVE",
"296 221 OFFCURVE",
"266 221 CURVE SMOOTH",
"238 221 OFFCURVE",
"209 188 OFFCURVE",
"209 139 CURVE SMOOTH",
"209 57 OFFCURVE",
"275 -13 OFFCURVE",
"374 -13 CURVE SMOOTH"
);
}
);
width = 600;
}
);
note = germandbls;
unicode = 00DF;
},
{
glyphname = t;
lastChange = "2018-05-04 08:01:45 +0000";
layers = (
{
layerId = "569BED38-A8F7-49CD-B9BC-3027C0528AF7";
paths = (
{
closed = 1;
nodes = (
"37 380 LINE",
"167 380 LINE",
"167 102 LINE SMOOTH",
"167 3 OFFCURVE",
"248 -13 OFFCURVE",
"297 -13 CURVE SMOOTH",
"365 -13 OFFCURVE",
"425 33 OFFCURVE",
"553 110 CURVE",
"526 150 LINE",
"415 84 OFFCURVE",
"354 37 OFFCURVE",
"297 37 CURVE SMOOTH",
"264 37 OFFCURVE",
"217 38 OFFCURVE",
"217 114 CURVE SMOOTH",
"217 380 LINE",
"498 380 LINE",
"498 430 LINE",
"217 430 LINE",
"217 590 LINE",
"167 590 LINE",
"167 430 LINE",
"37 430 LINE"
);
}
);
width = 600;
}
);
note = t;
unicode = 0074;
},
{
glyphname = u;
lastChange = "2018-05-04 08:01:45 +0000";
layers = (
{
layerId = "569BED38-A8F7-49CD-B9BC-3027C0528AF7";
paths = (
{
closed = 1;
nodes = (
"473 50 LINE",
"473 351 LINE",
"476 425 OFFCURVE",
"444 443 OFFCURVE",
"408 443 CURVE SMOOTH",
"376 443 OFFCURVE",
"354 423 OFFCURVE",
"324 379 CURVE SMOOTH",
"313 363 LINE",
"356 339 LINE",
"386 381 OFFCURVE",
"394 393 OFFCURVE",
"405 393 CURVE SMOOTH",
"417 393 OFFCURVE",
"423 385 OFFCURVE",
"423 358 CURVE SMOOTH",
"423 178 LINE",
"335 87 OFFCURVE",
"310 37 OFFCURVE",
"255 37 CURVE SMOOTH",
"220 37 OFFCURVE",
"175 52 OFFCURVE",
"175 114 CURVE SMOOTH",
"175 351 LINE",
"178 425 OFFCURVE",
"146 443 OFFCURVE",
"110 443 CURVE SMOOTH",
"78 443 OFFCURVE",
"56 423 OFFCURVE",
"26 379 CURVE SMOOTH",
"15 363 LINE",
"58 339 LINE",
"88 381 OFFCURVE",
"96 393 OFFCURVE",
"107 393 CURVE SMOOTH",
"119 393 OFFCURVE",
"125 385 OFFCURVE",
"125 358 CURVE SMOOTH",
"125 114 LINE SMOOTH",
"125 12 OFFCURVE",
"204 -13 OFFCURVE",
"255 -13 CURVE SMOOTH",
"317 -13 OFFCURVE",
"354 32 OFFCURVE",
"423 109 CURVE",
"423 0 LINE",
"554 1 LINE",
"554 51 LINE"
);
}
);
width = 600;
}
);
note = u;
unicode = 0075;
},
{
glyphname = uacute;
lastChange = "2018-05-04 08:01:45 +0000";
layers = (
{
layerId = "569BED38-A8F7-49CD-B9BC-3027C0528AF7";
paths = (
{
closed = 1;
nodes = (
"445 533 LINE",
"433 580 LINE",
"122 505 LINE",
"130 472 LINE"
);
},
{
closed = 1;
nodes = (
"473 50 LINE",
"473 351 LINE",
"476 425 OFFCURVE",
"444 443 OFFCURVE",
"408 443 CURVE SMOOTH",
"376 443 OFFCURVE",
"354 423 OFFCURVE",
"324 379 CURVE SMOOTH",
"313 363 LINE",
"356 339 LINE",
"386 381 OFFCURVE",
"394 393 OFFCURVE",
"405 393 CURVE SMOOTH",
"417 393 OFFCURVE",
"423 385 OFFCURVE",
"423 358 CURVE SMOOTH",
"423 178 LINE",
"335 87 OFFCURVE",
"310 37 OFFCURVE",
"255 37 CURVE SMOOTH",
"220 37 OFFCURVE",
"175 52 OFFCURVE",
"175 114 CURVE SMOOTH",
"175 351 LINE",
"178 425 OFFCURVE",
"146 443 OFFCURVE",
"110 443 CURVE SMOOTH",
"78 443 OFFCURVE",
"56 423 OFFCURVE",
"26 379 CURVE SMOOTH",
"15 363 LINE",
"58 339 LINE",
"88 381 OFFCURVE",
"96 393 OFFCURVE",
"107 393 CURVE SMOOTH",
"119 393 OFFCURVE",
"125 385 OFFCURVE",
"125 358 CURVE SMOOTH",
"125 114 LINE SMOOTH",
"125 12 OFFCURVE",
"204 -13 OFFCURVE",
"255 -13 CURVE SMOOTH",
"317 -13 OFFCURVE",
"354 32 OFFCURVE",
"423 109 CURVE",
"423 0 LINE",
"554 1 LINE",
"554 51 LINE"
);
}
);
width = 600;
}
);
note = uacute;
unicode = 00FA;
},
{
glyphname = ucircumflex;
lastChange = "2018-05-04 08:01:45 +0000";
layers = (
{
layerId = "569BED38-A8F7-49CD-B9BC-3027C0528AF7";
paths = (
{
closed = 1;
nodes = (
"288 537 LINE",
"488 472 LINE",
"500 500 LINE",
"288 591 LINE",
"76 500 LINE",
"88 472 LINE"
);
},
{
closed = 1;
nodes = (
"473 50 LINE",
"473 351 LINE",
"476 425 OFFCURVE",
"444 443 OFFCURVE",
"408 443 CURVE SMOOTH",
"376 443 OFFCURVE",
"354 423 OFFCURVE",
"324 379 CURVE SMOOTH",
"313 363 LINE",
"356 339 LINE",
"386 381 OFFCURVE",
"394 393 OFFCURVE",
"405 393 CURVE SMOOTH",
"417 393 OFFCURVE",
"423 385 OFFCURVE",
"423 358 CURVE SMOOTH",
"423 178 LINE",
"335 87 OFFCURVE",
"310 37 OFFCURVE",
"255 37 CURVE SMOOTH",
"220 37 OFFCURVE",
"175 52 OFFCURVE",
"175 114 CURVE SMOOTH",
"175 351 LINE",
"178 425 OFFCURVE",
"146 443 OFFCURVE",
"110 443 CURVE SMOOTH",
"78 443 OFFCURVE",
"56 423 OFFCURVE",
"26 379 CURVE SMOOTH",
"15 363 LINE",
"58 339 LINE",
"88 381 OFFCURVE",
"96 393 OFFCURVE",
"107 393 CURVE SMOOTH",
"119 393 OFFCURVE",
"125 385 OFFCURVE",
"125 358 CURVE SMOOTH",
"125 114 LINE SMOOTH",
"125 12 OFFCURVE",
"204 -13 OFFCURVE",
"255 -13 CURVE SMOOTH",
"317 -13 OFFCURVE",
"354 32 OFFCURVE",
"423 109 CURVE",
"423 0 LINE",
"554 1 LINE",
"554 51 LINE"
);
}
);
width = 600;
}
);
note = ucircumflex;
unicode = 00FB;
},
{
glyphname = ugrave;
lastChange = "2018-05-04 08:01:45 +0000";
layers = (
{
layerId = "569BED38-A8F7-49CD-B9BC-3027C0528AF7";
paths = (
{
closed = 1;
nodes = (
"467 505 LINE",
"156 580 LINE",
"144 533 LINE",
"459 472 LINE"
);
},
{
closed = 1;
nodes = (
"473 50 LINE",
"473 351 LINE",
"476 425 OFFCURVE",
"444 443 OFFCURVE",
"408 443 CURVE SMOOTH",
"376 443 OFFCURVE",
"354 423 OFFCURVE",
"324 379 CURVE SMOOTH",
"313 363 LINE",
"356 339 LINE",
"386 381 OFFCURVE",
"394 393 OFFCURVE",
"405 393 CURVE SMOOTH",
"417 393 OFFCURVE",
"423 385 OFFCURVE",
"423 358 CURVE SMOOTH",
"423 178 LINE",
"335 87 OFFCURVE",
"310 37 OFFCURVE",
"255 37 CURVE SMOOTH",
"220 37 OFFCURVE",
"175 52 OFFCURVE",
"175 114 CURVE SMOOTH",
"175 351 LINE",
"178 425 OFFCURVE",
"146 443 OFFCURVE",
"110 443 CURVE SMOOTH",
"78 443 OFFCURVE",
"56 423 OFFCURVE",
"26 379 CURVE SMOOTH",
"15 363 LINE",
"58 339 LINE",
"88 381 OFFCURVE",
"96 393 OFFCURVE",
"107 393 CURVE SMOOTH",
"119 393 OFFCURVE",
"125 385 OFFCURVE",
"125 358 CURVE SMOOTH",
"125 114 LINE SMOOTH",
"125 12 OFFCURVE",
"204 -13 OFFCURVE",
"255 -13 CURVE SMOOTH",
"317 -13 OFFCURVE",
"354 32 OFFCURVE",
"423 109 CURVE",
"423 0 LINE",
"554 1 LINE",
"554 51 LINE"
);
}
);
width = 600;
}
);
note = ugrave;
unicode = 00F9;
},
{
glyphname = v;
lastChange = "2018-05-04 08:01:45 +0000";
layers = (
{
layerId = "569BED38-A8F7-49CD-B9BC-3027C0528AF7";
paths = (
{
closed = 1;
nodes = (
"370 430 LINE",
"370 380 LINE",
"442 380 LINE",
"300 61 LINE",
"158 380 LINE",
"230 380 LINE",
"230 430 LINE",
"34 430 LINE",
"34 380 LINE",
"104 380 LINE",
"273 0 LINE",
"327 0 LINE",
"496 380 LINE",
"566 380 LINE",
"566 430 LINE"
);
}
);
width = 600;
}
);
note = v;
unicode = 0076;
},
{
glyphname = w;
lastChange = "2018-05-04 08:01:45 +0000";
layers = (
{
layerId = "569BED38-A8F7-49CD-B9BC-3027C0528AF7";
paths = (
{
closed = 1;
nodes = (
"324 379 LINE",
"276 379 LINE",
"180 79 LINE",
"112 380 LINE",
"184 380 LINE",
"184 430 LINE",
"18 430 LINE",
"18 380 LINE",
"59 380 LINE",
"148 0 LINE",
"206 0 LINE",
"300 288 LINE",
"395 0 LINE",
"452 0 LINE",
"541 380 LINE",
"582 380 LINE",
"582 430 LINE",
"416 430 LINE",
"416 380 LINE",
"488 380 LINE",
"420 79 LINE"
);
}
);
width = 600;
}
);
note = w;
unicode = 0077;
},
{
glyphname = x;
lastChange = "2018-05-04 08:01:45 +0000";
layers = (
{
layerId = "569BED38-A8F7-49CD-B9BC-3027C0528AF7";
paths = (
{
closed = 1;
nodes = (
"567 121 LINE",
"497 64 OFFCURVE",
"466 37 OFFCURVE",
"432 37 CURVE SMOOTH",
"388 37 OFFCURVE",
"325 129 OFFCURVE",
"325 215 CURVE SMOOTH",
"325 301 OFFCURVE",
"384 393 OFFCURVE",
"458 393 CURVE",
"443 384 OFFCURVE",
"443 369 OFFCURVE",
"443 359 CURVE SMOOTH",
"443 337 OFFCURVE",
"470 322 OFFCURVE",
"489 322 CURVE SMOOTH",
"515 322 OFFCURVE",
"542 340 OFFCURVE",
"542 381 CURVE SMOOTH",
"542 419 OFFCURVE",
"498 443 OFFCURVE",
"450 443 CURVE SMOOTH",
"394 443 OFFCURVE",
"334 397 OFFCURVE",
"301 328 CURVE",
"271 397 OFFCURVE",
"217 443 OFFCURVE",
"171 443 CURVE SMOOTH",
"127 443 OFFCURVE",
"84 417 OFFCURVE",
"5 350 CURVE",
"34 309 LINE",
"104 366 OFFCURVE",
"135 393 OFFCURVE",
"169 393 CURVE SMOOTH",
"213 393 OFFCURVE",
"276 301 OFFCURVE",
"276 215 CURVE SMOOTH",
"276 129 OFFCURVE",
"217 37 OFFCURVE",
"143 37 CURVE",
"158 46 OFFCURVE",
"158 61 OFFCURVE",
"158 71 CURVE SMOOTH",
"158 93 OFFCURVE",
"131 108 OFFCURVE",
"112 108 CURVE SMOOTH",
"86 108 OFFCURVE",
"59 90 OFFCURVE",
"59 49 CURVE SMOOTH",
"59 11 OFFCURVE",
"103 -13 OFFCURVE",
"151 -13 CURVE SMOOTH",
"207 -13 OFFCURVE",
"267 33 OFFCURVE",
"300 102 CURVE",
"330 33 OFFCURVE",
"384 -13 OFFCURVE",
"430 -13 CURVE SMOOTH",
"474 -13 OFFCURVE",
"517 13 OFFCURVE",
"596 80 CURVE"
);
}
);
width = 600;
}
);
note = x;
unicode = 0078;
},
{
glyphname = y;
lastChange = "2018-05-04 08:01:45 +0000";
layers = (
{
layerId = "569BED38-A8F7-49CD-B9BC-3027C0528AF7";
paths = (
{
closed = 1;
nodes = (
"43 -130 OFFCURVE",
"97 -173 OFFCURVE",
"160 -173 CURVE SMOOTH",
"218 -173 OFFCURVE",
"274 -157 OFFCURVE",
"338 0 CURVE SMOOTH",
"494 380 LINE",
"571 380 LINE",
"571 430 LINE",
"362 430 LINE",
"362 380 LINE",
"439 380 LINE",
"311 63 LINE",
"182 380 LINE",
"259 380 LINE",
"259 430 LINE",
"50 430 LINE",
"50 380 LINE",
"127 380 LINE",
"282 0 LINE",
"264 -40 LINE SMOOTH",
"238 -99 OFFCURVE",
"206 -124 OFFCURVE",
"166 -124 CURVE SMOOTH",
"112 -124 OFFCURVE",
"91 -87 OFFCURVE",
"94 -44 CURVE",
"103 -61 OFFCURVE",
"119 -67 OFFCURVE",
"140 -66 CURVE SMOOTH",
"165 -65 OFFCURVE",
"184 -46 OFFCURVE",
"184 -12 CURVE SMOOTH",
"184 20 OFFCURVE",
"156 42 OFFCURVE",
"122 42 CURVE SMOOTH",
"79 42 OFFCURVE",
"43 2 OFFCURVE",
"43 -48 CURVE SMOOTH"
);
}
);
width = 600;
}
);
note = y;
unicode = 0079;
},
{
glyphname = yacute;
lastChange = "2018-05-04 08:01:45 +0000";
layers = (
{
layerId = "569BED38-A8F7-49CD-B9BC-3027C0528AF7";
paths = (
{
closed = 1;
nodes = (
"122 505 LINE",
"130 472 LINE",
"445 533 LINE",
"433 580 LINE"
);
},
{
closed = 1;
nodes = (
"43 -130 OFFCURVE",
"97 -173 OFFCURVE",
"160 -173 CURVE SMOOTH",
"218 -173 OFFCURVE",
"274 -157 OFFCURVE",
"338 0 CURVE SMOOTH",
"494 380 LINE",
"571 380 LINE",
"571 430 LINE",
"362 430 LINE",
"362 380 LINE",
"439 380 LINE",
"311 63 LINE",
"182 380 LINE",
"259 380 LINE",
"259 430 LINE",
"50 430 LINE",
"50 380 LINE",
"127 380 LINE",
"282 0 LINE",
"264 -40 LINE SMOOTH",
"238 -99 OFFCURVE",
"206 -124 OFFCURVE",
"166 -124 CURVE SMOOTH",
"112 -124 OFFCURVE",
"91 -87 OFFCURVE",
"94 -44 CURVE",
"103 -61 OFFCURVE",
"119 -67 OFFCURVE",
"140 -66 CURVE SMOOTH",
"165 -65 OFFCURVE",
"184 -46 OFFCURVE",
"184 -12 CURVE SMOOTH",
"184 20 OFFCURVE",
"156 42 OFFCURVE",
"122 42 CURVE SMOOTH",
"79 42 OFFCURVE",
"43 2 OFFCURVE",
"43 -48 CURVE SMOOTH"
);
}
);
width = 600;
}
);
note = yacute;
unicode = 00FD;
},
{
glyphname = z;
lastChange = "2018-05-04 08:01:45 +0000";
layers = (
{
layerId = "569BED38-A8F7-49CD-B9BC-3027C0528AF7";
paths = (
{
closed = 1;
nodes = (
"137 50 LINE",
"470 50 LINE",
"484 222 LINE",
"534 217 LINE",
"515 0 LINE",
"64 0 LINE",
"64 50 LINE",
"433 380 LINE",
"122 380 LINE",
"108 208 LINE",
"58 213 LINE",
"77 430 LINE",
"509 430 LINE",
"509 381 LINE"
);
}
);
width = 600;
}
);
note = z;
unicode = 007A;
},
{
glyphname = zcaron;
lastChange = "2018-05-04 08:01:45 +0000";
layers = (
{
layerId = "569BED38-A8F7-49CD-B9BC-3027C0528AF7";
paths = (
{
closed = 1;
nodes = (
"288 472 LINE",
"500 563 LINE",
"488 591 LINE",
"288 526 LINE",
"88 591 LINE",
"76 563 LINE"
);
},
{
closed = 1;
nodes = (
"137 50 LINE",
"470 50 LINE",
"484 222 LINE",
"534 217 LINE",
"515 0 LINE",
"64 0 LINE",
"64 50 LINE",
"433 380 LINE",
"122 380 LINE",
"108 208 LINE",
"58 213 LINE",
"77 430 LINE",
"509 430 LINE",
"509 381 LINE"
);
}
);
width = 600;
}
);
note = zcaron;
unicode = 017E;
},
{
glyphname = ae.duo;
lastChange = "2018-05-04 08:01:45 +0000";
layers = (
{
layerId = "569BED38-A8F7-49CD-B9BC-3027C0528AF7";
paths = (
{
closed = 1;
nodes = (
"815 162 LINE",
"775 78 OFFCURVE",
"702 37 OFFCURVE",
"621 37 CURVE SMOOTH",
"531 37 OFFCURVE",
"445 119 OFFCURVE",
"445 217 CURVE",
"830 217 LINE",
"830 237 LINE SMOOTH",
"830 373 OFFCURVE",
"732 442 OFFCURVE",
"614 442 CURVE SMOOTH",
"545 442 OFFCURVE",
"481 421 OFFCURVE",
"440 370 CURVE",
"405 423 OFFCURVE",
"321 442 OFFCURVE",
"259 442 CURVE SMOOTH",
"195 442 OFFCURVE",
"81 410 OFFCURVE",
"81 330 CURVE SMOOTH",
"81 291 OFFCURVE",
"103 267 OFFCURVE",
"136 267 CURVE SMOOTH",
"169 267 OFFCURVE",
"192 286 OFFCURVE",
"192 317 CURVE SMOOTH",
"192 344 OFFCURVE",
"168 368 OFFCURVE",
"142 355 CURVE",
"156 380 OFFCURVE",
"213 392 OFFCURVE",
"259 392 CURVE SMOOTH",
"307 392 OFFCURVE",
"405 380 OFFCURVE",
"405 311 CURVE SMOOTH",
"405 268 OFFCURVE",
"377 261 OFFCURVE",
"257 258 CURVE SMOOTH",
"149 255 OFFCURVE",
"46 213 OFFCURVE",
"47 115 CURVE SMOOTH",
"48 23 OFFCURVE",
"114 -13 OFFCURVE",
"191 -13 CURVE SMOOTH",
"275 -13 OFFCURVE",
"332 18 OFFCURVE",
"406 77 CURVE SMOOTH",
"427 94 LINE",
"465 30 OFFCURVE",
"534 -12 OFFCURVE",
"621 -12 CURVE SMOOTH",
"708 -12 OFFCURVE",
"799 27 OFFCURVE",
"860 139 CURVE"
);
},
{
closed = 1;
nodes = (
"706 392 OFFCURVE",
"770 342 OFFCURVE",
"777 267 CURVE",
"448 267 LINE",
"454 342 OFFCURVE",
"522 392 OFFCURVE",
"614 392 CURVE SMOOTH"
);
},
{
closed = 1;
nodes = (
"406 139 LINE",
"325 69 OFFCURVE",
"269 37 OFFCURVE",
"192 37 CURVE SMOOTH",
"132 37 OFFCURVE",
"97 62 OFFCURVE",
"97 117 CURVE SMOOTH",
"97 177 OFFCURVE",
"169 208 OFFCURVE",
"256 209 CURVE SMOOTH",
"333 210 OFFCURVE",
"367 216 OFFCURVE",
"394 229 CURVE",
"394 217 LINE SMOOTH",
"394 190 OFFCURVE",
"398 164 OFFCURVE",
"406 140 CURVE"
);
}
);
width = 900;
}
);
note = ae.duo;
},
{
glyphname = i.duo;
lastChange = "2018-05-04 08:01:45 +0000";
layers = (
{
layerId = "569BED38-A8F7-49CD-B9BC-3027C0528AF7";
paths = (
{
closed = 1;
nodes = (
"176 471 OFFCURVE",
"199 495 OFFCURVE",
"199 522 CURVE SMOOTH",
"199 549 OFFCURVE",
"176 573 OFFCURVE",
"148 573 CURVE SMOOTH",
"120 573 OFFCURVE",
"96 549 OFFCURVE",
"96 522 CURVE SMOOTH",
"96 495 OFFCURVE",
"120 471 OFFCURVE",
"148 471 CURVE SMOOTH"
);
},
{
closed = 1;
nodes = (
"181 50 LINE",
"181 430 LINE",
"40 430 LINE",
"40 380 LINE",
"131 380 LINE",
"131 50 LINE",
"40 50 LINE",
"40 0 LINE",
"272 0 LINE",
"272 50 LINE"
);
}
);
width = 300;
}
);
note = i.duo;
},
{
glyphname = dotlessi.duo;
lastChange = "2018-05-04 08:01:45 +0000";
layers = (
{
layerId = "569BED38-A8F7-49CD-B9BC-3027C0528AF7";
paths = (
{
closed = 1;
nodes = (
"175 50 LINE",
"175 430 LINE",
"125 430 LINE",
"125 50 LINE",
"34 50 LINE",
"34 0 LINE",
"266 0 LINE",
"266 50 LINE"
);
}
);
width = 300;
}
);
note = dotlessi.duo;
},
{
glyphname = iacute.duo;
lastChange = "2018-05-04 08:01:45 +0000";
layers = (
{
layerId = "569BED38-A8F7-49CD-B9BC-3027C0528AF7";
paths = (
{
closed = 1;
nodes = (
"31 498 LINE",
"40 472 LINE",
"268 539 LINE",
"254 580 LINE"
);
},
{
closed = 1;
nodes = (
"175 50 LINE",
"175 430 LINE",
"125 430 LINE",
"125 50 LINE",
"34 50 LINE",
"34 0 LINE",
"266 0 LINE",
"266 50 LINE"
);
}
);
width = 300;
}
);
note = iacute.duo;
},
{
glyphname = icircumflex.duo;
lastChange = "2018-05-04 08:01:45 +0000";
layers = (
{
layerId = "569BED38-A8F7-49CD-B9BC-3027C0528AF7";
paths = (
{
closed = 1;
nodes = (
"150 539 LINE",
"26 472 LINE",
"13 492 LINE",
"150 590 LINE",
"287 492 LINE",
"274 472 LINE"
);
},
{
closed = 1;
nodes = (
"175 50 LINE",
"175 430 LINE",
"125 430 LINE",
"125 50 LINE",
"34 50 LINE",
"34 0 LINE",
"266 0 LINE",
"266 50 LINE"
);
}
);
width = 300;
}
);
note = icircumflex.duo;
},
{
glyphname = idieresis.duo;
lastChange = "2018-05-29 14:18:20 +0000";
layers = (
{
layerId = "569BED38-A8F7-49CD-B9BC-3027C0528AF7";
paths = (
{
closed = 1;
nodes = (
"175 50 LINE",
"175 430 LINE",
"125 430 LINE",
"125 50 LINE",
"34 50 LINE",
"34 0 LINE",
"266 0 LINE",
"266 50 LINE"
);
},
{
closed = 1;
nodes = (
"87 462 OFFCURVE",
"110 486 OFFCURVE",
"110 513 CURVE SMOOTH",
"110 540 OFFCURVE",
"87 564 OFFCURVE",
"59 564 CURVE SMOOTH",
"31 564 OFFCURVE",
"7 540 OFFCURVE",
"7 513 CURVE SMOOTH",
"7 486 OFFCURVE",
"31 462 OFFCURVE",
"59 462 CURVE SMOOTH"
);
},
{
closed = 1;
nodes = (
"269 462 OFFCURVE",
"292 486 OFFCURVE",
"292 513 CURVE SMOOTH",
"292 540 OFFCURVE",
"269 564 OFFCURVE",
"241 564 CURVE SMOOTH",
"213 564 OFFCURVE",
"189 540 OFFCURVE",
"189 513 CURVE SMOOTH",
"189 486 OFFCURVE",
"213 462 OFFCURVE",
"241 462 CURVE SMOOTH"
);
}
);
width = 300;
}
);
},
{
glyphname = igrave.duo;
lastChange = "2018-05-04 08:01:45 +0000";
layers = (
{
layerId = "569BED38-A8F7-49CD-B9BC-3027C0528AF7";
paths = (
{
closed = 1;
nodes = (
"268 498 LINE",
"45 580 LINE",
"31 539 LINE",
"259 472 LINE"
);
},
{
closed = 1;
nodes = (
"175 50 LINE",
"175 430 LINE",
"125 430 LINE",
"125 50 LINE",
"34 50 LINE",
"34 0 LINE",
"266 0 LINE",
"266 50 LINE"
);
}
);
width = 300;
}
);
note = igrave.duo;
},
{
glyphname = j.duo;
lastChange = "2018-05-04 08:01:45 +0000";
layers = (
{
layerId = "569BED38-A8F7-49CD-B9BC-3027C0528AF7";
paths = (
{
closed = 1;
nodes = (
"233 467 OFFCURVE",
"257 491 OFFCURVE",
"257 519 CURVE SMOOTH",
"257 547 OFFCURVE",
"233 571 OFFCURVE",
"205 571 CURVE SMOOTH",
"176 571 OFFCURVE",
"152 547 OFFCURVE",
"152 519 CURVE SMOOTH",
"152 491 OFFCURVE",
"176 467 OFFCURVE",
"205 467 CURVE SMOOTH"
);
},
{
closed = 1;
nodes = (
"157 443 OFFCURVE",
"138 423 OFFCURVE",
"108 379 CURVE SMOOTH",
"97 363 LINE",
"140 339 LINE",
"170 381 OFFCURVE",
"178 393 OFFCURVE",
"189 393 CURVE SMOOTH",
"201 393 OFFCURVE",
"207 385 OFFCURVE",
"207 358 CURVE SMOOTH",
"207 26 LINE SMOOTH",
"207 -77 OFFCURVE",
"190 -122 OFFCURVE",
"142 -129 CURVE",
"151 -121 OFFCURVE",
"155 -110 OFFCURVE",
"155 -97 CURVE SMOOTH",
"155 -84 OFFCURVE",
"142 -60 OFFCURVE",
"116 -60 CURVE SMOOTH",
"85 -60 OFFCURVE",
"66 -77 OFFCURVE",
"66 -114 CURVE SMOOTH",
"66 -147 OFFCURVE",
"95 -173 OFFCURVE",
"134 -173 CURVE SMOOTH",
"230 -173 OFFCURVE",
"257 -107 OFFCURVE",
"257 26 CURVE SMOOTH",
"257 351 LINE SMOOTH",
"257 425 OFFCURVE",
"225 443 OFFCURVE",
"189 443 CURVE SMOOTH"
);
}
);
width = 300;
}
);
note = j.duo;
},
{
glyphname = l.duo;
lastChange = "2018-05-04 08:01:45 +0000";
layers = (
{
layerId = "569BED38-A8F7-49CD-B9BC-3027C0528AF7";
paths = (
{
closed = 1;
nodes = (
"181 50 LINE",
"181 590 LINE",
"40 590 LINE",
"40 540 LINE",
"131 540 LINE",
"131 50 LINE",
"40 50 LINE",
"40 0 LINE",
"272 0 LINE",
"272 50 LINE"
);
}
);
width = 300;
}
);
note = l.duo;
},
{
glyphname = lslash.duo;
lastChange = "2018-05-04 08:01:45 +0000";
layers = (
{
layerId = "569BED38-A8F7-49CD-B9BC-3027C0528AF7";
paths = (
{
closed = 1;
nodes = (
"281 325 LINE",
"281 375 LINE",
"190 331 LINE",
"190 590 LINE",
"49 590 LINE",
"49 541 LINE",
"140 541 LINE",
"140 308 LINE",
"49 264 LINE",
"49 214 LINE",
"140 258 LINE",
"140 49 LINE",
"49 49 LINE",
"49 0 LINE",
"281 0 LINE",
"281 49 LINE",
"190 49 LINE",
"190 281 LINE"
);
}
);
width = 300;
}
);
note = lslash.duo;
},
{
glyphname = m.duo;
lastChange = "2018-05-04 08:01:45 +0000";
layers = (
{
layerId = "569BED38-A8F7-49CD-B9BC-3027C0528AF7";
paths = (
{
closed = 1;
nodes = (
"37 363 LINE",
"80 339 LINE",
"110 381 OFFCURVE",
"118 393 OFFCURVE",
"129 393 CURVE SMOOTH",
"141 393 OFFCURVE",
"147 385 OFFCURVE",
"147 358 CURVE SMOOTH",
"147 50 LINE",
"70 50 LINE",
"70 0 LINE",
"274 0 LINE",
"274 50 LINE",
"197 50 LINE",
"197 252 LINE",
"285 343 OFFCURVE",
"310 394 OFFCURVE",
"361 394 CURVE SMOOTH",
"400 394 OFFCURVE",
"445 368 OFFCURVE",
"445 308 CURVE SMOOTH",
"445 50 LINE",
"368 50 LINE",
"368 0 LINE",
"572 0 LINE",
"572 50 LINE",
"495 50 LINE",
"495 252 LINE",
"583 343 OFFCURVE",
"608 394 OFFCURVE",
"659 394 CURVE SMOOTH",
"698 394 OFFCURVE",
"743 368 OFFCURVE",
"743 308 CURVE SMOOTH",
"743 50 LINE",
"666 50 LINE",
"666 0 LINE",
"870 0 LINE",
"870 50 LINE",
"793 50 LINE",
"793 323 LINE SMOOTH",
"793 408 OFFCURVE",
"714 444 OFFCURVE",
"666 444 CURVE SMOOTH",
"601 444 OFFCURVE",
"564 398 OFFCURVE",
"495 321 CURVE",
"494 391 OFFCURVE",
"438 444 OFFCURVE",
"368 444 CURVE SMOOTH",
"303 444 OFFCURVE",
"266 398 OFFCURVE",
"197 321 CURVE",
"197 351 LINE",
"200 425 OFFCURVE",
"168 443 OFFCURVE",
"132 443 CURVE SMOOTH",
"100 443 OFFCURVE",
"78 423 OFFCURVE",
"48 379 CURVE SMOOTH"
);
}
);
width = 900;
}
);
note = m.duo;
},
{
glyphname = oe.duo;
lastChange = "2018-05-04 08:01:45 +0000";
layers = (
{
layerId = "569BED38-A8F7-49CD-B9BC-3027C0528AF7";
paths = (
{
closed = 1;
nodes = (
"11 89 OFFCURVE",
"123 -13 OFFCURVE",
"249 -13 CURVE SMOOTH",
"340 -13 OFFCURVE",
"424 40 OFFCURVE",
"463 117 CURVE",
"495 41 OFFCURVE",
"563 -12 OFFCURVE",
"660 -12 CURVE SMOOTH",
"747 -12 OFFCURVE",
"828 27 OFFCURVE",
"889 139 CURVE",
"844 162 LINE",
"804 78 OFFCURVE",
"741 37 OFFCURVE",
"660 37 CURVE SMOOTH",
"570 37 OFFCURVE",
"494 119 OFFCURVE",
"494 217 CURVE",
"859 217 LINE",
"859 237 LINE SMOOTH",
"859 373 OFFCURVE",
"771 442 OFFCURVE",
"653 442 CURVE SMOOTH",
"564 442 OFFCURVE",
"488 408 OFFCURVE",
"458 320 CURVE",
"417 393 OFFCURVE",
"336 443 OFFCURVE",
"249 443 CURVE SMOOTH",
"123 443 OFFCURVE",
"11 341 OFFCURVE",
"11 215 CURVE SMOOTH"
);
},
{
closed = 1;
nodes = (
"61 313 OFFCURVE",
"150 393 OFFCURVE",
"248 392 CURVE SMOOTH",
"346 391 OFFCURVE",
"436 313 OFFCURVE",
"435 215 CURVE SMOOTH",
"434 117 OFFCURVE",
"346 39 OFFCURVE",
"248 39 CURVE SMOOTH",
"150 39 OFFCURVE",
"61 117 OFFCURVE",
"61 215 CURVE SMOOTH"
);
},
{
closed = 1;
nodes = (
"497 267 LINE",
"503 342 OFFCURVE",
"561 392 OFFCURVE",
"653 392 CURVE SMOOTH",
"745 392 OFFCURVE",
"799 342 OFFCURVE",
"806 267 CURVE"
);
}
);
width = 900;
}
);
note = oe.duo;
},
{
glyphname = w.duo;
lastChange = "2018-05-04 08:01:45 +0000";
layers = (
{
layerId = "569BED38-A8F7-49CD-B9BC-3027C0528AF7";
paths = (
{
closed = 1;
nodes = (
"261 0 LINE",
"337 0 LINE",
"449 351 LINE",
"561 0 LINE",
"637 0 LINE",
"759 380 LINE",
"839 380 LINE",
"839 430 LINE",
"647 430 LINE",
"647 380 LINE",
"706 380 LINE",
"599 44 LINE",
"476 430 LINE",
"422 430 LINE",
"299 44 LINE",
"192 380 LINE",
"252 380 LINE",
"252 430 LINE",
"60 430 LINE",
"60 380 LINE",
"139 380 LINE"
);
}
);
width = 900;
}
);
note = w.duo;
},
{
glyphname = fi;
lastChange = "2018-05-04 08:01:45 +0000";
layers = (
{
layerId = "569BED38-A8F7-49CD-B9BC-3027C0528AF7";
paths = (
{
closed = 1;
nodes = (
"58 0 LINE",
"274 0 LINE",
"274 50 LINE",
"191 50 LINE",
"191 380 LINE",
"344 380 LINE",
"344 430 LINE",
"193 430 LINE",
"202 507 OFFCURVE",
"253 553 OFFCURVE",
"335 553 CURVE SMOOTH",
"423 553 OFFCURVE",
"463 505 OFFCURVE",
"464 479 CURVE",
"448 490 OFFCURVE",
"398 480 OFFCURVE",
"398 437 CURVE SMOOTH",
"398 404 OFFCURVE",
"422 384 OFFCURVE",
"455 384 CURVE SMOOTH",
"490 384 OFFCURVE",
"515 413 OFFCURVE",
"515 458 CURVE SMOOTH",
"515 543 OFFCURVE",
"441 603 OFFCURVE",
"336 603 CURVE SMOOTH",
"232 603 OFFCURVE",
"154 537 OFFCURVE",
"143 430 CURVE",
"57 430 LINE",
"57 380 LINE",
"141 380 LINE",
"141 50 LINE",
"58 50 LINE"
);
},
{
closed = 1;
nodes = (
"485 50 LINE",
"485 343 LINE",
"435 343 LINE",
"435 50 LINE",
"377 50 LINE",
"377 0 LINE",
"543 0 LINE",
"543 50 LINE"
);
}
);
width = 600;
}
);
note = fi;
unicode = FB01;
},
{
glyphname = fl;
lastChange = "2018-05-04 08:01:45 +0000";
layers = (
{
layerId = "569BED38-A8F7-49CD-B9BC-3027C0528AF7";
paths = (
{
closed = 1;
nodes = (
"33 0 LINE",
"249 0 LINE",
"249 50 LINE",
"166 50 LINE",
"166 380 LINE",
"319 380 LINE",
"319 430 LINE",
"168 430 LINE",
"177 507 OFFCURVE",
"228 553 OFFCURVE",
"310 553 CURVE SMOOTH",
"401 553 LINE",
"401 50 LINE",
"318 50 LINE",
"318 0 LINE",
"580 0 LINE",
"580 50 LINE",
"451 50 LINE",
"451 603 LINE",
"311 603 LINE SMOOTH",
"207 603 OFFCURVE",
"129 537 OFFCURVE",
"118 430 CURVE",
"32 430 LINE",
"32 380 LINE",
"116 380 LINE",
"116 50 LINE",
"33 50 LINE"
);
}
);
width = 600;
}
);
note = fl;
unicode = FB02;
},
{
glyphname = ordfeminine;
lastChange = "2018-05-04 08:01:45 +0000";
layers = (
{
layerId = "569BED38-A8F7-49CD-B9BC-3027C0528AF7";
paths = (
{
closed = 1;
nodes = (
"526 128 LINE",
"495 55 OFFCURVE",
"486 37 OFFCURVE",
"469 37 CURVE SMOOTH",
"458 37 OFFCURVE",
"452 50 OFFCURVE",
"452 77 CURVE SMOOTH",
"452 313 LINE SMOOTH",
"452 411 OFFCURVE",
"335 442 OFFCURVE",
"255 442 CURVE SMOOTH",
"188 442 OFFCURVE",
"80 413 OFFCURVE",
"80 333 CURVE SMOOTH",
"80 296 OFFCURVE",
"99 271 OFFCURVE",
"132 271 CURVE SMOOTH",
"165 271 OFFCURVE",
"184 291 OFFCURVE",
"184 320 CURVE SMOOTH",
"184 346 OFFCURVE",
"154 367 OFFCURVE",
"136 358 CURVE",
"151 383 OFFCURVE",
"209 392 OFFCURVE",
"255 392 CURVE SMOOTH",
"303 392 OFFCURVE",
"402 380 OFFCURVE",
"402 313 CURVE SMOOTH",
"402 268 OFFCURVE",
"373 257 OFFCURVE",
"253 254 CURVE SMOOTH",
"145 251 OFFCURVE",
"42 213 OFFCURVE",
"43 115 CURVE SMOOTH",
"44 23 OFFCURVE",
"110 -13 OFFCURVE",
"187 -13 CURVE SMOOTH",
"271 -13 OFFCURVE",
"328 18 OFFCURVE",
"402 77 CURVE",
"400 13 OFFCURVE",
"433 -13 OFFCURVE",
"469 -13 CURVE SMOOTH",
"510 -13 OFFCURVE",
"532 11 OFFCURVE",
"570 107 CURVE"
);
},
{
closed = 1;
nodes = (
"402 139 LINE",
"321 69 OFFCURVE",
"265 37 OFFCURVE",
"188 37 CURVE SMOOTH",
"128 37 OFFCURVE",
"93 62 OFFCURVE",
"93 117 CURVE SMOOTH",
"93 177 OFFCURVE",
"165 203 OFFCURVE",
"252 204 CURVE SMOOTH",
"341 205 OFFCURVE",
"372 218 OFFCURVE",
"402 235 CURVE"
);
}
);
width = 600;
}
);
note = ordfeminine;
unicode = 00AA;
},
{
glyphname = ordmasculine;
lastChange = "2018-05-04 08:01:45 +0000";
layers = (
{
layerId = "569BED38-A8F7-49CD-B9BC-3027C0528AF7";
paths = (
{
closed = 1;
nodes = (
"430 -13 OFFCURVE",
"537 89 OFFCURVE",
"537 215 CURVE SMOOTH",
"537 341 OFFCURVE",
"430 443 OFFCURVE",
"300 443 CURVE SMOOTH",
"169 443 OFFCURVE",
"62 341 OFFCURVE",
"62 215 CURVE SMOOTH",
"62 89 OFFCURVE",
"169 -13 OFFCURVE",
"300 -13 CURVE SMOOTH"
);
},
{
closed = 1;
nodes = (
"196 37 OFFCURVE",
"112 117 OFFCURVE",
"112 215 CURVE SMOOTH",
"112 313 OFFCURVE",
"196 394 OFFCURVE",
"299 393 CURVE SMOOTH",
"402 392 OFFCURVE",
"488 313 OFFCURVE",
"487 215 CURVE SMOOTH",
"486 117 OFFCURVE",
"402 37 OFFCURVE",
"299 37 CURVE SMOOTH"
);
}
);
width = 600;
}
);
note = ordmasculine;
unicode = 00BA;
},
{
glyphname = uni0394;
lastChange = "2018-05-04 08:01:45 +0000";
layers = (
{
layerId = "569BED38-A8F7-49CD-B9BC-3027C0528AF7";
paths = (
{
closed = 1;
nodes = (
"66 54 LINE",
"66 0 LINE",
"533 0 LINE",
"533 56 LINE",
"327 603 LINE",
"273 603 LINE"
);
},
{
closed = 1;
nodes = (
"118 50 LINE",
"300 532 LINE",
"482 50 LINE"
);
}
);
width = 600;
}
);
note = uni0394;
unicode = 0394;
},
{
glyphname = uni03A9;
lastChange = "2018-05-04 08:01:45 +0000";
layers = (
{
layerId = "569BED38-A8F7-49CD-B9BC-3027C0528AF7";
paths = (
{
closed = 1;
nodes = (
"32 0 LINE",
"32 50 LINE",
"184 50 LINE",
"108 172 OFFCURVE",
"47 263 OFFCURVE",
"47 365 CURVE SMOOTH",
"47 470 OFFCURVE",
"127 602 OFFCURVE",
"300 602 CURVE SMOOTH",
"473 602 OFFCURVE",
"553 470 OFFCURVE",
"553 365 CURVE SMOOTH",
"553 272 OFFCURVE",
"492 174 OFFCURVE",
"416 50 CURVE",
"568 50 LINE",
"568 0 LINE",
"351 0 LINE",
"351 50 LINE",
"439 172 OFFCURVE",
"503 284 OFFCURVE",
"503 366 CURVE SMOOTH",
"503 452 OFFCURVE",
"436 552 OFFCURVE",
"300 552 CURVE SMOOTH",
"164 552 OFFCURVE",
"97 452 OFFCURVE",
"97 366 CURVE SMOOTH",
"97 274 OFFCURVE",
"161 172 OFFCURVE",
"249 50 CURVE",
"249 0 LINE"
);
}
);
width = 600;
}
);
note = uni03A9;
unicode = 03A9;
},
{
glyphname = pi;
lastChange = "2018-05-04 08:01:45 +0000";
layers = (
{
layerId = "569BED38-A8F7-49CD-B9BC-3027C0528AF7";
paths = (
{
closed = 1;
nodes = (
"516 128 LINE",
"485 55 OFFCURVE",
"477 37 OFFCURVE",
"461 37 CURVE SMOOTH",
"449 37 OFFCURVE",
"443 45 OFFCURVE",
"443 72 CURVE SMOOTH",
"443 380 LINE",
"516 380 LINE",
"516 430 LINE",
"66 430 LINE",
"66 380 LINE",
"139 380 LINE",
"139 0 LINE",
"189 0 LINE",
"189 380 LINE",
"393 380 LINE",
"393 77 LINE SMOOTH",
"393 3 OFFCURVE",
"422 -13 OFFCURVE",
"458 -13 CURVE SMOOTH",
"497 -13 OFFCURVE",
"522 16 OFFCURVE",
"533 41 CURVE SMOOTH",
"563 109 LINE"
);
}
);
width = 600;
}
);
note = pi;
unicode = 03C0;
},
{
glyphname = zero;
lastChange = "2018-05-04 08:01:45 +0000";
layers = (
{
layerId = "569BED38-A8F7-49CD-B9BC-3027C0528AF7";
paths = (
{
closed = 1;
nodes = (
"425 -13 OFFCURVE",
"537 89 OFFCURVE",
"537 295 CURVE SMOOTH",
"537 501 OFFCURVE",
"425 603 OFFCURVE",
"300 603 CURVE SMOOTH",
"174 603 OFFCURVE",
"62 501 OFFCURVE",
"62 295 CURVE SMOOTH",
"62 89 OFFCURVE",
"174 -13 OFFCURVE",
"300 -13 CURVE SMOOTH"
);
},
{
closed = 1;
nodes = (
"201 37 OFFCURVE",
"112 117 OFFCURVE",
"112 295 CURVE SMOOTH",
"112 473 OFFCURVE",
"201 553 OFFCURVE",
"300 553 CURVE SMOOTH",
"397 553 OFFCURVE",
"488 473 OFFCURVE",
"487 295 CURVE SMOOTH",
"486 117 OFFCURVE",
"397 37 OFFCURVE",
"299 37 CURVE SMOOTH"
);
}
);
width = 600;
}
);
note = zero;
unicode = 0030;
},
{
glyphname = one;
lastChange = "2018-05-04 08:01:45 +0000";
layers = (
{
layerId = "569BED38-A8F7-49CD-B9BC-3027C0528AF7";
paths = (
{
closed = 1;
nodes = (
"362 590 LINE",
"292 590 LINE",
"261 483 OFFCURVE",
"190 378 OFFCURVE",
"65 317 CURVE",
"93 279 LINE",
"237 357 OFFCURVE",
"283 432 OFFCURVE",
"312 524 CURVE",
"312 50 LINE",
"75 50 LINE",
"75 0 LINE",
"540 0 LINE",
"540 50 LINE",
"362 50 LINE"
);
}
);
width = 600;
}
);
note = one;
unicode = 0031;
},
{
glyphname = two;
lastChange = "2018-05-04 08:01:45 +0000";
layers = (
{
layerId = "569BED38-A8F7-49CD-B9BC-3027C0528AF7";
paths = (
{
closed = 1;
nodes = (
"67 2 LINE",
"67 146 OFFCURVE",
"98 208 OFFCURVE",
"229 266 CURVE SMOOTH",
"324 308 LINE SMOOTH",
"388 336 OFFCURVE",
"457 357 OFFCURVE",
"457 440 CURVE SMOOTH",
"457 522 OFFCURVE",
"368 553 OFFCURVE",
"299 553 CURVE SMOOTH",
"223 553 OFFCURVE",
"157 514 OFFCURVE",
"136 460 CURVE",
"165 475 OFFCURVE",
"204 457 OFFCURVE",
"204 414 CURVE SMOOTH",
"204 386 OFFCURVE",
"185 358 OFFCURVE",
"149 358 CURVE SMOOTH",
"115 358 OFFCURVE",
"81 389 OFFCURVE",
"81 439 CURVE SMOOTH",
"81 537 OFFCURVE",
"192 603 OFFCURVE",
"299 603 CURVE SMOOTH",
"398 603 OFFCURVE",
"507 555 OFFCURVE",
"507 440 CURVE SMOOTH",
"507 329 OFFCURVE",
"439 302 OFFCURVE",
"361 269 CURVE SMOOTH",
"259 226 LINE SMOOTH",
"175 190 OFFCURVE",
"119 145 OFFCURVE",
"119 57 CURVE",
"137 84 OFFCURVE",
"183 96 OFFCURVE",
"218 96 CURVE SMOOTH",
"285 96 OFFCURVE",
"360 37 OFFCURVE",
"417 37 CURVE SMOOTH",
"500 37 OFFCURVE",
"505 125 OFFCURVE",
"499 186 CURVE",
"550 180 LINE",
"555 53 OFFCURVE",
"517 -13 OFFCURVE",
"417 -13 CURVE SMOOTH",
"338 -13 OFFCURVE",
"279 46 OFFCURVE",
"218 46 CURVE SMOOTH",
"178 46 OFFCURVE",
"139 25 OFFCURVE",
"114 -5 CURVE"
);
}
);
width = 600;
}
);
note = two;
unicode = 0032;
},
{
glyphname = three;
lastChange = "2018-05-04 08:01:45 +0000";
layers = (
{
layerId = "569BED38-A8F7-49CD-B9BC-3027C0528AF7";
paths = (
{
closed = 1;
nodes = (
"72 203 OFFCURVE",
"105 227 OFFCURVE",
"132 227 CURVE SMOOTH",
"162 227 OFFCURVE",
"185 207 OFFCURVE",
"185 179 CURVE SMOOTH",
"185 150 OFFCURVE",
"158 126 OFFCURVE",
"128 137 CURVE",
"128 97 OFFCURVE",
"186 37 OFFCURVE",
"290 37 CURVE SMOOTH",
"383 37 OFFCURVE",
"462 95 OFFCURVE",
"462 190 CURVE SMOOTH",
"462 275 OFFCURVE",
"389 328 OFFCURVE",
"306 338 CURVE",
"276 307 LINE",
"236 337 LINE",
"431 540 LINE",
"164 540 LINE",
"129 394 LINE",
"77 399 LINE",
"121 590 LINE",
"499 590 LINE",
"499 540 LINE",
"344 378 LINE",
"436 363 OFFCURVE",
"512 287 OFFCURVE",
"512 190 CURVE SMOOTH",
"512 58 OFFCURVE",
"400 -13 OFFCURVE",
"289 -13 CURVE SMOOTH",
"168 -13 OFFCURVE",
"72 52 OFFCURVE",
"72 157 CURVE SMOOTH"
);
}
);
width = 600;
}
);
note = three;
unicode = 0033;
},
{
glyphname = four;
lastChange = "2018-05-04 08:01:45 +0000";
layers = (
{
layerId = "569BED38-A8F7-49CD-B9BC-3027C0528AF7";
paths = (
{
closed = 1;
nodes = (
"35 119 LINE",
"35 169 LINE",
"155 325 OFFCURVE",
"219 446 OFFCURVE",
"265 603 CURVE",
"314 594 LINE",
"278 453 OFFCURVE",
"212 321 OFFCURVE",
"98 169 CURVE",
"353 169 LINE",
"355 426 LINE",
"405 426 LINE",
"403 169 LINE",
"559 169 LINE",
"559 119 LINE",
"403 119 LINE",
"402 0 LINE",
"352 0 LINE",
"353 119 LINE"
);
}
);
width = 600;
}
);
note = four;
unicode = 0034;
},
{
glyphname = five;
lastChange = "2018-05-04 08:01:45 +0000";
layers = (
{
layerId = "569BED38-A8F7-49CD-B9BC-3027C0528AF7";
paths = (
{
closed = 1;
nodes = (
"481 289 OFFCURVE",
"392 335 OFFCURVE",
"316 335 CURVE SMOOTH",
"236 335 OFFCURVE",
"190 308 OFFCURVE",
"149 283 CURVE",
"107 305 LINE",
"149 590 LINE",
"499 590 LINE",
"499 540 LINE",
"192 540 LINE",
"163 342 LINE",
"200 362 OFFCURVE",
"239 385 OFFCURVE",
"325 385 CURVE SMOOTH",
"434 385 OFFCURVE",
"531 306 OFFCURVE",
"531 189 CURVE SMOOTH",
"531 57 OFFCURVE",
"419 -13 OFFCURVE",
"308 -13 CURVE SMOOTH",
"187 -13 OFFCURVE",
"91 54 OFFCURVE",
"91 159 CURVE SMOOTH",
"91 205 OFFCURVE",
"124 225 OFFCURVE",
"149 225 CURVE SMOOTH",
"179 225 OFFCURVE",
"204 202 OFFCURVE",
"204 174 CURVE SMOOTH",
"204 145 OFFCURVE",
"176 117 OFFCURVE",
"147 137 CURVE",
"147 97 OFFCURVE",
"205 37 OFFCURVE",
"309 37 CURVE SMOOTH",
"402 37 OFFCURVE",
"481 94 OFFCURVE",
"481 189 CURVE SMOOTH"
);
}
);
width = 600;
}
);
note = five;
unicode = 0035;
},
{
glyphname = six;
lastChange = "2018-05-04 08:01:45 +0000";
layers = (
{
layerId = "569BED38-A8F7-49CD-B9BC-3027C0528AF7";
paths = (
{
closed = 1;
nodes = (
"238 371 OFFCURVE",
"170 337 OFFCURVE",
"119 275 CURVE",
"118 282 OFFCURVE",
"118 290 OFFCURVE",
"118 297 CURVE SMOOTH",
"119 424 OFFCURVE",
"193 553 OFFCURVE",
"330 553 CURVE SMOOTH",
"418 553 OFFCURVE",
"447 513 OFFCURVE",
"453 483 CURVE",
"433 499 OFFCURVE",
"392 482 OFFCURVE",
"392 445 CURVE SMOOTH",
"392 413 OFFCURVE",
"416 396 OFFCURVE",
"444 396 CURVE SMOOTH",
"480 396 OFFCURVE",
"505 428 OFFCURVE",
"505 467 CURVE SMOOTH",
"505 538 OFFCURVE",
"448 603 OFFCURVE",
"330 603 CURVE SMOOTH",
"183 603 OFFCURVE",
"68 486 OFFCURVE",
"68 272 CURVE SMOOTH",
"68 104 OFFCURVE",
"152 -13 OFFCURVE",
"302 -13 CURVE SMOOTH",
"424 -13 OFFCURVE",
"521 68 OFFCURVE",
"521 185 CURVE SMOOTH",
"521 303 OFFCURVE",
"432 371 OFFCURVE",
"313 371 CURVE SMOOTH"
);
},
{
closed = 1;
nodes = (
"220 37 OFFCURVE",
"149 88 OFFCURVE",
"126 210 CURVE",
"174 283 OFFCURVE",
"242 321 OFFCURVE",
"313 321 CURVE SMOOTH",
"401 321 OFFCURVE",
"471 272 OFFCURVE",
"471 186 CURVE SMOOTH",
"471 95 OFFCURVE",
"393 37 OFFCURVE",
"302 37 CURVE SMOOTH"
);
}
);
width = 600;
}
);
note = six;
unicode = 0036;
},
{
glyphname = seven;
lastChange = "2018-05-04 08:01:45 +0000";
layers = (
{
layerId = "569BED38-A8F7-49CD-B9BC-3027C0528AF7";
paths = (
{
closed = 1;
nodes = (
"71 590 LINE",
"89 382 LINE",
"137 387 LINE",
"133 429 LINE",
"151 508 OFFCURVE",
"183 551 OFFCURVE",
"225 551 CURVE SMOOTH",
"284 551 OFFCURVE",
"333 510 OFFCURVE",
"407 510 CURVE SMOOTH",
"429 510 OFFCURVE",
"455 513 OFFCURVE",
"475 520 CURVE",
"423 382 OFFCURVE",
"255 312 OFFCURVE",
"255 118 CURVE SMOOTH",
"255 0 LINE",
"305 0 LINE",
"305 117 LINE SMOOTH",
"305 284 OFFCURVE",
"465 359 OFFCURVE",
"525 513 CURVE SMOOTH",
"549 575 LINE",
"502 595 LINE",
"484 574 OFFCURVE",
"442 561 OFFCURVE",
"407 561 CURVE SMOOTH",
"345 561 OFFCURVE",
"300 601 OFFCURVE",
"225 601 CURVE SMOOTH",
"186 601 OFFCURVE",
"145 582 OFFCURVE",
"125 521 CURVE",
"119 595 LINE"
);
}
);
width = 600;
}
);
note = seven;
unicode = 0037;
},
{
glyphname = eight;
lastChange = "2018-05-04 08:01:45 +0000";
layers = (
{
layerId = "569BED38-A8F7-49CD-B9BC-3027C0528AF7";
paths = (
{
closed = 1;
nodes = (
"76 68 OFFCURVE",
"176 -13 OFFCURVE",
"300 -13 CURVE SMOOTH",
"423 -13 OFFCURVE",
"523 68 OFFCURVE",
"523 171 CURVE SMOOTH",
"523 238 OFFCURVE",
"482 294 OFFCURVE",
"422 326 CURVE",
"470 356 OFFCURVE",
"494 402 OFFCURVE",
"494 449 CURVE SMOOTH",
"494 533 OFFCURVE",
"414 603 OFFCURVE",
"301 603 CURVE SMOOTH",
"187 603 OFFCURVE",
"107 533 OFFCURVE",
"107 449 CURVE SMOOTH",
"107 385 OFFCURVE",
"131 352 OFFCURVE",
"178 326 CURVE",
"117 294 OFFCURVE",
"76 237 OFFCURVE",
"76 171 CURVE SMOOTH"
);
},
{
closed = 1;
nodes = (
"155 505 OFFCURVE",
"213 554 OFFCURVE",
"299 553 CURVE SMOOTH",
"385 553 OFFCURVE",
"444 505 OFFCURVE",
"443 449 CURVE SMOOTH",
"442 392 OFFCURVE",
"385 346 OFFCURVE",
"299 346 CURVE SMOOTH",
"213 346 OFFCURVE",
"155 392 OFFCURVE",
"155 449 CURVE SMOOTH"
);
},
{
closed = 1;
nodes = (
"126 246 OFFCURVE",
"203 307 OFFCURVE",
"299 306 CURVE SMOOTH",
"395 305 OFFCURVE",
"473 246 OFFCURVE",
"472 169 CURVE SMOOTH",
"471 93 OFFCURVE",
"395 37 OFFCURVE",
"299 37 CURVE SMOOTH",
"203 37 OFFCURVE",
"126 93 OFFCURVE",
"126 169 CURVE SMOOTH"
);
}
);
width = 600;
}
);
note = eight;
unicode = 0038;
},
{
glyphname = nine;
lastChange = "2018-05-04 08:01:45 +0000";
layers = (
{
layerId = "569BED38-A8F7-49CD-B9BC-3027C0528AF7";
paths = (
{
closed = 1;
nodes = (
"168 602 OFFCURVE",
"71 521 OFFCURVE",
"71 404 CURVE SMOOTH",
"71 286 OFFCURVE",
"160 218 OFFCURVE",
"279 218 CURVE SMOOTH",
"354 218 OFFCURVE",
"422 252 OFFCURVE",
"473 314 CURVE",
"474 307 OFFCURVE",
"474 299 OFFCURVE",
"474 292 CURVE SMOOTH",
"473 165 OFFCURVE",
"399 36 OFFCURVE",
"262 36 CURVE SMOOTH",
"174 36 OFFCURVE",
"145 76 OFFCURVE",
"139 106 CURVE",
"159 90 OFFCURVE",
"200 107 OFFCURVE",
"200 144 CURVE SMOOTH",
"200 176 OFFCURVE",
"176 193 OFFCURVE",
"148 193 CURVE SMOOTH",
"112 193 OFFCURVE",
"87 161 OFFCURVE",
"87 122 CURVE SMOOTH",
"87 51 OFFCURVE",
"144 -14 OFFCURVE",
"262 -14 CURVE SMOOTH",
"409 -14 OFFCURVE",
"524 103 OFFCURVE",
"524 317 CURVE SMOOTH",
"524 485 OFFCURVE",
"440 602 OFFCURVE",
"290 602 CURVE SMOOTH"
);
},
{
closed = 1;
nodes = (
"191 268 OFFCURVE",
"121 317 OFFCURVE",
"121 403 CURVE SMOOTH",
"121 494 OFFCURVE",
"199 552 OFFCURVE",
"290 552 CURVE SMOOTH",
"372 552 OFFCURVE",
"443 501 OFFCURVE",
"466 379 CURVE",
"418 306 OFFCURVE",
"350 268 OFFCURVE",
"279 268 CURVE SMOOTH"
);
}
);
width = 600;
}
);
note = nine;
unicode = 0039;
},
{
glyphname = one.duo;
lastChange = "2018-05-04 08:01:45 +0000";
layers = (
{
layerId = "569BED38-A8F7-49CD-B9BC-3027C0528AF7";
paths = (
{
closed = 1;
nodes = (
"49 348 LINE",
"120 422 OFFCURVE",
"151 465 OFFCURVE",
"170 524 CURVE",
"170 50 LINE",
"49 50 LINE",
"49 0 LINE",
"286 0 LINE",
"286 50 LINE",
"220 50 LINE",
"220 590 LINE",
"150 590 LINE",
"129 518 OFFCURVE",
"72 438 OFFCURVE",
"14 380 CURVE"
);
}
);
width = 300;
}
);
note = one.duo;
},
{
glyphname = zero.osf;
lastChange = "2018-05-04 08:01:45 +0000";
layers = (
{
layerId = "569BED38-A8F7-49CD-B9BC-3027C0528AF7";
paths = (
{
closed = 1;
nodes = (
"52 83 OFFCURVE",
"147 -63 OFFCURVE",
"300 -63 CURVE SMOOTH",
"453 -63 OFFCURVE",
"547 73 OFFCURVE",
"547 215 CURVE SMOOTH",
"547 357 OFFCURVE",
"453 493 OFFCURVE",
"300 493 CURVE SMOOTH",
"147 493 OFFCURVE",
"52 347 OFFCURVE",
"52 215 CURVE SMOOTH"
);
},
{
closed = 1;
nodes = (
"496 104 OFFCURVE",
"418 -12 OFFCURVE",
"299 -13 CURVE SMOOTH",
"180 -14 OFFCURVE",
"102 114 OFFCURVE",
"102 215 CURVE SMOOTH",
"102 316 OFFCURVE",
"180 444 OFFCURVE",
"299 443 CURVE SMOOTH",
"418 442 OFFCURVE",
"498 326 OFFCURVE",
"497 215 CURVE SMOOTH"
);
}
);
width = 600;
}
);
note = zero.osf;
},
{
glyphname = one.osf;
lastChange = "2018-05-04 08:01:45 +0000";
layers = (
{
layerId = "569BED38-A8F7-49CD-B9BC-3027C0528AF7";
paths = (
{
closed = 1;
nodes = (
"111 203 LINE",
"123 210 OFFCURVE",
"151 225 OFFCURVE",
"181 248 CURVE SMOOTH",
"233 288 OFFCURVE",
"296 340 OFFCURVE",
"323 405 CURVE",
"323 0 LINE",
"97 0 LINE",
"97 -50 LINE",
"540 -50 LINE",
"540 0 LINE",
"373 0 LINE",
"373 480 LINE",
"306 480 LINE",
"284 411 OFFCURVE",
"204 331 OFFCURVE",
"150 288 CURVE SMOOTH",
"120 264 OFFCURVE",
"89 246 OFFCURVE",
"77 239 CURVE"
);
}
);
width = 600;
}
);
note = one.osf;
},
{
glyphname = two.osf;
lastChange = "2018-05-04 08:01:45 +0000";
layers = (
{
layerId = "569BED38-A8F7-49CD-B9BC-3027C0528AF7";
paths = (
{
closed = 1;
nodes = (
"67 -48 LINE",
"67 -26 LINE SMOOTH",
"67 99 OFFCURVE",
"129 175 OFFCURVE",
"247 213 CURVE SMOOTH",
"328 239 LINE SMOOTH",
"379 255 OFFCURVE",
"457 287 OFFCURVE",
"457 340 CURVE SMOOTH",
"457 422 OFFCURVE",
"368 443 OFFCURVE",
"299 443 CURVE SMOOTH",
"212 443 OFFCURVE",
"134 391 OFFCURVE",
"130 319 CURVE",
"81 326 LINE",
"81 424 OFFCURVE",
"192 493 OFFCURVE",
"299 493 CURVE SMOOTH",
"398 493 OFFCURVE",
"507 455 OFFCURVE",
"507 340 CURVE SMOOTH",
"507 260 OFFCURVE",
"435 221 OFFCURVE",
"365 199 CURVE SMOOTH",
"277 172 LINE SMOOTH",
"189 145 OFFCURVE",
"119 79 OFFCURVE",
"119 7 CURVE",
"144 35 OFFCURVE",
"183 46 OFFCURVE",
"218 46 CURVE SMOOTH",
"285 46 OFFCURVE",
"360 -13 OFFCURVE",
"417 -13 CURVE SMOOTH",
"500 -13 OFFCURVE",
"500 73 OFFCURVE",
"496 136 CURVE",
"545 130 LINE",
"550 3 OFFCURVE",
"517 -63 OFFCURVE",
"417 -63 CURVE SMOOTH",
"338 -63 OFFCURVE",
"279 -4 OFFCURVE",
"218 -4 CURVE SMOOTH",
"178 -4 OFFCURVE",
"139 -26 OFFCURVE",
"112 -55 CURVE"
);
}
);
width = 600;
}
);
note = two.osf;
},
{
glyphname = three.osf;
lastChange = "2018-05-04 08:01:45 +0000";
layers = (
{
layerId = "569BED38-A8F7-49CD-B9BC-3027C0528AF7";
paths = (
{
closed = 1;
nodes = (
"89 -173 LINE",
"284 -173 OFFCURVE",
"537 -82 OFFCURVE",
"537 92 CURVE SMOOTH",
"537 204 OFFCURVE",
"451 274 OFFCURVE",
"342 272 CURVE",
"498 443 LINE",
"498 493 LINE",
"123 493 LINE",
"79 302 LINE",
"129 297 LINE",
"164 443 LINE",
"430 443 LINE",
"236 232 LINE",
"272 196 LINE",
"295 219 LINE",
"370 245 OFFCURVE",
"487 206 OFFCURVE",
"487 93 CURVE SMOOTH",
"487 -36 OFFCURVE",
"268 -123 OFFCURVE",
"89 -123 CURVE"
);
}
);
width = 600;
}
);
note = three.osf;
},
{
glyphname = four.osf;
lastChange = "2018-05-04 08:01:45 +0000";
layers = (
{
layerId = "569BED38-A8F7-49CD-B9BC-3027C0528AF7";
paths = (
{
closed = 1;
nodes = (
"559 90 LINE",
"404 90 LINE",
"404 326 LINE",
"354 326 LINE",
"354 90 LINE",
"98 90 LINE",
"212 238 OFFCURVE",
"277 345 OFFCURVE",
"313 485 CURVE",
"265 494 LINE",
"219 337 OFFCURVE",
"155 246 OFFCURVE",
"35 90 CURVE",
"35 40 LINE",
"354 40 LINE",
"354 -173 LINE",
"404 -173 LINE",
"404 40 LINE",
"559 40 LINE"
);
}
);
width = 600;
}
);
note = four.osf;
},
{
glyphname = five.osf;
lastChange = "2018-05-04 08:01:45 +0000";
layers = (
{
layerId = "569BED38-A8F7-49CD-B9BC-3027C0528AF7";
paths = (
{
closed = 1;
nodes = (
"246 241 OFFCURVE",
"194 208 OFFCURVE",
"153 183 CURVE",
"107 208 LINE",
"149 493 LINE",
"499 493 LINE",
"499 443 LINE",
"192 443 LINE",
"163 245 LINE",
"200 265 OFFCURVE",
"239 291 OFFCURVE",
"321 291 CURVE SMOOTH",
"433 291 OFFCURVE",
"523 233 OFFCURVE",
"523 91 CURVE SMOOTH",
"523 -97 OFFCURVE",
"220 -173 OFFCURVE",
"75 -173 CURVE",
"75 -123 LINE",
"204 -123 OFFCURVE",
"473 -51 OFFCURVE",
"473 92 CURVE SMOOTH",
"473 202 OFFCURVE",
"399 241 OFFCURVE",
"321 241 CURVE SMOOTH"
);
}
);
width = 600;
}
);
note = five.osf;
},
{
glyphname = six.osf;
lastChange = "2018-05-04 08:01:45 +0000";
layers = (
{
layerId = "569BED38-A8F7-49CD-B9BC-3027C0528AF7";
paths = (
{
closed = 1;
nodes = (
"263 321 OFFCURVE",
"194 292 OFFCURVE",
"142 239 CURVE",
"176 410 OFFCURVE",
"384 553 OFFCURVE",
"530 553 CURVE",
"530 603 LINE",
"355 603 OFFCURVE",
"88 428 OFFCURVE",
"88 192 CURVE SMOOTH",
"88 29 OFFCURVE",
"189 -63 OFFCURVE",
"322 -63 CURVE SMOOTH",
"444 -63 OFFCURVE",
"531 18 OFFCURVE",
"531 125 CURVE SMOOTH",
"531 243 OFFCURVE",
"442 321 OFFCURVE",
"333 321 CURVE SMOOTH"
);
},
{
closed = 1;
nodes = (
"231 -13 OFFCURVE",
"150 50 OFFCURVE",
"138 163 CURVE",
"187 234 OFFCURVE",
"263 271 OFFCURVE",
"333 271 CURVE SMOOTH",
"411 271 OFFCURVE",
"481 212 OFFCURVE",
"481 126 CURVE SMOOTH",
"481 46 OFFCURVE",
"411 -13 OFFCURVE",
"322 -13 CURVE SMOOTH"
);
}
);
width = 600;
}
);
note = six.osf;
},
{
glyphname = seven.osf;
lastChange = "2018-05-04 08:01:45 +0000";
layers = (
{
layerId = "569BED38-A8F7-49CD-B9BC-3027C0528AF7";
paths = (
{
closed = 1;
nodes = (
"71 493 LINE",
"89 285 LINE",
"137 290 LINE",
"124 443 LINE",
"481 443 LINE",
"474 424 LINE SMOOTH",
"408 248 OFFCURVE",
"200 163 OFFCURVE",
"185 -87 CURVE SMOOTH",
"180 -173 LINE",
"230 -173 LINE",
"235 -88 LINE SMOOTH",
"248 133 OFFCURVE",
"452 225 OFFCURVE",
"525 416 CURVE SMOOTH",
"541 458 LINE",
"501 492 LINE"
);
}
);
width = 600;
}
);
note = seven.osf;
},
{
glyphname = eight.osf;
lastChange = "2018-05-04 08:01:45 +0000";
layers = (
{
layerId = "569BED38-A8F7-49CD-B9BC-3027C0528AF7";
paths = (
{
closed = 1;
nodes = (
"475 336 OFFCURVE",
"499 383 OFFCURVE",
"499 439 CURVE SMOOTH",
"499 533 OFFCURVE",
"419 603 OFFCURVE",
"301 603 CURVE SMOOTH",
"182 603 OFFCURVE",
"102 533 OFFCURVE",
"102 439 CURVE SMOOTH",
"102 366 OFFCURVE",
"126 332 OFFCURVE",
"173 306 CURVE",
"112 274 OFFCURVE",
"71 217 OFFCURVE",
"71 134 CURVE SMOOTH",
"71 14 OFFCURVE",
"171 -67 OFFCURVE",
"300 -67 CURVE SMOOTH",
"428 -67 OFFCURVE",
"528 14 OFFCURVE",
"528 134 CURVE SMOOTH",
"528 217 OFFCURVE",
"487 274 OFFCURVE",
"427 306 CURVE"
);
},
{
closed = 1;
nodes = (
"391 552 OFFCURVE",
"450 505 OFFCURVE",
"449 439 CURVE SMOOTH",
"448 372 OFFCURVE",
"391 326 OFFCURVE",
"300 326 CURVE SMOOTH",
"209 326 OFFCURVE",
"152 372 OFFCURVE",
"152 439 CURVE SMOOTH",
"152 505 OFFCURVE",
"209 554 OFFCURVE",
"301 553 CURVE SMOOTH"
);
},
{
closed = 1;
nodes = (
"198 -15 OFFCURVE",
"121 41 OFFCURVE",
"121 134 CURVE SMOOTH",
"121 228 OFFCURVE",
"198 287 OFFCURVE",
"299 286 CURVE SMOOTH",
"400 285 OFFCURVE",
"478 228 OFFCURVE",
"477 134 CURVE SMOOTH",
"476 41 OFFCURVE",
"400 -15 OFFCURVE",
"299 -15 CURVE SMOOTH"
);
}
);
width = 600;
}
);
note = eight.osf;
},
{
glyphname = nine.osf;
lastChange = "2018-05-04 08:01:45 +0000";
layers = (
{
layerId = "569BED38-A8F7-49CD-B9BC-3027C0528AF7";
paths = (
{
closed = 1;
nodes = (
"217 495 OFFCURVE",
"130 420 OFFCURVE",
"130 317 CURVE SMOOTH",
"130 203 OFFCURVE",
"219 131 OFFCURVE",
"328 131 CURVE SMOOTH",
"402 131 OFFCURVE",
"483 169 OFFCURVE",
"524 232 CURVE",
"516 53 OFFCURVE",
"287 -71 OFFCURVE",
"131 -71 CURVE",
"131 -121 LINE",
"306 -121 OFFCURVE",
"573 11 OFFCURVE",
"573 240 CURVE SMOOTH",
"573 403 OFFCURVE",
"472 495 OFFCURVE",
"339 495 CURVE SMOOTH"
);
},
{
closed = 1;
nodes = (
"248 181 OFFCURVE",
"180 232 OFFCURVE",
"180 316 CURVE SMOOTH",
"180 394 OFFCURVE",
"248 446 OFFCURVE",
"339 446 CURVE SMOOTH",
"427 446 OFFCURVE",
"498 398 OFFCURVE",
"518 300 CURVE",
"479 230 OFFCURVE",
"396 181 OFFCURVE",
"328 181 CURVE SMOOTH"
);
}
);
width = 600;
}
);
note = nine.osf;
},
{
glyphname = one.osf.duo;
lastChange = "2018-05-04 08:01:45 +0000";
layers = (
{
layerId = "569BED38-A8F7-49CD-B9BC-3027C0528AF7";
paths = (
{
closed = 1;
nodes = (
"20 360 LINE",
"75 402 OFFCURVE",
"162 521 OFFCURVE",
"186 590 CURVE",
"256 590 LINE",
"256 0 LINE",
"206 0 LINE",
"206 515 LINE",
"177 450 OFFCURVE",
"105 361 OFFCURVE",
"54 323 CURVE"
);
}
);
width = 300;
}
);
note = one.osf.duo;
},
{
glyphname = zero.dnom;
lastChange = "2018-05-30 12:48:14 +0000";
layers = (
{
layerId = "569BED38-A8F7-49CD-B9BC-3027C0528AF7";
paths = (
{
closed = 1;
nodes = (
"218 316 OFFCURVE",
"272 380 OFFCURVE",
"272 460 CURVE SMOOTH",
"272 539 OFFCURVE",
"218 603 OFFCURVE",
"149 603 CURVE SMOOTH",
"79 603 OFFCURVE",
"25 539 OFFCURVE",
"25 460 CURVE SMOOTH",
"25 380 OFFCURVE",
"79 316 OFFCURVE",
"149 316 CURVE SMOOTH"
);
},
{
closed = 1;
nodes = (
"97 354 OFFCURVE",
"63 402 OFFCURVE",
"63 460 CURVE SMOOTH",
"63 518 OFFCURVE",
"97 565 OFFCURVE",
"148 565 CURVE SMOOTH",
"199 565 OFFCURVE",
"234 518 OFFCURVE",
"234 460 CURVE SMOOTH",
"234 402 OFFCURVE",
"199 354 OFFCURVE",
"148 354 CURVE SMOOTH"
);
}
);
width = 600;
}
);
note = zero.dnom;
},
{
glyphname = one.dnom;
lastChange = "2018-05-30 12:48:18 +0000";
layers = (
{
layerId = "569BED38-A8F7-49CD-B9BC-3027C0528AF7";
paths = (
{
closed = 1;
nodes = (
"181 590 LINE",
"138 590 LINE",
"109 532 OFFCURVE",
"83 500 OFFCURVE",
"25 456 CURVE",
"47 431 LINE",
"102 469 OFFCURVE",
"120 486 OFFCURVE",
"144 525 CURVE",
"144 360 LINE",
"45 360 LINE",
"45 323 LINE",
"249 323 LINE",
"249 360 LINE",
"181 360 LINE"
);
}
);
width = 600;
}
);
note = one.dnom;
},
{
glyphname = two.dnom;
lastChange = "2018-05-30 12:48:21 +0000";
layers = (
{
layerId = "569BED38-A8F7-49CD-B9BC-3027C0528AF7";
paths = (
{
closed = 1;
nodes = (
"25 334 LINE",
"25 418 OFFCURVE",
"60 433 OFFCURVE",
"110 453 CURVE SMOOTH",
"162 474 LINE SMOOTH",
"187 484 OFFCURVE",
"203 501 OFFCURVE",
"203 524 CURVE SMOOTH",
"203 547 OFFCURVE",
"175 565 OFFCURVE",
"142 565 CURVE SMOOTH",
"99 565 OFFCURVE",
"78 549 OFFCURVE",
"77 532 CURVE",
"92 536 OFFCURVE",
"111 525 OFFCURVE",
"111 504 CURVE SMOOTH",
"111 486 OFFCURVE",
"98 474 OFFCURVE",
"76 474 CURVE SMOOTH",
"54 474 OFFCURVE",
"36 495 OFFCURVE",
"36 522 CURVE SMOOTH",
"36 570 OFFCURVE",
"85 603 OFFCURVE",
"142 603 CURVE SMOOTH",
"191 603 OFFCURVE",
"241 573 OFFCURVE",
"241 525 CURVE SMOOTH",
"241 477 OFFCURVE",
"207 451 OFFCURVE",
"173 437 CURVE SMOOTH",
"124 417 LINE SMOOTH",
"90 403 OFFCURVE",
"65 398 OFFCURVE",
"65 363 CURVE",
"77 372 OFFCURVE",
"92 379 OFFCURVE",
"117 379 CURVE SMOOTH",
"152 379 OFFCURVE",
"158 354 OFFCURVE",
"196 354 CURVE SMOOTH",
"220 354 OFFCURVE",
"225 375 OFFCURVE",
"220 414 CURVE",
"258 414 LINE",
"262 343 OFFCURVE",
"237 316 OFFCURVE",
"196 316 CURVE SMOOTH",
"147 316 OFFCURVE",
"152 341 OFFCURVE",
"117 341 CURVE SMOOTH",
"97 341 OFFCURVE",
"78 331 OFFCURVE",
"59 316 CURVE"
);
}
);
width = 600;
}
);
note = two.dnom;
},
{
glyphname = three.dnom;
lastChange = "2018-05-30 12:48:25 +0000";
layers = (
{
layerId = "569BED38-A8F7-49CD-B9BC-3027C0528AF7";
paths = (
{
closed = 1;
nodes = (
"178 500 LINE",
"209 500 OFFCURVE",
"257 471 OFFCURVE",
"257 413 CURVE SMOOTH",
"257 343 OFFCURVE",
"192 314 OFFCURVE",
"139 314 CURVE SMOOTH",
"79 314 OFFCURVE",
"25 348 OFFCURVE",
"25 393 CURVE SMOOTH",
"25 414 OFFCURVE",
"38 433 OFFCURVE",
"60 433 CURVE SMOOTH",
"79 433 OFFCURVE",
"91 422 OFFCURVE",
"91 405 CURVE SMOOTH",
"91 388 OFFCURVE",
"74 379 OFFCURVE",
"65 383 CURVE",
"72 367 OFFCURVE",
"87 352 OFFCURVE",
"139 352 CURVE SMOOTH",
"174 352 OFFCURVE",
"219 367 OFFCURVE",
"219 413 CURVE SMOOTH",
"219 455 OFFCURVE",
"182 473 OFFCURVE",
"139 467 CURVE",
"118 449 LINE",
"90 472 LINE",
"189 552 LINE",
"75 552 LINE",
"63 498 LINE",
"25 503 LINE",
"44 590 LINE",
"249 590 LINE",
"249 563 LINE"
);
}
);
width = 600;
}
);
note = three.dnom;
},
{
glyphname = four.dnom;
lastChange = "2018-05-30 12:48:30 +0000";
layers = (
{
layerId = "569BED38-A8F7-49CD-B9BC-3027C0528AF7";
paths = (
{
closed = 1;
nodes = (
"290 425 LINE",
"227 425 LINE",
"227 521 LINE",
"189 521 LINE",
"188 425 LINE",
"77 425 LINE",
"131 480 OFFCURVE",
"162 527 OFFCURVE",
"179 595 CURVE",
"142 603 LINE",
"119 525 OFFCURVE",
"84 482 OFFCURVE",
"25 425 CURVE",
"25 387 LINE",
"188 387 LINE",
"187 320 LINE",
"226 320 LINE",
"226 387 LINE",
"290 387 LINE"
);
}
);
width = 600;
}
);
note = four.dnom;
},
{
glyphname = five.dnom;
lastChange = "2018-05-30 12:48:34 +0000";
layers = (
{
layerId = "569BED38-A8F7-49CD-B9BC-3027C0528AF7";
paths = (
{
closed = 1;
nodes = (
"202 454 OFFCURVE",
"166 473 OFFCURVE",
"139 473 CURVE SMOOTH",
"111 473 OFFCURVE",
"88 463 OFFCURVE",
"69 452 CURVE",
"37 468 LINE",
"48 590 LINE",
"221 590 LINE",
"221 552 LINE",
"81 552 LINE",
"75 494 LINE",
"86 505 OFFCURVE",
"113 511 OFFCURVE",
"140 511 CURVE SMOOTH",
"195 511 OFFCURVE",
"240 470 OFFCURVE",
"240 412 CURVE SMOOTH",
"240 353 OFFCURVE",
"183 316 OFFCURVE",
"131 316 CURVE SMOOTH",
"75 316 OFFCURVE",
"25 345 OFFCURVE",
"25 389 CURVE SMOOTH",
"25 411 OFFCURVE",
"38 428 OFFCURVE",
"56 428 CURVE SMOOTH",
"73 428 OFFCURVE",
"86 419 OFFCURVE",
"86 402 CURVE SMOOTH",
"86 385 OFFCURVE",
"74 377 OFFCURVE",
"63 379 CURVE",
"66 371 OFFCURVE",
"84 354 OFFCURVE",
"131 354 CURVE SMOOTH",
"161 354 OFFCURVE",
"202 372 OFFCURVE",
"202 412 CURVE SMOOTH"
);
}
);
width = 600;
}
);
note = five.dnom;
},
{
glyphname = six.dnom;
lastChange = "2018-05-30 12:48:37 +0000";
layers = (
{
layerId = "569BED38-A8F7-49CD-B9BC-3027C0528AF7";
paths = (
{
closed = 1;
nodes = (
"108 495 OFFCURVE",
"84 485 OFFCURVE",
"63 465 CURVE",
"67 526 OFFCURVE",
"100 565 OFFCURVE",
"148 565 CURVE SMOOTH",
"168 565 OFFCURVE",
"184 559 OFFCURVE",
"194 549 CURVE",
"186 552 OFFCURVE",
"173 542 OFFCURVE",
"173 528 CURVE SMOOTH",
"173 514 OFFCURVE",
"188 505 OFFCURVE",
"200 505 CURVE SMOOTH",
"216 505 OFFCURVE",
"229 521 OFFCURVE",
"229 540 CURVE SMOOTH",
"229 574 OFFCURVE",
"194 603 OFFCURVE",
"148 603 CURVE SMOOTH",
"80 603 OFFCURVE",
"25 544 OFFCURVE",
"25 448 CURVE SMOOTH",
"25 370 OFFCURVE",
"70 317 OFFCURVE",
"136 317 CURVE SMOOTH",
"192 317 OFFCURVE",
"238 355 OFFCURVE",
"238 407 CURVE SMOOTH",
"238 465 OFFCURVE",
"193 495 OFFCURVE",
"136 495 CURVE SMOOTH"
);
},
{
closed = 1;
nodes = (
"104 355 OFFCURVE",
"74 369 OFFCURVE",
"65 419 CURVE",
"85 443 OFFCURVE",
"110 457 OFFCURVE",
"136 457 CURVE SMOOTH",
"174 457 OFFCURVE",
"200 437 OFFCURVE",
"200 408 CURVE SMOOTH",
"200 378 OFFCURVE",
"174 355 OFFCURVE",
"136 355 CURVE SMOOTH"
);
}
);
width = 600;
}
);
note = six.dnom;
},
{
glyphname = seven.dnom;
lastChange = "2018-05-30 12:48:42 +0000";
layers = (
{
layerId = "569BED38-A8F7-49CD-B9BC-3027C0528AF7";
paths = (
{
closed = 1;
nodes = (
"243 599 LINE",
"235 589 OFFCURVE",
"216 583 OFFCURVE",
"199 583 CURVE SMOOTH",
"172 583 OFFCURVE",
"150 603 OFFCURVE",
"116 603 CURVE SMOOTH",
"99 603 OFFCURVE",
"79 595 OFFCURVE",
"63 581 CURVE",
"60 602 LINE",
"25 598 LINE",
"41 501 LINE",
"76 505 LINE",
"75 512 LINE SMOOTH",
"70 547 OFFCURVE",
"94 565 OFFCURVE",
"116 565 CURVE SMOOTH",
"143 565 OFFCURVE",
"166 545 OFFCURVE",
"199 545 CURVE SMOOTH",
"208 545 OFFCURVE",
"217 547 OFFCURVE",
"225 551 CURVE",
"197 493 OFFCURVE",
"130 442 OFFCURVE",
"130 360 CURVE SMOOTH",
"130 327 LINE",
"168 327 LINE",
"168 360 LINE SMOOTH",
"168 436 OFFCURVE",
"240 484 OFFCURVE",
"269 555 CURVE SMOOTH",
"280 582 LINE"
);
}
);
width = 600;
}
);
note = seven.dnom;
},
{
glyphname = eight.dnom;
lastChange = "2018-05-30 12:48:50 +0000";
layers = (
{
layerId = "569BED38-A8F7-49CD-B9BC-3027C0528AF7";
paths = (
{
closed = 1;
nodes = (
"25 344 OFFCURVE",
"76 317 OFFCURVE",
"132 317 CURVE SMOOTH",
"188 317 OFFCURVE",
"238 344 OFFCURVE",
"238 402 CURVE SMOOTH",
"238 442 OFFCURVE",
"205 466 OFFCURVE",
"188 473 CURVE",
"206 480 OFFCURVE",
"225 495 OFFCURVE",
"225 529 CURVE SMOOTH",
"225 567 OFFCURVE",
"193 603 OFFCURVE",
"133 603 CURVE SMOOTH",
"70 603 OFFCURVE",
"38 568 OFFCURVE",
"38 529 CURVE SMOOTH",
"38 495 OFFCURVE",
"63 477 OFFCURVE",
"77 473 CURVE",
"57 466 OFFCURVE",
"25 442 OFFCURVE",
"25 402 CURVE SMOOTH"
);
},
{
closed = 1;
nodes = (
"76 549 OFFCURVE",
"96 565 OFFCURVE",
"132 565 CURVE SMOOTH",
"168 565 OFFCURVE",
"187 549 OFFCURVE",
"187 529 CURVE SMOOTH",
"187 507 OFFCURVE",
"168 491 OFFCURVE",
"132 491 CURVE SMOOTH",
"96 491 OFFCURVE",
"76 507 OFFCURVE",
"76 529 CURVE SMOOTH"
);
},
{
closed = 1;
nodes = (
"63 430 OFFCURVE",
"93 453 OFFCURVE",
"132 453 CURVE SMOOTH",
"170 453 OFFCURVE",
"201 430 OFFCURVE",
"200 402 CURVE SMOOTH",
"199 369 OFFCURVE",
"170 355 OFFCURVE",
"132 355 CURVE SMOOTH",
"93 355 OFFCURVE",
"63 373 OFFCURVE",
"63 402 CURVE SMOOTH"
);
}
);
width = 600;
}
);
note = eight.dnom;
},
{
glyphname = nine.dnom;
lastChange = "2018-05-30 12:48:54 +0000";
layers = (
{
layerId = "569BED38-A8F7-49CD-B9BC-3027C0528AF7";
paths = (
{
closed = 1;
nodes = (
"71 602 OFFCURVE",
"25 564 OFFCURVE",
"25 512 CURVE SMOOTH",
"25 454 OFFCURVE",
"70 424 OFFCURVE",
"127 424 CURVE SMOOTH",
"155 424 OFFCURVE",
"179 434 OFFCURVE",
"200 454 CURVE",
"196 393 OFFCURVE",
"163 354 OFFCURVE",
"115 354 CURVE SMOOTH",
"95 354 OFFCURVE",
"79 360 OFFCURVE",
"69 370 CURVE",
"77 367 OFFCURVE",
"90 377 OFFCURVE",
"90 391 CURVE SMOOTH",
"90 405 OFFCURVE",
"75 414 OFFCURVE",
"63 414 CURVE SMOOTH",
"47 414 OFFCURVE",
"34 398 OFFCURVE",
"34 379 CURVE SMOOTH",
"34 345 OFFCURVE",
"69 316 OFFCURVE",
"115 316 CURVE SMOOTH",
"183 316 OFFCURVE",
"238 375 OFFCURVE",
"238 471 CURVE SMOOTH",
"238 549 OFFCURVE",
"193 602 OFFCURVE",
"127 602 CURVE SMOOTH"
);
},
{
closed = 1;
nodes = (
"89 462 OFFCURVE",
"63 482 OFFCURVE",
"63 511 CURVE SMOOTH",
"63 541 OFFCURVE",
"89 564 OFFCURVE",
"127 564 CURVE SMOOTH",
"159 564 OFFCURVE",
"189 550 OFFCURVE",
"198 500 CURVE",
"178 476 OFFCURVE",
"153 462 OFFCURVE",
"127 462 CURVE SMOOTH"
);
}
);
width = 600;
}
);
note = nine.dnom;
},
{
glyphname = zero.numr;
lastChange = "2018-05-30 12:49:26 +0000";
layers = (
{
layerId = "569BED38-A8F7-49CD-B9BC-3027C0528AF7";
paths = (
{
closed = 1;
nodes = (
"218 -13 OFFCURVE",
"272 51 OFFCURVE",
"272 131 CURVE SMOOTH",
"272 210 OFFCURVE",
"218 274 OFFCURVE",
"149 274 CURVE SMOOTH",
"79 274 OFFCURVE",
"25 210 OFFCURVE",
"25 131 CURVE SMOOTH",
"25 51 OFFCURVE",
"79 -13 OFFCURVE",
"149 -13 CURVE SMOOTH"
);
},
{
closed = 1;
nodes = (
"97 25 OFFCURVE",
"63 73 OFFCURVE",
"63 131 CURVE SMOOTH",
"63 189 OFFCURVE",
"97 236 OFFCURVE",
"148 236 CURVE SMOOTH",
"199 236 OFFCURVE",
"234 189 OFFCURVE",
"234 131 CURVE SMOOTH",
"234 73 OFFCURVE",
"199 25 OFFCURVE",
"148 25 CURVE SMOOTH"
);
}
);
width = 600;
}
);
note = zero.numr;
},
{
glyphname = one.numr;
lastChange = "2018-05-30 12:49:31 +0000";
layers = (
{
layerId = "569BED38-A8F7-49CD-B9BC-3027C0528AF7";
paths = (
{
closed = 1;
nodes = (
"181 267 LINE",
"138 267 LINE",
"109 209 OFFCURVE",
"83 177 OFFCURVE",
"25 133 CURVE",
"47 108 LINE",
"102 146 OFFCURVE",
"120 163 OFFCURVE",
"144 202 CURVE",
"144 37 LINE",
"45 37 LINE",
"45 0 LINE",
"249 0 LINE",
"249 37 LINE",
"181 37 LINE"
);
}
);
width = 600;
}
);
note = one.numr;
},
{
glyphname = two.numr;
lastChange = "2018-05-30 12:49:39 +0000";
layers = (
{
layerId = "569BED38-A8F7-49CD-B9BC-3027C0528AF7";
paths = (
{
closed = 1;
nodes = (
"25 5 LINE",
"25 89 OFFCURVE",
"60 104 OFFCURVE",
"110 124 CURVE SMOOTH",
"162 145 LINE SMOOTH",
"187 155 OFFCURVE",
"203 172 OFFCURVE",
"203 195 CURVE SMOOTH",
"203 218 OFFCURVE",
"175 236 OFFCURVE",
"142 236 CURVE SMOOTH",
"99 236 OFFCURVE",
"78 220 OFFCURVE",
"77 203 CURVE",
"92 207 OFFCURVE",
"111 196 OFFCURVE",
"111 175 CURVE SMOOTH",
"111 157 OFFCURVE",
"98 145 OFFCURVE",
"76 145 CURVE SMOOTH",
"54 145 OFFCURVE",
"36 166 OFFCURVE",
"36 193 CURVE SMOOTH",
"36 241 OFFCURVE",
"85 274 OFFCURVE",
"142 274 CURVE SMOOTH",
"191 274 OFFCURVE",
"241 244 OFFCURVE",
"241 196 CURVE SMOOTH",
"241 148 OFFCURVE",
"207 122 OFFCURVE",
"173 108 CURVE SMOOTH",
"124 88 LINE SMOOTH",
"90 74 OFFCURVE",
"65 69 OFFCURVE",
"65 34 CURVE",
"77 43 OFFCURVE",
"92 50 OFFCURVE",
"117 50 CURVE SMOOTH",
"152 50 OFFCURVE",
"158 25 OFFCURVE",
"196 25 CURVE SMOOTH",
"220 25 OFFCURVE",
"225 46 OFFCURVE",
"220 85 CURVE",
"258 85 LINE",
"262 14 OFFCURVE",
"237 -13 OFFCURVE",
"196 -13 CURVE SMOOTH",
"147 -13 OFFCURVE",
"152 12 OFFCURVE",
"117 12 CURVE SMOOTH",
"97 12 OFFCURVE",
"78 2 OFFCURVE",
"59 -13 CURVE"
);
}
);
width = 600;
}
);
note = two.numr;
},
{
glyphname = three.numr;
lastChange = "2018-05-30 12:49:45 +0000";
layers = (
{
layerId = "569BED38-A8F7-49CD-B9BC-3027C0528AF7";
paths = (
{
closed = 1;
nodes = (
"178 173 LINE",
"209 173 OFFCURVE",
"257 144 OFFCURVE",
"257 86 CURVE SMOOTH",
"257 16 OFFCURVE",
"192 -13 OFFCURVE",
"139 -13 CURVE SMOOTH",
"79 -13 OFFCURVE",
"25 21 OFFCURVE",
"25 66 CURVE SMOOTH",
"25 87 OFFCURVE",
"38 106 OFFCURVE",
"60 106 CURVE SMOOTH",
"79 106 OFFCURVE",
"91 95 OFFCURVE",
"91 78 CURVE SMOOTH",
"91 61 OFFCURVE",
"74 52 OFFCURVE",
"65 56 CURVE",
"72 40 OFFCURVE",
"87 25 OFFCURVE",
"139 25 CURVE SMOOTH",
"174 25 OFFCURVE",
"219 40 OFFCURVE",
"219 86 CURVE SMOOTH",
"219 128 OFFCURVE",
"182 146 OFFCURVE",
"139 140 CURVE",
"118 122 LINE",
"90 145 LINE",
"189 225 LINE",
"75 225 LINE",
"63 171 LINE",
"25 176 LINE",
"44 263 LINE",
"249 263 LINE",
"249 236 LINE"
);
}
);
width = 600;
}
);
note = three.numr;
},
{
glyphname = four.numr;
lastChange = "2018-05-30 12:49:54 +0000";
layers = (
{
layerId = "569BED38-A8F7-49CD-B9BC-3027C0528AF7";
paths = (
{
closed = 1;
nodes = (
"290 62 LINE",
"226 62 LINE",
"227 188 LINE",
"189 188 LINE",
"188 62 LINE",
"73 62 LINE",
"130 136 OFFCURVE",
"161 192 OFFCURVE",
"179 262 CURVE",
"142 270 LINE",
"119 192 OFFCURVE",
"84 139 OFFCURVE",
"25 62 CURVE",
"25 24 LINE",
"187 24 LINE",
"187 -13 LINE",
"226 -13 LINE",
"226 24 LINE",
"290 24 LINE"
);
}
);
width = 600;
}
);
note = four.numr;
},
{
glyphname = five.numr;
lastChange = "2018-07-05 08:12:45 +0000";
layers = (
{
layerId = "569BED38-A8F7-49CD-B9BC-3027C0528AF7";
paths = (
{
closed = 1;
nodes = (
"202 125 OFFCURVE",
"166 144 OFFCURVE",
"139 144 CURVE SMOOTH",
"111 144 OFFCURVE",
"88 134 OFFCURVE",
"69 123 CURVE",
"37 139 LINE",
"48 261 LINE",
"221 261 LINE",
"221 223 LINE",
"81 223 LINE",
"75 165 LINE",
"86 176 OFFCURVE",
"113 182 OFFCURVE",
"140 182 CURVE SMOOTH",
"195 182 OFFCURVE",
"240 141 OFFCURVE",
"240 83 CURVE SMOOTH",
"240 24 OFFCURVE",
"183 -13 OFFCURVE",
"131 -13 CURVE SMOOTH",
"75 -13 OFFCURVE",
"25 16 OFFCURVE",
"25 60 CURVE SMOOTH",
"25 82 OFFCURVE",
"38 99 OFFCURVE",
"56 99 CURVE SMOOTH",
"73 99 OFFCURVE",
"86 90 OFFCURVE",
"86 73 CURVE SMOOTH",
"86 56 OFFCURVE",
"74 48 OFFCURVE",
"63 50 CURVE",
"66 42 OFFCURVE",
"84 25 OFFCURVE",
"131 25 CURVE SMOOTH",
"161 25 OFFCURVE",
"202 43 OFFCURVE",
"202 83 CURVE SMOOTH"
);
}
);
width = 600;
}
);
note = five.numr;
},
{
glyphname = six.numr;
lastChange = "2018-05-30 12:50:07 +0000";
layers = (
{
layerId = "569BED38-A8F7-49CD-B9BC-3027C0528AF7";
paths = (
{
closed = 1;
nodes = (
"108 166 OFFCURVE",
"84 156 OFFCURVE",
"63 136 CURVE",
"67 197 OFFCURVE",
"100 236 OFFCURVE",
"148 236 CURVE SMOOTH",
"168 236 OFFCURVE",
"184 230 OFFCURVE",
"194 220 CURVE",
"186 223 OFFCURVE",
"173 213 OFFCURVE",
"173 199 CURVE SMOOTH",
"173 185 OFFCURVE",
"188 176 OFFCURVE",
"200 176 CURVE SMOOTH",
"216 176 OFFCURVE",
"229 192 OFFCURVE",
"229 211 CURVE SMOOTH",
"229 245 OFFCURVE",
"194 274 OFFCURVE",
"148 274 CURVE SMOOTH",
"80 274 OFFCURVE",
"25 215 OFFCURVE",
"25 119 CURVE SMOOTH",
"25 41 OFFCURVE",
"70 -12 OFFCURVE",
"136 -12 CURVE SMOOTH",
"192 -12 OFFCURVE",
"238 26 OFFCURVE",
"238 78 CURVE SMOOTH",
"238 136 OFFCURVE",
"193 166 OFFCURVE",
"136 166 CURVE SMOOTH"
);
},
{
closed = 1;
nodes = (
"104 26 OFFCURVE",
"74 40 OFFCURVE",
"65 90 CURVE",
"85 114 OFFCURVE",
"110 128 OFFCURVE",
"136 128 CURVE SMOOTH",
"174 128 OFFCURVE",
"200 108 OFFCURVE",
"200 79 CURVE SMOOTH",
"200 49 OFFCURVE",
"174 26 OFFCURVE",
"136 26 CURVE SMOOTH"
);
}
);
width = 600;
}
);
note = six.numr;
},
{
glyphname = seven.numr;
lastChange = "2018-05-30 12:50:15 +0000";
layers = (
{
layerId = "569BED38-A8F7-49CD-B9BC-3027C0528AF7";
paths = (
{
closed = 1;
nodes = (
"237 259 LINE",
"229 249 OFFCURVE",
"210 243 OFFCURVE",
"193 243 CURVE SMOOTH",
"166 243 OFFCURVE",
"144 263 OFFCURVE",
"110 263 CURVE SMOOTH",
"94 263 OFFCURVE",
"75 259 OFFCURVE",
"63 241 CURVE",
"62 259 LINE",
"25 256 LINE",
"33 161 LINE",
"70 165 LINE",
"68 193 LINE",
"78 217 OFFCURVE",
"94 225 OFFCURVE",
"110 225 CURVE SMOOTH",
"137 225 OFFCURVE",
"160 205 OFFCURVE",
"193 205 CURVE SMOOTH",
"202 205 OFFCURVE",
"211 207 OFFCURVE",
"219 211 CURVE",
"191 153 OFFCURVE",
"124 102 OFFCURVE",
"124 20 CURVE SMOOTH",
"124 -13 LINE",
"162 -13 LINE",
"162 20 LINE SMOOTH",
"162 96 OFFCURVE",
"234 144 OFFCURVE",
"263 215 CURVE SMOOTH",
"274 242 LINE"
);
},
{
closed = 1;
nodes = (
"52 170 LINE",
"53 170 LINE"
);
}
);
width = 600;
}
);
note = seven.numr;
},
{
glyphname = eight.numr;
lastChange = "2018-05-30 12:50:18 +0000";
layers = (
{
layerId = "569BED38-A8F7-49CD-B9BC-3027C0528AF7";
paths = (
{
closed = 1;
nodes = (
"25 14 OFFCURVE",
"76 -13 OFFCURVE",
"132 -13 CURVE SMOOTH",
"188 -13 OFFCURVE",
"238 14 OFFCURVE",
"238 72 CURVE SMOOTH",
"238 112 OFFCURVE",
"205 136 OFFCURVE",
"188 143 CURVE",
"206 150 OFFCURVE",
"225 165 OFFCURVE",
"225 199 CURVE SMOOTH",
"225 237 OFFCURVE",
"193 273 OFFCURVE",
"133 273 CURVE SMOOTH",
"70 273 OFFCURVE",
"38 238 OFFCURVE",
"38 199 CURVE SMOOTH",
"38 165 OFFCURVE",
"63 147 OFFCURVE",
"77 143 CURVE",
"57 136 OFFCURVE",
"25 112 OFFCURVE",
"25 72 CURVE SMOOTH"
);
},
{
closed = 1;
nodes = (
"76 219 OFFCURVE",
"96 235 OFFCURVE",
"132 235 CURVE SMOOTH",
"168 235 OFFCURVE",
"187 219 OFFCURVE",
"187 199 CURVE SMOOTH",
"187 177 OFFCURVE",
"168 161 OFFCURVE",
"132 161 CURVE SMOOTH",
"96 161 OFFCURVE",
"76 177 OFFCURVE",
"76 199 CURVE SMOOTH"
);
},
{
closed = 1;
nodes = (
"63 100 OFFCURVE",
"93 123 OFFCURVE",
"132 123 CURVE SMOOTH",
"170 123 OFFCURVE",
"201 100 OFFCURVE",
"200 72 CURVE SMOOTH",
"199 39 OFFCURVE",
"170 25 OFFCURVE",
"132 25 CURVE SMOOTH",
"93 25 OFFCURVE",
"63 43 OFFCURVE",
"63 72 CURVE SMOOTH"
);
}
);
width = 600;
}
);
note = eight.numr;
},
{
glyphname = nine.numr;
lastChange = "2018-05-30 12:50:22 +0000";
layers = (
{
layerId = "569BED38-A8F7-49CD-B9BC-3027C0528AF7";
paths = (
{
closed = 1;
nodes = (
"71 273 OFFCURVE",
"25 235 OFFCURVE",
"25 183 CURVE SMOOTH",
"25 125 OFFCURVE",
"70 95 OFFCURVE",
"127 95 CURVE SMOOTH",
"155 95 OFFCURVE",
"179 105 OFFCURVE",
"200 125 CURVE",
"196 64 OFFCURVE",
"163 25 OFFCURVE",
"115 25 CURVE SMOOTH",
"95 25 OFFCURVE",
"79 31 OFFCURVE",
"69 41 CURVE",
"77 38 OFFCURVE",
"90 48 OFFCURVE",
"90 62 CURVE SMOOTH",
"90 76 OFFCURVE",
"75 85 OFFCURVE",
"63 85 CURVE SMOOTH",
"47 85 OFFCURVE",
"34 69 OFFCURVE",
"34 50 CURVE SMOOTH",
"34 16 OFFCURVE",
"69 -13 OFFCURVE",
"115 -13 CURVE SMOOTH",
"183 -13 OFFCURVE",
"238 46 OFFCURVE",
"238 142 CURVE SMOOTH",
"238 220 OFFCURVE",
"193 273 OFFCURVE",
"127 273 CURVE SMOOTH"
);
},
{
closed = 1;
nodes = (
"89 133 OFFCURVE",
"63 153 OFFCURVE",
"63 182 CURVE SMOOTH",
"63 212 OFFCURVE",
"89 235 OFFCURVE",
"127 235 CURVE SMOOTH",
"159 235 OFFCURVE",
"189 221 OFFCURVE",
"198 171 CURVE",
"178 147 OFFCURVE",
"153 133 OFFCURVE",
"127 133 CURVE SMOOTH"
);
}
);
width = 600;
}
);
note = nine.numr;
},
{
glyphname = uni00B9;
lastChange = "2018-05-30 12:51:11 +0000";
layers = (
{
layerId = "569BED38-A8F7-49CD-B9BC-3027C0528AF7";
paths = (
{
closed = 1;
nodes = (
"181 590 LINE",
"138 590 LINE",
"109 532 OFFCURVE",
"83 500 OFFCURVE",
"25 456 CURVE",
"47 431 LINE",
"102 469 OFFCURVE",
"120 486 OFFCURVE",
"144 525 CURVE",
"144 360 LINE",
"45 360 LINE",
"45 323 LINE",
"249 323 LINE",
"249 360 LINE",
"181 360 LINE"
);
}
);
width = 600;
}
);
note = uni00B9;
unicode = 00B9;
},
{
glyphname = uni00B2;
lastChange = "2018-05-30 12:51:02 +0000";
layers = (
{
layerId = "569BED38-A8F7-49CD-B9BC-3027C0528AF7";
paths = (
{
closed = 1;
nodes = (
"25 334 LINE",
"25 418 OFFCURVE",
"60 433 OFFCURVE",
"110 453 CURVE SMOOTH",
"162 474 LINE SMOOTH",
"187 484 OFFCURVE",
"203 501 OFFCURVE",
"203 524 CURVE SMOOTH",
"203 547 OFFCURVE",
"175 565 OFFCURVE",
"142 565 CURVE SMOOTH",
"99 565 OFFCURVE",
"78 549 OFFCURVE",
"77 532 CURVE",
"92 536 OFFCURVE",
"111 525 OFFCURVE",
"111 504 CURVE SMOOTH",
"111 486 OFFCURVE",
"98 474 OFFCURVE",
"76 474 CURVE SMOOTH",
"54 474 OFFCURVE",
"36 495 OFFCURVE",
"36 522 CURVE SMOOTH",
"36 570 OFFCURVE",
"85 603 OFFCURVE",
"142 603 CURVE SMOOTH",
"191 603 OFFCURVE",
"241 573 OFFCURVE",
"241 525 CURVE SMOOTH",
"241 477 OFFCURVE",
"207 451 OFFCURVE",
"173 437 CURVE SMOOTH",
"124 417 LINE SMOOTH",
"90 403 OFFCURVE",
"65 398 OFFCURVE",
"65 363 CURVE",
"77 372 OFFCURVE",
"92 379 OFFCURVE",
"117 379 CURVE SMOOTH",
"152 379 OFFCURVE",
"158 354 OFFCURVE",
"196 354 CURVE SMOOTH",
"220 354 OFFCURVE",
"225 375 OFFCURVE",
"220 414 CURVE",
"258 414 LINE",
"262 343 OFFCURVE",
"237 316 OFFCURVE",
"196 316 CURVE SMOOTH",
"147 316 OFFCURVE",
"152 341 OFFCURVE",
"117 341 CURVE SMOOTH",
"97 341 OFFCURVE",
"78 331 OFFCURVE",
"59 316 CURVE"
);
}
);
width = 600;
}
);
note = uni00B2;
unicode = 00B2;
},
{
glyphname = uni00B3;
lastChange = "2018-05-30 12:50:54 +0000";
layers = (
{
layerId = "569BED38-A8F7-49CD-B9BC-3027C0528AF7";
paths = (
{
closed = 1;
nodes = (
"177 499 LINE",
"208 499 OFFCURVE",
"257 467 OFFCURVE",
"257 413 CURVE SMOOTH",
"257 353 OFFCURVE",
"195 314 OFFCURVE",
"140 314 CURVE SMOOTH",
"80 314 OFFCURVE",
"25 348 OFFCURVE",
"25 393 CURVE SMOOTH",
"25 414 OFFCURVE",
"38 433 OFFCURVE",
"60 433 CURVE SMOOTH",
"79 433 OFFCURVE",
"91 422 OFFCURVE",
"91 405 CURVE SMOOTH",
"91 388 OFFCURVE",
"73 379 OFFCURVE",
"64 383 CURVE",
"71 367 OFFCURVE",
"88 352 OFFCURVE",
"140 352 CURVE SMOOTH",
"172 352 OFFCURVE",
"219 374 OFFCURVE",
"219 413 CURVE SMOOTH",
"219 451 OFFCURVE",
"182 473 OFFCURVE",
"139 467 CURVE",
"118 449 LINE",
"90 472 LINE",
"189 552 LINE",
"75 552 LINE",
"63 498 LINE",
"25 503 LINE",
"44 590 LINE",
"249 590 LINE",
"249 563 LINE"
);
}
);
width = 600;
}
);
note = uni00B3;
unicode = 00B3;
},
{
glyphname = fraction;
lastChange = "2018-05-04 08:01:45 +0000";
layers = (
{
layerId = "569BED38-A8F7-49CD-B9BC-3027C0528AF7";
paths = (
{
closed = 1;
nodes = (
"486 518 LINE",
"455 541 LINE",
"110 57 LINE",
"140 33 LINE"
);
}
);
width = 600;
}
);
note = fraction;
unicode = 2044;
},
{
glyphname = onehalf;
lastChange = "2018-05-04 08:01:45 +0000";
layers = (
{
layerId = "569BED38-A8F7-49CD-B9BC-3027C0528AF7";
paths = (
{
closed = 1;
nodes = (
"189 590 LINE",
"146 590 LINE",
"117 532 OFFCURVE",
"91 500 OFFCURVE",
"33 456 CURVE",
"55 431 LINE",
"110 469 OFFCURVE",
"128 486 OFFCURVE",
"152 525 CURVE",
"152 360 LINE",
"53 360 LINE",
"53 323 LINE",
"257 323 LINE",
"257 360 LINE",
"189 360 LINE"
);
},
{
closed = 1;
nodes = (
"495 518 LINE",
"464 541 LINE",
"119 57 LINE",
"149 33 LINE"
);
},
{
closed = 1;
nodes = (
"324 5 LINE",
"324 89 OFFCURVE",
"359 104 OFFCURVE",
"409 124 CURVE SMOOTH",
"461 145 LINE SMOOTH",
"486 155 OFFCURVE",
"502 172 OFFCURVE",
"502 195 CURVE SMOOTH",
"502 218 OFFCURVE",
"474 236 OFFCURVE",
"441 236 CURVE SMOOTH",
"398 236 OFFCURVE",
"377 220 OFFCURVE",
"376 203 CURVE",
"391 207 OFFCURVE",
"410 196 OFFCURVE",
"410 175 CURVE SMOOTH",
"410 157 OFFCURVE",
"397 145 OFFCURVE",
"375 145 CURVE SMOOTH",
"353 145 OFFCURVE",
"335 166 OFFCURVE",
"335 193 CURVE SMOOTH",
"335 241 OFFCURVE",
"384 274 OFFCURVE",
"441 274 CURVE SMOOTH",
"490 274 OFFCURVE",
"540 244 OFFCURVE",
"540 196 CURVE SMOOTH",
"540 148 OFFCURVE",
"506 122 OFFCURVE",
"472 108 CURVE SMOOTH",
"423 88 LINE SMOOTH",
"389 74 OFFCURVE",
"364 69 OFFCURVE",
"364 34 CURVE",
"376 43 OFFCURVE",
"391 50 OFFCURVE",
"416 50 CURVE SMOOTH",
"451 50 OFFCURVE",
"457 25 OFFCURVE",
"495 25 CURVE SMOOTH",
"519 25 OFFCURVE",
"524 46 OFFCURVE",
"519 85 CURVE",
"557 85 LINE",
"561 14 OFFCURVE",
"536 -13 OFFCURVE",
"495 -13 CURVE SMOOTH",
"446 -13 OFFCURVE",
"451 12 OFFCURVE",
"416 12 CURVE SMOOTH",
"396 12 OFFCURVE",
"377 2 OFFCURVE",
"358 -13 CURVE"
);
}
);
width = 600;
}
);
note = onehalf;
unicode = 00BD;
},
{
glyphname = onequarter;
lastChange = "2018-05-04 08:01:45 +0000";
layers = (
{
layerId = "569BED38-A8F7-49CD-B9BC-3027C0528AF7";
paths = (
{
closed = 1;
nodes = (
"53 360 LINE",
"53 323 LINE",
"257 323 LINE",
"257 360 LINE",
"189 360 LINE",
"189 590 LINE",
"146 590 LINE",
"117 532 OFFCURVE",
"91 500 OFFCURVE",
"33 456 CURVE",
"55 431 LINE",
"110 469 OFFCURVE",
"128 486 OFFCURVE",
"152 525 CURVE",
"152 360 LINE"
);
},
{
closed = 1;
nodes = (
"464 541 LINE",
"119 57 LINE",
"149 33 LINE",
"495 518 LINE"
);
},
{
closed = 1;
nodes = (
"560 62 LINE",
"496 62 LINE",
"497 188 LINE",
"459 188 LINE",
"458 62 LINE",
"343 62 LINE",
"400 136 OFFCURVE",
"431 192 OFFCURVE",
"449 262 CURVE",
"412 270 LINE",
"389 192 OFFCURVE",
"354 139 OFFCURVE",
"295 62 CURVE",
"295 24 LINE",
"457 24 LINE",
"457 -13 LINE",
"496 -13 LINE",
"496 24 LINE",
"560 24 LINE"
);
}
);
width = 600;
}
);
note = onequarter;
unicode = 00BC;
},
{
glyphname = threequarters;
lastChange = "2018-05-04 08:01:45 +0000";
layers = (
{
layerId = "569BED38-A8F7-49CD-B9BC-3027C0528AF7";
paths = (
{
closed = 1;
nodes = (
"280 471 OFFCURVE",
"232 500 OFFCURVE",
"201 500 CURVE",
"272 563 LINE",
"272 590 LINE",
"67 590 LINE",
"48 503 LINE",
"86 498 LINE",
"98 552 LINE",
"212 552 LINE",
"113 472 LINE",
"141 449 LINE",
"162 467 LINE",
"205 473 OFFCURVE",
"242 455 OFFCURVE",
"242 413 CURVE SMOOTH",
"242 367 OFFCURVE",
"197 352 OFFCURVE",
"162 352 CURVE SMOOTH",
"110 352 OFFCURVE",
"95 367 OFFCURVE",
"88 383 CURVE",
"97 379 OFFCURVE",
"114 388 OFFCURVE",
"114 405 CURVE SMOOTH",
"114 422 OFFCURVE",
"102 433 OFFCURVE",
"83 433 CURVE SMOOTH",
"61 433 OFFCURVE",
"48 414 OFFCURVE",
"48 393 CURVE SMOOTH",
"48 348 OFFCURVE",
"102 314 OFFCURVE",
"162 314 CURVE SMOOTH",
"215 314 OFFCURVE",
"280 343 OFFCURVE",
"280 413 CURVE SMOOTH"
);
},
{
closed = 1;
nodes = (
"464 541 LINE",
"119 57 LINE",
"149 33 LINE",
"495 518 LINE"
);
},
{
closed = 1;
nodes = (
"560 62 LINE",
"496 62 LINE",
"497 188 LINE",
"459 188 LINE",
"458 62 LINE",
"343 62 LINE",
"400 136 OFFCURVE",
"431 192 OFFCURVE",
"449 262 CURVE",
"412 270 LINE",
"389 192 OFFCURVE",
"354 139 OFFCURVE",
"295 62 CURVE",
"295 24 LINE",
"457 24 LINE",
"457 -13 LINE",
"496 -13 LINE",
"496 24 LINE",
"560 24 LINE"
);
}
);
width = 600;
}
);
note = threequarters;
unicode = 00BE;
},
